<svg width="135" height="40" viewBox="0 0 135 40" fill="none" xmlns="http://www.w3.org/2000/svg">
<path d="M125.447 0.5L126.478 0.513672C127.156 0.521173 127.835 0.575827 128.505 0.677734C129.114 0.773847 129.703 0.952826 130.253 1.20898C131.33 1.72473 132.2 2.53601 132.748 3.52344C133.017 4.02029 133.203 4.5524 133.3 5.09863C133.384 5.56856 133.44 6.04324 133.469 6.51855L133.488 6.99414C133.491 7.28576 133.491 7.59944 133.491 7.91504V7.92676C133.5 8.31218 133.5 8.67972 133.5 9.05664V30.9424L133.491 32.0547V32.0664C133.491 32.4058 133.491 32.7129 133.486 33.0283C133.474 33.6516 133.412 34.2736 133.302 34.8887L133.301 34.8916C133.205 35.4447 133.018 35.9819 132.745 36.4844C132.475 36.9706 132.123 37.4161 131.701 37.8037L131.697 37.8076C131.328 38.1542 130.907 38.4516 130.447 38.6904L130.248 38.7891C129.768 39.0145 129.257 39.1801 128.729 39.2822L128.502 39.3223C127.829 39.4241 127.148 39.4786 126.466 39.4863L126.461 39.4873C126.134 39.4943 125.791 39.498 125.459 39.498L124.235 39.499L9.54004 39.498C9.20048 39.498 8.86826 39.4944 8.53027 39.4873L8.52637 39.4863C7.84292 39.4781 7.16086 39.4229 6.48633 39.3213C5.88379 39.2245 5.29902 39.0452 4.75488 38.79C4.21823 38.5381 3.73061 38.2081 3.30957 37.8145L3.30469 37.8105L3.14746 37.6621C2.79014 37.3089 2.49028 36.9107 2.25586 36.4805L2.25488 36.4795C1.98222 35.9813 1.79407 35.4483 1.69629 34.8994C1.5851 34.2782 1.52522 33.6491 1.5166 33.0195V33.0098L1.50586 32.458C1.50425 32.353 1.50294 32.2546 1.50195 32.1826C1.50146 32.1466 1.50027 32.1171 1.5 32.0967V7.89062C1.50028 7.87059 1.50144 7.84181 1.50195 7.80664C1.50299 7.7357 1.50421 7.63851 1.50586 7.53516C1.5092 7.32652 1.51345 7.09672 1.5166 6.99512V6.98633C1.52485 6.35779 1.58445 5.73065 1.69531 5.11035C1.79337 4.55954 1.98185 4.0236 2.25488 3.52344L2.25586 3.52246C2.52304 3.03081 2.87528 2.58078 3.2998 2.19043L3.30176 2.18848C3.72718 1.79318 4.21773 1.46019 4.75684 1.2041C5.3001 0.949865 5.88261 0.772337 6.48438 0.677734C6.99109 0.600966 7.50205 0.551056 8.01465 0.527344L8.5293 0.512695L9.54688 0.5H125.447Z" stroke="#262626"/>
<path d="M26.7473 19.4945C26.7588 18.5939 26.9963 17.7109 27.4376 16.9276C27.8789 16.1443 28.5097 15.4862 29.2713 15.0145C28.7875 14.3183 28.1492 13.7454 27.4071 13.3413C26.6651 12.9372 25.8397 12.7129 24.9965 12.6863C23.198 12.4961 21.4543 13.7705 20.5378 13.7705C19.6036 13.7705 18.1924 12.7052 16.6729 12.7367C15.69 12.7687 14.7321 13.0566 13.8925 13.5725C13.0529 14.0883 12.3603 14.8144 11.8821 15.6801C9.81066 19.293 11.3558 24.6028 13.34 27.5232C14.3328 28.9533 15.4931 30.5507 17.0113 30.494C18.4969 30.4319 19.0517 29.5397 20.845 29.5397C22.6216 29.5397 23.1422 30.494 24.6912 30.458C26.2853 30.4319 27.2897 29.0216 28.2477 27.578C28.961 26.559 29.5099 25.4329 29.874 24.2412C28.9478 23.8466 28.1575 23.186 27.6015 22.342C27.0455 21.4979 26.7484 20.5076 26.7473 19.4945Z" fill="#171717"/>
<path d="M23.823 10.7664C24.6922 9.7152 25.1204 8.3641 25.0167 7C23.6888 7.14051 22.4622 7.77988 21.5812 8.79071C21.1505 9.28453 20.8206 9.85903 20.6104 10.4814C20.4002 11.1037 20.3139 11.7617 20.3562 12.4176C21.0204 12.4245 21.6775 12.2795 22.278 11.9935C22.8785 11.7074 23.4068 11.2879 23.823 10.7664Z" fill="#171717"/>
<path d="M46.9909 27.1397H42.2923L41.164 30.4961H39.1738L43.6243 18.0781H45.6919L50.1424 30.4961H48.1183L46.9909 27.1397ZM42.779 25.5908H46.5034L44.6674 20.1436H44.616L42.779 25.5908Z" fill="#171717"/>
<path d="M59.7545 25.9695C59.7545 28.7829 58.2597 30.5905 56.004 30.5905C55.4326 30.6207 54.8643 30.4881 54.3642 30.2079C53.8641 29.9278 53.4524 29.5114 53.1763 29.0065H53.1336V33.4909H51.2889V21.4421H53.0745V22.948H53.1084C53.3973 22.4455 53.8159 22.0313 54.3198 21.7495C54.8237 21.4676 55.394 21.3287 55.9701 21.3474C58.251 21.3474 59.7545 23.1638 59.7545 25.9695ZM57.8584 25.9695C57.8584 24.1365 56.9181 22.9314 55.4834 22.9314C54.0739 22.9314 53.1259 24.1618 53.1259 25.9695C53.1259 27.7937 54.0739 29.0154 55.4834 29.0154C56.9181 29.0154 57.8584 27.8191 57.8584 25.9695Z" fill="#171717"/>
<path d="M69.6453 25.9694C69.6453 28.7829 68.1505 30.5905 65.8948 30.5905C65.3233 30.6206 64.755 30.488 64.255 30.2079C63.7549 29.9278 63.3432 29.5114 63.0671 29.0065H63.0244V33.4909H61.1797V21.4421H62.9652V22.948H62.9992C63.288 22.4455 63.7066 22.0313 64.2105 21.7495C64.7144 21.4676 65.2847 21.3287 65.8608 21.3474C68.1418 21.3474 69.6453 23.1638 69.6453 25.9694ZM67.7492 25.9694C67.7492 24.1364 66.8089 22.9314 65.3742 22.9314C63.9647 22.9314 63.0167 24.1618 63.0167 25.9694C63.0167 27.7937 63.9647 29.0153 65.3742 29.0153C66.8089 29.0153 67.7492 27.8191 67.7492 25.9694Z" fill="#171717"/>
<path d="M76.1832 27.0362C76.3199 28.2676 77.5074 29.0762 79.1302 29.0762C80.685 29.0762 81.8037 28.2676 81.8037 27.1572C81.8037 26.1934 81.129 25.6162 79.5315 25.2207L77.9339 24.833C75.6704 24.2822 74.6196 23.2158 74.6196 21.4854C74.6196 19.3428 76.4731 17.8711 79.1049 17.8711C81.7097 17.8711 83.4953 19.3428 83.5554 21.4854H81.6932C81.5817 20.2461 80.5648 19.4981 79.0788 19.4981C77.5927 19.4981 76.5758 20.2549 76.5758 21.3565C76.5758 22.2344 77.2253 22.751 78.8141 23.1465L80.1722 23.4824C82.7013 24.0849 83.7521 25.1084 83.7521 26.9248C83.7521 29.248 81.9152 30.7031 78.9934 30.7031C76.2598 30.7031 74.4141 29.2822 74.2948 27.0361L76.1832 27.0362Z" fill="#171717"/>
<path d="M87.7324 19.2998V21.4424H89.4415V22.9141H87.7324V27.9053C87.7324 28.6807 88.0746 29.042 88.8259 29.042C89.0288 29.0384 89.2314 29.0241 89.4327 28.999V30.4619C89.095 30.5255 88.7517 30.5543 88.4081 30.5478C86.5886 30.5478 85.879 29.8593 85.879 28.1035V22.9141H84.5723V21.4424H85.879V19.2998H87.7324Z" fill="#171717"/>
<path d="M90.4316 25.9697C90.4316 23.1211 92.097 21.3311 94.694 21.3311C97.2997 21.3311 98.9573 23.1211 98.9573 25.9697C98.9573 28.8262 97.3084 30.6084 94.694 30.6084C92.0805 30.6084 90.4316 28.8262 90.4316 25.9697ZM97.0777 25.9697C97.0777 24.0156 96.1888 22.8623 94.694 22.8623C93.1992 22.8623 92.3112 24.0244 92.3112 25.9697C92.3112 27.9316 93.1992 29.0762 94.694 29.0762C96.1888 29.0762 97.0777 27.9316 97.0777 25.9697Z" fill="#171717"/>
<path d="M100.479 21.443H102.239V22.984H102.281C102.4 22.5027 102.68 22.0774 103.074 21.7795C103.468 21.4816 103.951 21.3293 104.443 21.3483C104.656 21.3475 104.868 21.3708 105.075 21.4176V23.1559C104.807 23.0733 104.527 23.0353 104.246 23.0436C103.978 23.0326 103.711 23.0802 103.463 23.1831C103.215 23.286 102.992 23.4417 102.809 23.6396C102.627 23.8375 102.489 24.0729 102.405 24.3296C102.321 24.5862 102.294 24.8581 102.324 25.1266V30.4967H100.479V21.443Z" fill="#171717"/>
<path d="M113.58 27.8369C113.332 29.4805 111.743 30.6084 109.711 30.6084C107.096 30.6084 105.473 28.8437 105.473 26.0127C105.473 23.1729 107.105 21.3311 109.633 21.3311C112.12 21.3311 113.683 23.0518 113.683 25.7969V26.4336H107.336V26.5459C107.306 26.8791 107.348 27.2148 107.457 27.5306C107.566 27.8464 107.741 28.1352 107.97 28.3778C108.199 28.6203 108.476 28.8111 108.783 28.9374C109.091 29.0637 109.421 29.1226 109.753 29.1103C110.189 29.1515 110.627 29.0498 111.001 28.8203C111.375 28.5909 111.665 28.246 111.829 27.8369H113.58ZM107.344 25.1348H111.837C111.854 24.8352 111.809 24.5354 111.705 24.2541C111.601 23.9729 111.441 23.7164 111.234 23.5006C111.027 23.2849 110.778 23.1145 110.502 23.0003C110.227 22.8861 109.931 22.8305 109.633 22.8369C109.333 22.8351 109.035 22.8933 108.757 23.008C108.479 23.1227 108.226 23.2918 108.013 23.5054C107.801 23.7191 107.632 23.973 107.517 24.2527C107.402 24.5323 107.344 24.8321 107.344 25.1348Z" fill="#171717"/>
<path d="M43.5496 8.7304C43.9364 8.70244 44.3244 8.7613 44.6859 8.90274C45.0473 9.04417 45.3731 9.26465 45.6397 9.54828C45.9063 9.8319 46.1071 10.1716 46.2276 10.5429C46.3481 10.9141 46.3853 11.3077 46.3366 11.6952C46.3366 13.6015 45.3139 14.6972 43.5496 14.6972H41.4102V8.7304H43.5496ZM42.3301 13.8534H43.4468C43.7232 13.87 43.9998 13.8244 44.2564 13.7198C44.513 13.6152 44.7433 13.4542 44.9304 13.2487C45.1175 13.0431 45.2568 12.7981 45.338 12.5315C45.4193 12.2648 45.4405 11.9833 45.4001 11.7074C45.4376 11.4326 45.4142 11.1528 45.3317 10.8881C45.2492 10.6235 45.1096 10.3805 44.9229 10.1765C44.7362 9.97261 44.5071 9.8128 44.2519 9.70856C43.9967 9.60433 43.7218 9.55824 43.4468 9.57361H42.3301V13.8534Z" fill="#171717"/>
<path d="M47.375 12.4438C47.3469 12.1479 47.3805 11.8493 47.4737 11.5672C47.5668 11.2852 47.7175 11.0258 47.916 10.8059C48.1144 10.5859 48.3563 10.4101 48.6262 10.2898C48.8961 10.1696 49.1879 10.1074 49.483 10.1074C49.778 10.1074 50.0699 10.1696 50.3397 10.2898C50.6096 10.4101 50.8515 10.5859 51.05 10.8059C51.2484 11.0258 51.3991 11.2852 51.4922 11.5672C51.5854 11.8493 51.619 12.1479 51.5909 12.4438C51.6195 12.74 51.5863 13.039 51.4934 13.3215C51.4005 13.6041 51.25 13.8639 51.0514 14.0843C50.8529 14.3047 50.6108 14.4808 50.3407 14.6014C50.0706 14.7219 49.7784 14.7842 49.483 14.7842C49.1875 14.7842 48.8954 14.7219 48.6252 14.6014C48.3551 14.4808 48.113 14.3047 47.9145 14.0843C47.716 13.8639 47.5654 13.6041 47.4725 13.3215C47.3796 13.039 47.3464 12.74 47.375 12.4438ZM50.6835 12.4438C50.6835 11.4677 50.2483 10.8969 49.4844 10.8969C48.7176 10.8969 48.2863 11.4677 48.2863 12.4438C48.2863 13.4277 48.7177 13.9941 49.4844 13.9941C50.2483 13.9941 50.6835 13.4238 50.6835 12.4438Z" fill="#171717"/>
<path d="M57.1937 14.6973H56.2786L55.3548 11.3809H55.285L54.365 14.6973H53.4587L52.2266 10.1943H53.1213L53.922 13.6303H53.988L54.9069 10.1943H55.7532L56.6722 13.6303H56.742L57.5388 10.1943H58.4209L57.1937 14.6973Z" fill="#171717"/>
<path d="M59.457 10.1949H60.3062V10.9102H60.3721C60.4839 10.6533 60.6725 10.4379 60.9116 10.2941C61.1507 10.1503 61.4284 10.0852 61.706 10.108C61.9235 10.0915 62.1418 10.1245 62.3449 10.2046C62.548 10.2847 62.7306 10.4098 62.8792 10.5707C63.0278 10.7315 63.1385 10.924 63.2033 11.1338C63.268 11.3436 63.285 11.5654 63.2531 11.7828V14.6978H62.371V12.0059C62.371 11.2823 62.0588 10.9224 61.4064 10.9224C61.2588 10.9155 61.1114 10.9408 60.9743 10.9966C60.8373 11.0525 60.7138 11.1375 60.6125 11.2459C60.5111 11.3543 60.4342 11.4834 60.387 11.6246C60.3398 11.7657 60.3235 11.9154 60.3391 12.0635V14.6978H59.457V10.1949Z" fill="#171717"/>
<path d="M64.6602 8.43652H65.5423V14.6973H64.6602V8.43652Z" fill="#171717"/>
<path d="M66.7678 12.4439C66.7398 12.1479 66.7734 11.8494 66.8666 11.5673C66.9597 11.2852 67.1104 11.0259 67.3089 10.8059C67.5074 10.5859 67.7493 10.4101 68.0192 10.2898C68.2891 10.1696 68.5809 10.1074 68.876 10.1074C69.1711 10.1074 69.4629 10.1696 69.7328 10.2898C70.0027 10.4101 70.2446 10.5859 70.4431 10.8059C70.6416 11.0259 70.7923 11.2852 70.8854 11.5673C70.9786 11.8494 71.0122 12.1479 70.9842 12.4439C71.0128 12.7401 70.9794 13.0391 70.8865 13.3216C70.7936 13.6042 70.643 13.864 70.4444 14.0844C70.2459 14.3048 70.0039 14.4809 69.7338 14.6014C69.4636 14.722 69.1714 14.7842 68.876 14.7842C68.5806 14.7842 68.2883 14.722 68.0181 14.6014C67.748 14.4809 67.506 14.3048 67.3075 14.0844C67.1089 13.864 66.9583 13.6042 66.8654 13.3216C66.7725 13.0391 66.7392 12.7401 66.7678 12.4439ZM70.0763 12.4439C70.0763 11.4678 69.641 10.897 68.8771 10.897C68.1103 10.897 67.6791 11.4678 67.6791 12.4439C67.6791 13.4278 68.1104 13.9942 68.8771 13.9942C69.641 13.9942 70.0763 13.4239 70.0763 12.4439Z" fill="#171717"/>
<path d="M71.9141 13.4238C71.9141 12.6133 72.5132 12.146 73.5766 12.0796L74.7873 12.0093V11.6206C74.7873 11.145 74.4752 10.8765 73.8722 10.8765C73.3798 10.8765 73.0386 11.0586 72.9407 11.377H72.0866C72.1768 10.6035 72.899 10.1074 73.913 10.1074C75.0336 10.1074 75.6656 10.6694 75.6656 11.6206V14.6973H74.8164V14.0645H74.7466C74.605 14.2914 74.406 14.4765 74.1701 14.6007C73.9343 14.7249 73.6699 14.7838 73.404 14.7715C73.2164 14.7911 73.0267 14.7709 72.8473 14.7122C72.6679 14.6536 72.5026 14.5576 72.3623 14.4307C72.2219 14.3037 72.1095 14.1485 72.0323 13.9751C71.9551 13.8017 71.9148 13.6139 71.9141 13.4238ZM74.7873 13.0391V12.6626L73.6958 12.7329C73.0802 12.7744 72.8011 12.9853 72.8011 13.3823C72.8011 13.7876 73.15 14.0234 73.6299 14.0234C73.7705 14.0378 73.9126 14.0235 74.0476 13.9814C74.1826 13.9393 74.3078 13.8703 74.4158 13.7784C74.5238 13.6866 74.6123 13.5738 74.6761 13.4468C74.74 13.3198 74.7778 13.1811 74.7873 13.0391Z" fill="#171717"/>
<path d="M76.8223 12.4439C76.8223 11.021 77.5484 10.1196 78.6777 10.1196C78.9571 10.1067 79.2343 10.1741 79.4771 10.314C79.7198 10.4539 79.918 10.6605 80.0484 10.9096H80.1144V8.43652H80.9965V14.6973H80.1512V13.9858H80.0814C79.9408 14.2333 79.7358 14.4374 79.4883 14.5758C79.2409 14.7143 78.9606 14.782 78.6777 14.7715C77.5407 14.7715 76.8223 13.8701 76.8223 12.4439ZM77.7336 12.4439C77.7336 13.3989 78.1805 13.9737 78.9279 13.9737C79.6714 13.9737 80.1309 13.3907 80.1309 12.4478C80.1309 11.5093 79.6665 10.918 78.9279 10.918C78.1853 10.918 77.7336 11.4966 77.7336 12.4439Z" fill="#171717"/>
<path d="M84.6487 12.4438C84.6206 12.1479 84.6542 11.8493 84.7473 11.5672C84.8405 11.2852 84.9911 11.0258 85.1896 10.8059C85.3881 10.5859 85.63 10.4101 85.8998 10.2898C86.1697 10.1696 86.4615 10.1074 86.7566 10.1074C87.0517 10.1074 87.3435 10.1696 87.6134 10.2898C87.8832 10.4101 88.1251 10.5859 88.3236 10.8059C88.5221 11.0258 88.6727 11.2852 88.7659 11.5672C88.859 11.8493 88.8926 12.1479 88.8645 12.4438C88.8931 12.74 88.8599 13.039 88.767 13.3215C88.6741 13.6041 88.5236 13.8639 88.3251 14.0843C88.1265 14.3047 87.8844 14.4808 87.6143 14.6014C87.3442 14.7219 87.052 14.7842 86.7566 14.7842C86.4612 14.7842 86.169 14.7219 85.8989 14.6014C85.6287 14.4808 85.3866 14.3047 85.1881 14.0843C84.9896 13.8639 84.839 13.6041 84.7461 13.3215C84.6532 13.039 84.62 12.74 84.6487 12.4438ZM87.9572 12.4438C87.9572 11.4677 87.5219 10.8969 86.758 10.8969C85.9913 10.8969 85.5599 11.4677 85.5599 12.4438C85.5599 13.4277 85.9913 13.9941 86.758 13.9941C87.5219 13.9941 87.9572 13.4238 87.9572 12.4438Z" fill="#171717"/>
<path d="M90.0469 10.1949H90.896V10.9102H90.962C91.0738 10.6533 91.2624 10.4379 91.5015 10.2941C91.7406 10.1503 92.0183 10.0852 92.2958 10.108C92.5133 10.0915 92.7317 10.1245 92.9348 10.2046C93.1379 10.2847 93.3205 10.4098 93.4691 10.5707C93.6176 10.7315 93.7284 10.924 93.7931 11.1338C93.8578 11.3436 93.8749 11.5654 93.843 11.7828V14.6978H92.9608V12.0059C92.9608 11.2823 92.6487 10.9224 91.9963 10.9224C91.8486 10.9155 91.7012 10.9408 91.5642 10.9966C91.4271 11.0525 91.3037 11.1375 91.2023 11.2459C91.1009 11.3543 91.024 11.4834 90.9769 11.6246C90.9297 11.7657 90.9133 11.9154 90.929 12.0635V14.6978H90.0469V10.1949Z" fill="#171717"/>
<path d="M98.8289 9.07324V10.2148H99.7974V10.9634H98.8289V13.2788C98.8289 13.7505 99.0219 13.957 99.461 13.957C99.5734 13.9567 99.6857 13.9498 99.7974 13.9365V14.6768C99.6389 14.7053 99.4784 14.7205 99.3175 14.7222C98.3365 14.7222 97.9458 14.3745 97.9458 13.5063V10.9633H97.2363V10.2148H97.9458V9.07324H98.8289Z" fill="#171717"/>
<path d="M101.002 8.43652H101.876V10.918H101.946C102.063 10.6587 102.257 10.4421 102.501 10.2977C102.745 10.1534 103.027 10.0883 103.309 10.1113C103.525 10.0995 103.742 10.1359 103.942 10.2179C104.143 10.2999 104.324 10.4256 104.471 10.586C104.618 10.7463 104.728 10.9373 104.793 11.1455C104.858 11.3536 104.877 11.5737 104.848 11.79V14.6973H103.965V12.0093C103.965 11.29 103.633 10.9258 103.01 10.9258C102.858 10.9132 102.705 10.9342 102.563 10.9873C102.42 11.0404 102.291 11.1242 102.183 11.2329C102.076 11.3417 101.994 11.4727 101.942 11.6168C101.89 11.761 101.871 11.9147 101.884 12.0674V14.6973H101.002V8.43652Z" fill="#171717"/>
<path d="M109.991 13.4815C109.872 13.8931 109.612 14.249 109.258 14.4872C108.904 14.7253 108.478 14.8305 108.055 14.7842C107.76 14.7921 107.467 14.7353 107.197 14.6177C106.926 14.5002 106.685 14.3248 106.488 14.1036C106.292 13.8825 106.145 13.6209 106.059 13.3371C105.973 13.0533 105.949 12.754 105.99 12.46C105.951 12.1652 105.975 11.8652 106.061 11.5805C106.146 11.2959 106.292 11.0331 106.487 10.81C106.683 10.587 106.924 10.4088 107.193 10.2876C107.463 10.1664 107.755 10.105 108.051 10.1075C109.294 10.1075 110.045 10.9635 110.045 12.3775V12.6876H106.888V12.7374C106.875 12.9026 106.895 13.069 106.949 13.2257C107.003 13.3825 107.088 13.5262 107.2 13.6476C107.312 13.7691 107.448 13.8656 107.6 13.931C107.751 13.9964 107.914 14.0292 108.079 14.0274C108.29 14.0529 108.504 14.0146 108.693 13.9174C108.882 13.8202 109.039 13.6685 109.142 13.4815H109.991ZM106.888 12.0303H109.146C109.157 11.8792 109.137 11.7274 109.086 11.5847C109.036 11.442 108.956 11.3115 108.852 11.2016C108.749 11.0918 108.623 11.005 108.485 10.9468C108.346 10.8886 108.196 10.8604 108.046 10.8638C107.893 10.8619 107.742 10.8908 107.6 10.9487C107.459 11.0067 107.331 11.0925 107.223 11.2012C107.115 11.3099 107.03 11.4393 106.972 11.5817C106.915 11.7241 106.886 11.8766 106.888 12.0303Z" fill="#171717"/>
</svg>
