<svg xmlns="http://www.w3.org/2000/svg" width="165" height="158" viewBox="0 0 165 158" fill="none">
  <path d="M29.3274 24.1714C29.3032 31.4201 24.8299 37.2887 19.3123 37.2887C24.8437 37.2887 29.3274 43.1865 29.3274 50.461C29.3274 43.2054 33.7887 37.3197 39.2994 37.2887C33.8007 37.256 29.3498 31.4012 29.3274 24.1714Z" fill="#FC92C3"/>
  <path d="M48.8596 0.27002C48.8476 4.06822 46.5023 7.14361 43.6125 7.14361C46.5092 7.14361 48.8596 10.2414 48.8596 14.0447C48.8596 10.2431 51.1962 7.16082 54.0843 7.14361C51.2049 7.1264 48.8717 4.05961 48.8596 0.27002Z" fill="#FC92C3"/>
  <path d="M53.8723 50.833C53.8533 56.6654 50.2536 61.3861 45.8147 61.3861C50.2639 61.3861 53.8723 66.1308 53.8723 71.9838C53.8723 66.1463 57.4617 61.4101 61.8954 61.3861C57.472 61.3602 53.8878 56.6499 53.8723 50.833Z" fill="#FC92C3"/>
  <path d="M28.4847 24.4375C29.007 27.5608 29.5658 30.8197 31.3327 33.48C32.0469 34.5878 32.9637 35.539 34.0311 36.2795C35.3176 37.1476 36.7729 37.4586 38.2683 37.6955V36.5544C35.5457 37.2981 33.1673 39.0253 31.56 41.4263C29.9526 43.8272 29.2215 46.7447 29.4979 49.6551C29.571 50.4056 30.7165 50.4146 30.6364 49.6551C30.3638 47.0066 31.0146 44.3443 32.4705 42.1519C33.9265 39.9594 36.0911 38.3821 38.5712 37.7064C39.0796 37.5671 39.1457 36.6575 38.5712 36.5652C37.1785 36.3446 35.8102 36.0824 34.6056 35.2686C33.5572 34.5296 32.6767 33.5619 32.0256 32.4328C30.5354 29.9389 30.0584 26.9766 29.5884 24.1319C29.4631 23.3832 28.3698 23.6997 28.4899 24.4466L28.4847 24.4375Z" fill="black"/>
  <path d="M104.429 50.5739C104.429 50.5739 101.101 30.0777 98.7495 27.8379C96.3985 25.5981 77.9721 19.8365 75.4592 19.0676C72.9464 18.2987 71.5677 19.059 71.2872 20.9246C71.0066 22.7903 73.1546 23.9848 73.1546 23.9848C73.1546 23.9848 69.6745 22.1878 68.2201 24.4705C66.7658 26.7532 70.523 29.4667 70.523 29.4667C70.523 29.4667 68.5144 28.5279 67.3665 30.5823C66.2185 32.6367 69.4146 35.0241 69.4146 35.0241C69.4146 35.0241 67.2443 34.166 66.2477 35.9612C65.2512 37.7565 71.8379 42.2944 75.3181 44.0914C75.3731 46.6762 79.1046 61.3214 79.1046 61.3214C79.1046 61.3214 97.2642 54.8612 104.429 50.5739Z" fill="#FFC89E"/>
  <path d="M69.7206 30.0001C70.8028 31.1359 72.3468 31.9517 73.6512 32.8087C75.0941 33.7576 76.5548 34.6754 78.0332 35.5623C78.6553 35.9392 79.2222 34.9651 78.6019 34.5899C77.2165 33.7513 75.846 32.8908 74.4904 32.0085C73.1808 31.148 71.5989 30.3322 70.5185 29.1981C70.017 28.6715 69.2209 29.4683 69.7206 29.9949V30.0001Z" fill="black"/>
  <path d="M68.5592 35.587C70.7068 36.7061 72.7646 37.9892 74.7143 39.4248C75.2985 39.8568 75.862 38.8792 75.283 38.4524C73.3336 37.0152 71.2758 35.731 69.1278 34.6112C68.4851 34.267 67.9216 35.248 68.5592 35.5836V35.587Z" fill="black"/>
  <path d="M79.2841 36.6315C77.638 38.254 76.287 40.1501 75.2915 42.235C74.9813 42.8872 75.9532 43.4586 76.2651 42.8046C77.213 40.8039 78.5042 38.9844 80.0802 37.4283C80.5972 36.912 79.8011 36.1203 79.2841 36.6315Z" fill="black"/>
  <path d="M72.438 24.6009C73.5115 25.4142 74.6387 26.1542 75.812 26.8158C76.4444 27.1721 77.0182 26.1997 76.3806 25.8435C75.2105 25.1811 74.0862 24.4412 73.0152 23.6286C72.4362 23.1915 71.8745 24.169 72.4449 24.6009H72.438Z" fill="black"/>
  <path d="M58.485 49.882C58.9093 50.169 59.5444 50.2909 60.171 50.3536C60.84 50.4206 61.659 50.4323 62.5671 50.4034C64.3865 50.3454 66.6353 50.1217 68.9049 49.8097C71.1767 49.4973 73.4858 49.0942 75.4294 48.6732C77.3461 48.2581 78.9825 47.8103 79.8572 47.3917C80.3028 47.1784 80.562 46.7523 80.723 46.3702C80.8932 45.9661 81.0134 45.4665 81.1002 44.913C81.2746 43.8015 81.3345 42.3346 81.31 40.6584C81.2608 37.2973 80.8696 32.9738 80.2974 28.6982C79.7252 24.4216 78.9683 20.1665 78.1813 16.9406C77.7887 15.3315 77.3828 13.954 76.9801 12.9518C76.78 12.4538 76.5683 12.0169 76.3422 11.6838C76.1458 11.3947 75.8171 10.9976 75.3234 10.9104C74.9127 10.8378 74.2977 10.8144 73.58 10.8189C72.8467 10.8235 71.9567 10.8583 70.9699 10.917C68.9955 11.0344 66.6101 11.249 64.2713 11.5185C61.9338 11.7877 59.6302 12.1131 57.8219 12.4535C56.9195 12.6234 56.1261 12.7996 55.5082 12.9783C55.1999 13.0674 54.9213 13.1611 54.6885 13.2603C54.4744 13.3517 54.2262 13.4773 54.0412 13.6579C53.8653 13.8296 53.7838 14.0451 53.7421 14.1758C53.6935 14.3286 53.6593 14.5002 53.6338 14.6754C53.5824 15.0276 53.5542 15.4771 53.5427 15.9951C53.5197 17.0359 53.5629 18.4353 53.6568 20.0629C53.8449 23.3224 54.2397 27.5529 54.7383 31.7803C55.2369 36.0072 55.841 40.2456 56.4494 43.5197C56.7531 45.1544 57.0609 46.5647 57.361 47.618C57.5105 48.1429 57.6636 48.5989 57.821 48.9567C57.8996 49.1356 57.986 49.3054 58.0824 49.453C58.1729 49.5917 58.3028 49.7588 58.485 49.882ZM58.485 49.882L58.9052 49.261L58.4853 49.8822C58.4852 49.8821 58.4851 49.8821 58.485 49.882Z" fill="white" stroke="black" stroke-width="1.5" stroke-linejoin="round"/>
  <path d="M59.9341 20.9048C58.8734 21.0579 58.2231 22.0723 58.3694 23.0839L60.8877 40.4976C61.0011 41.2812 61.5292 41.8555 62.1795 42.0713C62.8356 42.289 63.6099 42.1352 64.1342 41.5163L68.1804 36.7392C68.2905 36.6093 68.4586 36.585 68.601 36.6786L73.8353 40.1169C74.5135 40.5624 75.2997 40.4911 75.8673 40.0969C76.4299 39.7061 76.7737 39.006 76.6604 38.2224L74.1421 20.8087C73.9958 19.7971 73.0847 19.0079 72.024 19.1609L59.9341 20.9048Z" fill="#007AFF" stroke="black" stroke-width="1.5"/>
  <path d="M94.1379 30.7419C93.7513 30.5686 79.0804 24.7486 75.2537 26.4979C71.427 28.2472 78.7562 34.2908 81.8632 35.5321C79.6915 40.4453 77.4183 46.5322 79.7859 51.8043C82.1536 57.0764 108.132 37.3021 94.1379 30.7419Z" fill="#FFC89E"/>
  <path d="M91.7854 29.4781C90.3209 28.7923 88.7232 28.3809 87.1781 27.906C85.4981 27.3917 83.8112 26.8877 82.1084 26.4471C79.6839 25.818 76.0418 24.5716 74.1639 26.946C72.2859 29.3203 75.1887 31.765 77.0281 33.0216C78.3052 33.8942 79.6558 34.6399 80.9522 35.4799C81.3025 35.7028 81.3393 35.7131 81.2097 36.0937C81.0801 36.4742 80.8331 36.8257 80.6701 37.1788C80.3531 37.8646 80.0675 38.5657 79.8188 39.2772C78.6559 42.6667 78.3176 46.2751 78.8307 49.8151C78.9306 50.5266 80.036 50.2232 79.9361 49.5169C79.5206 46.5262 79.7473 43.4835 80.6018 40.5835C81.0202 39.2337 81.5547 37.9209 82.1995 36.6594C82.5919 35.8622 82.5884 35.2553 81.8246 34.705C79.6716 33.1519 76.8196 32.1524 75.243 29.9221C74.3163 28.6003 74.8418 27.1911 76.4448 26.7746C77.9496 26.3906 79.6874 26.9906 81.1431 27.354C82.7968 27.7654 84.4313 28.2369 86.0605 28.7255C87.7703 29.2398 89.5886 29.6769 91.2073 30.4398C91.8695 30.7501 92.4511 29.7815 91.7854 29.4712V29.4781Z" fill="black"/>
  <path fill-rule="evenodd" clip-rule="evenodd" d="M111.204 119.358C115.611 90.2411 111.083 64.6417 108.636 53.9728C108.161 51.9003 105.937 50.7926 103.882 51.6574C97.7628 54.2319 87.5132 58.4896 81.4316 60.7144C80.1025 61.2006 79.1418 62.3196 78.9261 63.6503C75.2689 86.2155 76.292 109.369 76.9345 118.603C77.0583 120.383 78.4829 121.766 80.2858 121.853C87.1998 122.187 100.862 122.708 108.457 122.071C109.854 121.953 110.977 120.858 111.204 119.358ZM109.84 53.6975C109.182 50.829 106.118 49.3783 103.402 50.5208C97.2781 53.0975 87.056 57.3433 81.0068 59.5563C79.2898 60.1844 77.9992 61.6504 77.707 63.4532C74.0272 86.1582 75.0579 109.422 75.7026 118.689C75.8704 121.101 77.8075 122.968 80.2261 123.085C87.1207 123.418 100.869 123.945 108.56 123.3C110.584 123.13 112.122 121.548 112.425 119.542C116.864 90.213 112.305 64.4446 109.84 53.6975Z" fill="black"/>
  <path d="M152.748 152.459C152.748 152.459 144.465 141.195 134.281 141.067C125.582 148.045 118.387 152.222 113.571 154.6C109.813 156.455 105.523 154.791 103.465 151.14L98.5451 142.414L67.9805 139.947L59.2003 156.906L47.604 150.739L36.6892 143.826L15.3201 152.459C15.3201 152.459 11.5474 139.47 15.3201 134.646C19.0927 129.822 148.972 131.491 152.748 134.646C156.524 137.802 152.748 152.459 152.748 152.459Z" fill="#FAD92C"/>
  <path d="M159.441 125.579C157.795 128.766 135.739 142.697 133.266 141.823C130.793 140.949 126.063 132.969 126.089 130.292C126.115 127.616 150.096 112.897 152.264 114.048C154.432 115.2 161.087 122.393 159.441 125.579Z" fill="#FAD92C"/>
  <path d="M144.207 124.281C145.389 123.366 146.53 123.563 147.595 123.734C148.585 123.918 149.509 124.09 150.409 123.393C151.291 122.71 151.641 121.596 150.813 120.53C150.255 119.81 149.551 119.509 148.74 119.455C148.254 119.423 147.861 118.972 148.003 118.505C148.079 118.253 148.298 118.065 148.562 118.052C149.992 117.98 151.298 118.461 152.203 119.627C153.481 121.274 153.039 123.216 151.522 124.391C150.039 125.538 148.698 125.301 147.489 125.091C146.51 124.92 145.642 124.748 144.866 125.349C144.752 125.437 144.643 125.557 144.551 125.694C144.343 126.005 143.942 126.237 143.598 126.09C143.357 125.987 143.213 125.728 143.303 125.483C143.48 125.001 143.795 124.6 144.207 124.281ZM140.36 127.367C140.889 126.957 141.592 126.954 141.906 127.359C142.221 127.764 142.042 128.443 141.512 128.853C140.983 129.262 140.28 129.266 139.965 128.861C139.651 128.456 139.83 127.777 140.36 127.367Z" fill="black"/>
  <path d="M113.189 143.042C114.371 142.127 115.513 142.324 116.577 142.494C117.568 142.679 118.491 142.85 119.391 142.154C120.274 141.471 120.624 140.357 119.796 139.29C119.237 138.57 118.533 138.269 117.723 138.216C117.236 138.184 116.844 137.732 116.985 137.266C117.062 137.013 117.281 136.825 117.545 136.812C118.974 136.741 120.281 137.221 121.185 138.387C122.464 140.035 122.022 141.977 120.504 143.151C119.022 144.298 117.68 144.062 116.472 143.851C115.492 143.68 114.625 143.509 113.848 144.11C113.734 144.198 113.626 144.317 113.534 144.455C113.326 144.765 112.925 144.997 112.581 144.851C112.34 144.748 112.195 144.489 112.286 144.243C112.463 143.761 112.777 143.361 113.189 143.042ZM109.342 146.128C109.872 145.718 110.575 145.714 110.889 146.119C111.203 146.524 111.024 147.203 110.495 147.613C109.966 148.023 109.262 148.027 108.948 147.621C108.634 147.216 108.813 146.537 109.342 146.128Z" fill="black"/>
  <path d="M152.374 152.014C146.516 151.986 104.125 134.491 102.426 131.068C100.727 127.644 105.449 117.36 108.849 115.792C112.248 114.224 157.795 133.513 158.797 136.738C159.798 139.963 158.238 152.039 152.374 152.014Z" fill="#FAD92C"/>
  <path d="M108.741 116.119C108.58 116.188 108.916 116.119 108.818 116.119C108.981 116.119 109.14 116.109 109.302 116.119C109.687 116.148 110.07 116.206 110.446 116.292C111.711 116.557 112.962 116.886 114.193 117.277C117.849 118.39 121.439 119.717 125.004 121.084C133.397 124.302 141.71 127.8 149.788 131.73C152.392 132.997 155.074 134.268 157.466 135.91C157.772 136.106 158.059 136.329 158.323 136.576C158.381 136.632 158.611 136.898 158.519 136.774C158.676 136.986 158.559 136.73 158.631 137.035C159.059 138.821 158.858 140.817 158.573 142.608C158.061 145.82 156.511 151.969 152.116 151.473C150.766 151.32 149.393 150.891 148.094 150.505C145.996 149.884 143.92 149.18 141.857 148.451C131.257 144.697 120.769 140.427 110.661 135.55C109.689 135.079 108.722 134.597 107.76 134.105C107.108 133.769 106.536 134.747 107.183 135.084C112.004 137.566 116.986 139.757 121.978 141.865C127.5 144.204 133.072 146.436 138.704 148.505C142.698 149.97 146.79 151.57 150.979 152.409C152.464 152.707 153.906 152.71 155.228 151.852C157.066 150.658 158.106 148.537 158.788 146.538C159.546 144.287 159.949 141.934 159.986 139.562C160.005 138.442 160.113 136.834 159.3 135.927C158.715 135.28 157.902 134.799 157.164 134.344C155.922 133.579 154.633 132.892 153.338 132.222C145.328 128.084 136.961 124.568 128.568 121.247C124.56 119.662 120.525 118.132 116.429 116.784C114.971 116.306 113.504 115.847 112.014 115.473C111.075 115.238 110.077 114.978 109.101 114.973C108.779 114.964 108.459 115.023 108.162 115.146C107.489 115.437 108.071 116.413 108.741 116.124V116.119Z" fill="black"/>
  <path d="M59.5312 139.867C58.7143 141.119 57.5711 141.306 56.5096 141.493C55.5133 141.643 54.5844 141.783 53.9626 142.735C53.3529 143.669 53.3875 144.836 54.5196 145.573C55.2833 146.071 56.0476 146.125 56.8306 145.91C57.301 145.781 57.8196 146.079 57.8388 146.566C57.8492 146.83 57.7041 147.079 57.4585 147.178C56.1313 147.713 54.7399 147.686 53.5027 146.881C51.7545 145.742 51.5353 143.763 52.5839 142.157C53.608 140.588 54.9534 140.373 56.164 140.177C57.1459 140.017 58.0218 139.896 58.5583 139.074C58.637 138.953 58.7003 138.805 58.7423 138.645C58.837 138.284 59.1402 137.933 59.5131 137.959C59.7746 137.978 59.9956 138.175 59.9909 138.436C59.9817 138.95 59.8159 139.431 59.5312 139.867ZM62.154 135.693C61.7883 136.254 61.1252 136.487 60.6953 136.207C60.2654 135.927 60.212 135.227 60.5777 134.667C60.9435 134.107 61.6066 133.873 62.0365 134.153C62.4664 134.433 62.5198 135.133 62.154 135.693Z" fill="black"/>
  <path d="M127.507 119.877C124.259 124.477 87.0816 140.505 83.4388 138.435C79.796 136.364 74.2542 122.416 74.8849 118.172C75.5156 113.928 115.853 97.1914 118.953 99.6145C122.053 102.038 130.755 115.277 127.507 119.877Z" fill="#FAD92C"/>
  <path d="M89.7732 149.465C84.1401 149.668 48.8563 129.825 48.3014 125.676C47.7466 121.527 55.5043 108.676 59.266 106.608C63.0277 104.539 100.795 126.466 100.738 130.397C100.681 134.327 95.4045 149.262 89.7732 149.465Z" fill="#FAD92C"/>
  <path d="M54.9804 132.964C52.1579 137.134 19.2107 152.127 15.9178 150.346C12.6248 148.564 7.42077 136.185 7.90843 132.38C8.39609 128.575 44.1554 112.894 46.9694 114.998C49.7833 117.103 57.8013 128.794 54.9804 132.964Z" fill="#FAD92C"/>
  <path d="M27.9836 150.672C25.4333 152.717 3.32491 153.646 1.86193 151.503C0.398956 149.361 0.259378 139.475 1.40012 137.023C2.54086 134.571 26.4034 133.963 27.5235 136.192C28.6435 138.421 30.5321 148.629 27.9836 150.672Z" fill="#FAD92C"/>
  <path d="M27.4426 132.463C28.7983 131.832 29.8678 132.277 30.8679 132.678C31.7929 133.077 32.6557 133.448 33.6877 132.968C34.6994 132.497 35.2876 131.488 34.7168 130.265C34.3318 129.44 33.7119 128.991 32.9339 128.759C32.4663 128.621 32.1835 128.093 32.4249 127.669C32.5557 127.44 32.8102 127.305 33.0706 127.351C34.4806 127.597 35.6479 128.355 36.2719 129.692C37.1535 131.581 36.2921 133.377 34.5519 134.187C32.8522 134.978 31.5963 134.45 30.4647 133.978C29.5469 133.595 28.739 133.236 27.8487 133.65C27.7177 133.711 27.5853 133.804 27.4648 133.918C27.1938 134.174 26.7513 134.312 26.4487 134.093C26.2362 133.939 26.1527 133.655 26.2953 133.435C26.5749 133.004 26.9702 132.683 27.4426 132.463ZM23.007 134.622C23.614 134.339 24.3005 134.491 24.5173 134.956C24.7341 135.42 24.4089 136.043 23.8019 136.325C23.1949 136.608 22.5083 136.456 22.2916 135.992C22.0748 135.527 22.4 134.904 23.007 134.622Z" fill="black"/>
  <path d="M99.2991 118.696C100.655 118.065 101.724 118.51 102.724 118.912C103.649 119.31 104.512 119.682 105.544 119.201C106.556 118.73 107.144 117.721 106.573 116.498C106.188 115.673 105.568 115.224 104.79 114.993C104.323 114.854 104.04 114.326 104.281 113.903C104.412 113.673 104.667 113.539 104.927 113.584C106.337 113.831 107.504 114.588 108.128 115.925C109.01 117.814 108.148 119.61 106.408 120.42C104.709 121.211 103.453 120.684 102.321 120.211C101.403 119.828 100.595 119.469 99.7052 119.883C99.5742 119.944 99.4418 120.037 99.3212 120.151C99.0502 120.407 98.6077 120.545 98.3052 120.326C98.0927 120.172 98.0091 119.888 98.1518 119.668C98.4313 119.237 98.8267 118.916 99.2991 118.696ZM94.8635 120.855C95.4705 120.572 96.157 120.724 96.3738 121.189C96.5905 121.653 96.2653 122.276 95.6583 122.558C95.0513 122.841 94.3648 122.689 94.148 122.225C93.9312 121.76 94.2564 121.138 94.8635 120.855Z" fill="black"/>
  <path d="M134.359 136.269C133.031 135.581 132.732 134.464 132.44 133.427C132.192 132.452 131.96 131.543 130.949 131.019C129.959 130.506 128.799 130.656 128.177 131.854C127.757 132.662 127.779 133.427 128.07 134.184C128.246 134.638 127.999 135.184 127.516 135.251C127.254 135.288 126.992 135.168 126.87 134.935C126.205 133.668 126.094 132.283 126.774 130.973C127.735 129.123 129.685 128.709 131.389 129.592C133.054 130.454 133.401 131.77 133.717 132.953C133.973 133.914 134.181 134.772 135.053 135.224C135.181 135.29 135.335 135.338 135.499 135.364C135.868 135.422 136.247 135.688 136.258 136.061C136.266 136.323 136.091 136.563 135.83 136.584C135.317 136.626 134.822 136.509 134.359 136.269ZM138.778 138.462C138.183 138.154 137.885 137.518 138.121 137.063C138.357 136.608 139.05 136.486 139.644 136.794C140.239 137.102 140.537 137.738 140.301 138.193C140.065 138.648 139.372 138.77 138.778 138.462Z" fill="black"/>
  <path d="M72.8323 129.611C71.5046 128.923 71.2049 127.806 70.9133 126.769C70.6654 125.794 70.4335 124.885 69.4229 124.361C68.432 123.848 67.2727 123.998 66.6505 125.196C66.2308 126.004 66.2525 126.769 66.5438 127.525C66.7189 127.98 66.4728 128.526 65.9897 128.593C65.7278 128.63 65.4657 128.51 65.343 128.276C64.6783 127.01 64.5669 125.625 65.2471 124.315C66.2081 122.465 68.1583 122.051 69.8625 122.934C71.527 123.796 71.8748 125.112 72.1905 126.295C72.4463 127.255 72.6543 128.114 73.5262 128.565C73.6545 128.632 73.8086 128.68 73.9726 128.706C74.3415 128.764 74.7207 129.03 74.7316 129.403C74.7392 129.665 74.5646 129.905 74.3031 129.926C73.7909 129.968 73.295 129.851 72.8323 129.611ZM77.2511 131.804C76.6566 131.496 76.3581 130.86 76.5944 130.405C76.8307 129.95 77.5231 129.828 78.1176 130.136C78.7121 130.444 79.0105 131.079 78.7742 131.534C78.5379 131.989 77.8456 132.112 77.2511 131.804Z" fill="black"/>
  <path d="M20.8944 150.402C20.8651 150.703 20.9323 151.463 20.7686 151.701C20.6049 151.938 20.324 151.828 20.0052 151.808C19.197 151.758 18.3871 151.882 17.5824 151.942C15.6387 152.088 13.6863 152.143 11.7374 152.164C9.86087 152.183 7.98088 152.164 6.10951 152.002C5.09456 151.914 3.11463 152.05 2.36505 151.238C1.91358 150.751 1.7964 149.818 1.67578 149.202C1.48038 148.154 1.35261 147.095 1.29323 146.03C1.12077 143.8 1.16579 141.558 1.42764 139.336C1.50863 138.708 1.54826 137.575 2.06177 137.135C2.52186 136.739 3.35415 136.618 3.92452 136.475C4.88433 136.248 5.86137 136.1 6.83842 135.969C7.55353 135.873 7.24853 134.787 6.53858 134.883C4.94464 135.097 3.03019 135.253 1.6103 136.088C0.853823 136.534 0.655657 137.301 0.490232 138.114C-0.0181049 140.621 0.00084988 143.277 0.154213 145.825C0.215265 147.059 0.360348 148.286 0.588453 149.5C0.746986 150.298 0.933089 151.253 1.46555 151.909C2.30301 152.942 3.93142 152.923 5.13936 153.036C7.27818 153.234 9.42589 153.32 11.5737 153.295C14.1464 153.272 16.6933 153.071 19.2591 152.937C19.8984 152.902 20.7669 153.165 21.3596 152.866C22.1213 152.482 21.9558 151.1 22.0231 150.405C22.092 149.684 20.965 149.689 20.8961 150.405L20.8944 150.402Z" fill="black"/>
  <path d="M54.4927 132.682C53.6656 133.874 51.7822 134.9 50.4657 135.698C47.9705 137.216 45.3771 138.576 42.7648 139.882C36.806 142.866 30.6888 145.611 24.4216 147.879C22.2693 148.656 20.055 149.456 17.7908 149.828C17.2566 149.915 16.6018 150 16.2106 149.86C16.264 149.879 16.028 149.755 15.9056 149.668C15.6719 149.492 15.4545 149.297 15.256 149.082C14.7595 148.55 14.3114 147.974 13.9171 147.361C11.8493 144.264 10.3277 140.706 9.26449 137.153C8.85093 135.776 8.42531 134.303 8.45116 132.85C8.47011 131.761 9.80213 130.979 10.6034 130.42C11.8096 129.579 13.0762 128.827 14.3513 128.102C19.6794 125.075 25.3211 122.529 30.9817 120.185C33.8129 119.015 36.6682 117.893 39.5769 116.931C41.5155 116.291 43.7384 115.276 45.8079 115.31C47.1124 115.332 47.6586 116.31 48.3513 117.296C48.7649 117.885 49.7419 117.322 49.3249 116.726C48.7218 115.866 48.098 114.783 47.0693 114.394C46.1508 114.05 45.098 114.181 44.1588 114.369C41.6516 114.871 39.1409 115.854 36.7492 116.723C30.664 118.966 24.7077 121.543 18.9074 124.443C16.04 125.861 13.1899 127.352 10.5207 129.121C9.55054 129.764 8.34776 130.513 7.68434 131.496C7.2725 132.108 7.27595 132.831 7.33971 133.54C7.64126 137.225 9.24382 140.94 10.8464 144.228C11.658 145.89 12.5695 147.535 13.7017 149C14.2893 149.757 15.0664 150.75 16.0521 150.993C16.7414 151.165 17.5271 151.02 18.2164 150.898C19.2953 150.693 20.3605 150.422 21.406 150.086C27.9041 148.098 34.1954 145.267 40.3161 142.341C43.3524 140.891 46.3628 139.373 49.287 137.708C51.1825 136.626 53.2348 135.509 54.8305 133.989C55.0676 133.769 55.2808 133.525 55.4663 133.26C55.8816 132.663 54.9046 132.1 54.4927 132.692V132.682Z" fill="black"/>
  <path d="M98.6787 136.616C97.7602 139.223 96.6453 141.779 95.1927 144.139C94.1071 145.903 92.5786 148.202 90.4505 148.796C88.7911 149.258 86.7026 148.224 85.1466 147.61C78.8949 145.144 72.912 141.862 67.0911 138.538C63.9774 136.761 60.8998 134.924 57.8911 132.968C55.5683 131.464 53.2385 129.915 51.1207 128.128C50.4556 127.569 49.7663 126.979 49.2252 126.287C48.8168 125.755 48.7686 125.399 48.8703 124.59C49.0736 122.983 49.7405 121.399 50.4056 119.943C51.2739 118.058 52.2646 116.232 53.3712 114.476C54.3995 112.778 55.5514 111.157 56.8176 109.628C57.5068 108.81 58.601 107.327 59.6832 107.06C60.2191 106.929 60.9049 107.143 61.4202 107.272C62.3736 107.526 63.311 107.837 64.2272 108.203C66.8826 109.235 69.4553 110.478 71.9918 111.765C73.4853 112.522 74.9643 113.301 76.429 114.101C77.0666 114.445 77.6352 113.474 76.9977 113.128C74.0269 111.516 71.0217 109.96 67.9424 108.564C65.847 107.612 63.6741 106.621 61.4184 106.112C60.0399 105.802 59.1369 105.897 58.0393 106.79C56.6935 107.886 55.5924 109.297 54.5654 110.686C52.0736 114.058 49.849 117.828 48.4481 121.79C48.0207 122.995 47.4641 124.581 47.7588 125.888C47.907 126.528 48.3912 127.075 48.8289 127.541C50.5004 129.335 52.6199 130.765 54.6257 132.148C57.6206 134.214 60.7205 136.124 63.855 137.969C70.1808 141.693 76.6823 145.271 83.4527 148.123C85.3189 148.909 87.416 149.919 89.4838 150.016C91.2173 150.105 92.7475 148.956 93.8762 147.759C95.7458 145.777 97.0813 143.285 98.1945 140.822C98.7746 139.538 99.2973 138.232 99.7626 136.902C100.004 136.213 98.9148 135.923 98.6752 136.602L98.6787 136.616Z" fill="black"/>
  <path d="M127.021 119.597C126.387 120.473 125.005 121.318 123.992 121.953C122.096 123.158 120.111 124.213 118.116 125.237C112.958 127.885 107.651 130.257 102.285 132.446C97.6463 134.339 92.9231 136.197 88.0603 137.437C86.8127 137.757 85.3342 138.214 84.0263 138.032C84.0384 138.032 83.6817 137.929 83.7248 137.948C83.3391 137.72 82.9947 137.429 82.7064 137.087C81.8138 136.135 81.1159 135.001 80.4749 133.874C78.8539 130.981 77.5472 127.923 76.5771 124.753C76.1288 123.381 75.7832 121.978 75.5431 120.555C75.4277 119.819 75.233 118.847 75.4811 118.119C75.4449 118.227 75.6827 117.812 75.6655 117.835C75.823 117.64 75.9959 117.459 76.1824 117.292C76.6821 116.845 77.2143 116.436 77.7747 116.067C79.4562 114.955 81.1994 113.938 82.9959 113.023C87.8208 110.484 92.8352 108.266 97.8876 106.204C102.613 104.275 107.41 102.44 112.321 101.041C113.891 100.592 115.509 100.127 117.146 99.9726C117.592 99.9312 118.166 99.9106 118.447 99.9898C118.638 100.045 118.552 99.9898 118.731 100.15C119.084 100.463 119.42 100.796 119.736 101.146C121.652 103.26 123.23 105.727 124.602 108.221C126.008 110.782 127.444 113.701 127.642 116.666C127.711 117.687 127.612 118.721 127.025 119.592C126.616 120.194 127.592 120.757 127.998 120.16C129.432 118.046 128.688 115.067 127.929 112.849C126.852 109.718 125.207 106.765 123.356 104.031C122.587 102.876 121.75 101.768 120.849 100.713C120.351 100.136 119.775 99.3909 119.084 99.0346C118.095 98.5183 116.625 98.8849 115.605 99.0776C110.965 99.9553 106.436 101.694 102.04 103.38C96.5487 105.475 91.1258 107.781 85.8426 110.35C83.6524 111.415 81.4795 112.524 79.3789 113.756C77.9711 114.582 76.5047 115.453 75.3174 116.585C74.1594 117.688 74.187 118.883 74.3955 120.425C74.8194 123.571 75.924 126.653 77.144 129.568C78.3123 132.361 79.6512 135.272 81.6415 137.59C82.6754 138.794 83.6111 139.311 85.1723 139.139C86.9902 138.966 88.7771 138.45 90.5141 137.918C93.0334 137.161 95.5113 136.275 97.972 135.337C103.716 133.163 109.356 130.742 114.894 128.076C117.306 126.921 119.691 125.72 122.022 124.414C123.678 123.486 125.346 122.521 126.828 121.33C127.269 120.992 127.662 120.596 127.997 120.153C128.419 119.576 127.442 119.013 127.021 119.597Z" fill="black"/>
  <path d="M151.99 114.579C154.742 116.818 156.877 119.72 158.194 123.012C158.578 123.993 159.005 125.098 158.271 126.02C157.692 126.747 156.836 127.33 156.1 127.886C154.596 129.016 153.005 130.026 151.342 130.908C150.701 131.252 151.27 132.223 151.911 131.88C153.839 130.854 155.672 129.657 157.387 128.304C158.118 127.728 158.962 127.136 159.441 126.318C159.944 125.458 159.867 124.475 159.583 123.553C158.411 119.744 155.842 116.288 152.788 113.776C152.231 113.318 151.43 114.111 151.99 114.573V114.579Z" fill="black"/>
  <path d="M98.3199 142.981C99.7058 145.853 101.197 148.66 102.69 151.479C103.569 153.135 104.426 155.114 105.979 156.211C107.603 157.358 109.566 156.891 111.264 156.211C113.978 155.114 116.624 153.843 119.187 152.406C121.995 150.831 124.826 149.127 127.11 146.777C127.62 146.245 126.834 145.43 126.324 145.956C124.471 147.862 122.243 149.285 119.993 150.615C117.615 152.022 115.159 153.282 112.638 154.386C110.955 155.123 108.623 156.449 106.816 155.395C105.365 154.548 104.578 152.645 103.808 151.195C102.262 148.284 100.716 145.373 99.2807 142.4C98.9576 141.733 97.9968 142.32 98.3199 142.988V142.981Z" fill="black"/>
  <path d="M126.779 105.098L132.487 104.295L133.83 104.105C133.99 104.083 134.407 103.947 134.548 104.009C134.752 104.097 134.803 104.417 134.872 104.599C135.17 105.378 135.482 106.152 135.81 106.919C137.203 110.194 138.856 113.352 140.753 116.364C141.139 116.977 142.115 116.412 141.727 115.796C139.545 112.34 137.69 108.687 136.187 104.887C135.958 104.302 135.801 103.374 135.205 103.026C134.609 102.679 133.654 103.002 133.027 103.09L126.479 104.013C125.762 104.112 126.067 105.198 126.779 105.098Z" fill="black"/>
  <path d="M157.633 129.345C158.421 129.593 159.224 129.572 160.046 129.648C161.319 129.765 161.854 130.404 162.081 131.626C162.507 133.916 162.76 136.253 163.025 138.566C163.283 140.804 163.496 143.045 163.666 145.29C163.734 146.176 164.159 147.891 163.21 148.424C162.508 148.82 161.526 148.632 160.782 148.479C160.074 148.335 159.77 149.419 160.482 149.565C162.169 149.909 164.528 149.925 164.869 147.763C165.079 146.438 164.773 144.937 164.657 143.607C164.533 142.149 164.39 140.692 164.228 139.237C164.073 137.843 163.901 136.452 163.711 135.064C163.527 133.687 163.415 132.273 163.084 130.934C162.848 129.979 162.321 129.153 161.376 128.784C160.277 128.357 159.055 128.612 157.93 128.268C157.241 128.051 156.939 129.137 157.63 129.354L157.633 129.345Z" fill="black"/>
  <path d="M63.9463 102.795L68.2542 99.3138C68.7074 98.9473 69.0469 98.5738 69.6327 98.9249C69.9774 99.1331 70.2979 99.4894 70.5891 99.7699C71.246 100.408 71.8429 101.104 72.3726 101.851C72.7913 102.436 73.7701 101.873 73.3462 101.281C72.6774 100.33 71.9097 99.4517 71.0561 98.6616C70.4564 98.1161 69.6775 97.3037 68.7798 97.5825C68.4179 97.6961 68.1387 97.968 67.8475 98.2004C67.3306 98.6203 66.8033 99.0454 66.2812 99.467L63.145 102C62.5815 102.456 63.3845 103.248 63.9428 102.795H63.9463Z" fill="black"/>
  <path d="M66.8929 140.532C64.3426 145.905 61.643 151.204 58.794 156.429L59.4316 156.171C52.4262 153.285 45.8762 149.401 39.9855 144.64C39.4255 144.188 38.6225 144.985 39.1877 145.437C45.2288 150.318 51.9467 154.297 59.1317 157.252C59.2514 157.285 59.3787 157.278 59.4937 157.231C59.6088 157.184 59.7051 157.101 59.7676 156.994C62.6108 151.769 65.3076 146.47 67.8579 141.097C68.1681 140.445 67.1945 139.873 66.8843 140.527L66.8929 140.532Z" fill="black"/>
  <path d="M5.29453 127.824C4.82129 124.708 4.8271 121.537 5.31176 118.423C5.40654 117.827 5.45995 117.006 5.91143 116.56C6.39564 116.084 7.35717 115.965 7.97924 115.789C9.4313 115.378 10.8862 114.976 12.344 114.585C18.227 112.979 24.1432 111.5 30.0928 110.148C30.9009 109.962 31.716 109.73 32.5379 109.613C33.5374 109.47 33.9475 109.986 34.3542 110.785C35.1071 112.294 35.5038 113.955 35.5139 115.641C35.5242 116.366 36.6512 116.368 36.6408 115.641C36.6286 114.105 36.3288 112.585 35.7568 111.158C35.3019 110.041 34.7126 108.678 33.372 108.477C32.7206 108.379 32.0623 108.549 31.4299 108.69C30.5012 108.897 29.5741 109.11 28.6487 109.324C26.8497 109.74 25.0536 110.168 23.2604 110.606C19.7841 111.455 16.316 112.344 12.8558 113.273C11.1326 113.739 9.40947 114.216 7.6863 114.704C6.36634 115.077 5.04122 115.333 4.52772 116.769C3.93494 118.424 3.89531 120.484 3.83845 122.223C3.78621 124.199 3.91135 126.176 4.21238 128.131C4.31921 128.845 5.40654 128.542 5.2997 127.831L5.29453 127.824Z" fill="black"/>
  <path d="M82.3445 66.9093C81.6621 80.6771 81.6564 94.4507 82.3273 108.23C82.3635 108.953 83.4904 108.956 83.4559 108.23C82.7839 94.4622 82.7891 80.6886 83.4715 66.9093C83.5076 66.1848 82.379 66.1882 82.3445 66.9093Z" fill="black"/>
  <path d="M92.1424 61.6135C94.4376 75.3538 92.7076 89.3488 94.1051 103.163C94.1774 103.877 95.3113 103.884 95.232 103.163C93.8242 89.2456 95.5422 75.1611 93.2297 61.3141C93.1108 60.5999 92.0235 60.9028 92.1424 61.6135Z" fill="black"/>
  <path d="M100.496 58.6346C103.786 71.9295 104.995 85.6526 104.082 99.3169C104.034 100.04 105.163 100.038 105.211 99.3169C106.123 85.553 104.9 71.7309 101.584 58.3404C101.411 57.6365 100.321 57.9342 100.496 58.6398V58.6346Z" fill="black"/>
  <path d="M48.6495 1.98079C49.444 4.44564 50.9968 6.59741 53.0867 8.12984L53.2211 7.09726C50.545 8.0438 49.2113 10.6167 48.124 13.0553C47.831 13.711 48.8029 14.2858 49.0976 13.6232C50.0419 11.5098 51.1654 9.01443 53.521 8.18319C53.6264 8.15142 53.7203 8.08995 53.7916 8.00615C53.8629 7.92236 53.9085 7.81981 53.9228 7.71079C53.9372 7.60178 53.9198 7.49095 53.8726 7.39158C53.8255 7.29222 53.7507 7.20855 53.6571 7.15061C51.8101 5.77855 50.4394 3.86371 49.7369 1.67445C49.5146 0.986063 48.4255 1.28207 48.6495 1.9739V1.98079Z" fill="black"/>
  <path d="M53.2107 52.386C53.6058 54.3962 54.4973 56.2761 55.8042 57.8551C57.111 59.4341 58.7919 60.6622 60.6944 61.4281L60.56 60.3955C56.302 62.3952 53.5639 66.9834 53.8034 71.673C53.8413 72.3941 54.9683 72.3993 54.9321 71.673C54.837 69.5367 55.3748 67.4198 56.4782 65.5871C57.5816 63.7544 59.2016 62.2874 61.1355 61.3695C61.6249 61.1389 61.3992 60.5091 60.9994 60.337C57.5203 58.9292 54.9976 55.7505 54.3032 52.0763C54.1687 51.3655 53.0814 51.6667 53.2158 52.3757L53.2107 52.386Z" fill="black"/>
  <path d="M110.317 22.915C112.747 21.2368 115.309 19.7577 117.978 18.4921C118.635 18.1806 118.063 17.2082 117.409 17.5197C114.74 18.7854 112.178 20.2645 109.748 21.9426C109.155 22.3522 109.719 23.3194 110.317 22.915Z" fill="black"/>
  <path d="M112.745 35.74L119.443 38.2629C120.122 38.5193 120.416 37.43 119.743 37.177L113.045 34.654C112.364 34.3976 112.071 35.487 112.745 35.74Z" fill="black"/>
  <path d="M101.16 16.5792C101.652 14.7895 102.03 12.9702 102.29 11.1323C102.39 10.4233 101.305 10.117 101.203 10.8329C100.941 12.6707 100.562 14.49 100.069 16.2798C99.876 16.9802 100.963 17.278 101.156 16.5792H101.16Z" fill="black"/>
</svg>