<svg width="344" height="96" viewBox="0 0 344 96" fill="none" xmlns="http://www.w3.org/2000/svg">
<path d="M323.669 0H19.6642C15.2458 0 11.6641 3.58174 11.6641 8.00005V88.0005C11.6641 92.4188 15.2458 96.0006 19.6642 96.0006H323.669C328.087 96.0006 331.669 92.4188 331.669 88.0005V8.00005C331.669 3.58174 328.087 0 323.669 0Z" fill="#BFDBFE"/>
<path d="M11.6641 48.0002H331.669" stroke="#60A5FA" stroke-width="2.00001" stroke-dasharray="14 12"/>
<path d="M171.667 0V96" stroke="#DBEAFE" stroke-width="1.50001" stroke-dasharray="8 8"/>
<path d="M259.668 20H271.668L279.668 28V40L271.668 48H259.668L251.668 40V28L259.668 20Z" fill="#60A5FA"/>
<path d="M256.647 32.8191C256.618 32.5326 256.496 32.3101 256.281 32.1515C256.065 31.9929 255.773 31.9136 255.404 31.9136C255.153 31.9136 254.941 31.9491 254.768 32.0201C254.595 32.0888 254.463 32.1846 254.37 32.3077C254.28 32.4308 254.235 32.5705 254.235 32.7268C254.231 32.857 254.258 32.9706 254.317 33.0677C254.379 33.1648 254.463 33.2488 254.569 33.3198C254.676 33.3885 254.799 33.4488 254.939 33.5009C255.078 33.5506 255.227 33.5933 255.386 33.6288L256.039 33.785C256.357 33.856 256.648 33.9507 256.913 34.0691C257.178 34.1875 257.408 34.3331 257.602 34.5059C257.796 34.6787 257.946 34.8823 258.053 35.1167C258.162 35.3511 258.217 35.6198 258.22 35.9228C258.217 36.3679 258.104 36.7538 257.879 37.0805C257.656 37.4048 257.334 37.657 256.913 37.8369C256.494 38.0144 255.989 38.1032 255.397 38.1032C254.81 38.1032 254.298 38.0133 253.863 37.8333C253.429 37.6534 253.091 37.3871 252.847 37.0343C252.605 36.6792 252.479 36.2401 252.467 35.7169H253.955C253.971 35.9607 254.041 36.1643 254.164 36.3276C254.29 36.4886 254.457 36.6106 254.665 36.6934C254.876 36.7739 255.114 36.8142 255.379 36.8142C255.639 36.8142 255.865 36.7763 256.057 36.7005C256.251 36.6248 256.402 36.5194 256.508 36.3845C256.615 36.2495 256.668 36.0945 256.668 35.9193C256.668 35.7559 256.619 35.6186 256.522 35.5073C256.428 35.3961 256.288 35.3014 256.103 35.2232C255.921 35.1451 255.697 35.0741 255.432 35.0102L254.64 34.8113C254.027 34.6622 253.543 34.429 253.188 34.1117C252.833 33.7945 252.656 33.3672 252.659 32.8298C252.656 32.3894 252.774 32.0047 253.01 31.6756C253.249 31.3466 253.577 31.0897 253.994 30.905C254.411 30.7204 254.884 30.628 255.414 30.628C255.954 30.628 256.425 30.7204 256.828 30.905C257.233 31.0897 257.548 31.3466 257.772 31.6756C257.997 32.0047 258.113 32.3859 258.12 32.8191H256.647ZM258.977 31.9952V30.7275H264.95V31.9952H262.724V38.0002H261.204V31.9952H258.977ZM272.285 34.3639C272.285 35.157 272.135 35.8317 271.834 36.388C271.536 36.9444 271.129 37.3693 270.613 37.6629C270.099 37.9541 269.521 38.0997 268.88 38.0997C268.233 38.0997 267.653 37.9529 267.139 37.6593C266.626 37.3658 266.22 36.9408 265.921 36.3845C265.623 35.8281 265.474 35.1546 265.474 34.3639C265.474 33.5708 265.623 32.896 265.921 32.3397C266.22 31.7834 266.626 31.3596 267.139 31.0684C267.653 30.7748 268.233 30.628 268.88 30.628C269.521 30.628 270.099 30.7748 270.613 31.0684C271.129 31.3596 271.536 31.7834 271.834 32.3397C272.135 32.896 272.285 33.5708 272.285 34.3639ZM270.726 34.3639C270.726 33.8501 270.649 33.4169 270.495 33.0641C270.344 32.7114 270.13 32.4439 269.853 32.2616C269.576 32.0793 269.251 31.9881 268.88 31.9881C268.508 31.9881 268.184 32.0793 267.907 32.2616C267.63 32.4439 267.414 32.7114 267.26 33.0641C267.109 33.4169 267.033 33.8501 267.033 34.3639C267.033 34.8776 267.109 35.3108 267.26 35.6636C267.414 36.0163 267.63 36.2839 267.907 36.4661C268.184 36.6484 268.508 36.7396 268.88 36.7396C269.251 36.7396 269.576 36.6484 269.853 36.4661C270.13 36.2839 270.344 36.0163 270.495 35.6636C270.649 35.3108 270.726 34.8776 270.726 34.3639ZM273.424 38.0002V30.7275H276.293C276.845 30.7275 277.315 30.8328 277.703 31.0435C278.092 31.2519 278.387 31.5419 278.591 31.9136C278.797 32.2829 278.9 32.709 278.9 33.192C278.9 33.6749 278.796 34.1011 278.588 34.4704C278.379 34.8397 278.077 35.1274 277.682 35.3333C277.289 35.5393 276.813 35.6423 276.254 35.6423H274.426V34.41H276.006C276.302 34.41 276.546 34.3591 276.737 34.2573C276.931 34.1532 277.076 34.0099 277.171 33.8276C277.268 33.643 277.316 33.4311 277.316 33.192C277.316 32.9505 277.268 32.7398 277.171 32.5599C277.076 32.3776 276.931 32.2367 276.737 32.1373C276.543 32.0355 276.297 31.9846 275.999 31.9846H274.962V38.0002H273.424Z" fill="#171717"/>
<path d="M93.6648 40.0002H59.6648C57.4557 40.0002 55.6648 41.7911 55.6648 44.0002V54.0002C55.6648 56.2094 57.4557 58.0002 59.6648 58.0002H93.6648C95.8739 58.0002 97.6648 56.2094 97.6648 54.0002V44.0002C97.6648 41.7911 95.8739 40.0002 93.6648 40.0002Z" fill="white" fill-opacity="0.9"/>
<path d="M86.665 34.0002H66.665C65.0082 34.0002 63.665 35.3434 63.665 37.0002V39.0002C63.665 40.6571 65.0082 42.0002 66.665 42.0002H86.665C88.3219 42.0002 89.665 40.6571 89.665 39.0002V37.0002C89.665 35.3434 88.3219 34.0002 86.665 34.0002Z" fill="white" fill-opacity="0.6"/>
</svg>
