<svg width="344" height="86" viewBox="0 0 344 86" fill="none" xmlns="http://www.w3.org/2000/svg">
<path d="M291.668 12H51.6647C46.1418 12 41.6646 16.4772 41.6646 22.0001V62.0003C41.6646 67.5232 46.1418 72.0004 51.6647 72.0004H291.668C297.191 72.0004 301.669 67.5232 301.669 62.0003V22.0001C301.669 16.4772 297.191 12 291.668 12Z" fill="#2563EB"/>
<path d="M301.669 18H41.6645C36.1415 18 31.6643 22.4772 31.6643 28.0001V70.0003C31.6643 75.5232 36.1415 80.0004 41.6645 80.0004H301.669C307.191 80.0004 311.669 75.5232 311.669 70.0003V28.0001C311.669 22.4772 307.191 18 301.669 18Z" fill="#3B82F6"/>
<path d="M311.669 24H31.6642C26.1413 24 21.6641 28.4772 21.6641 34.0001V72.0003C21.6641 77.5232 26.1413 82.0003 31.6642 82.0003H311.669C317.192 82.0003 321.669 77.5232 321.669 72.0003V34.0001C321.669 28.4772 317.192 24 311.669 24Z" fill="#171717"/>
<path d="M53.6648 38.0002H85.6648L69.6648 66.0002L53.6648 38.0002Z" stroke="#60A5FA" stroke-width="3.00002" stroke-linejoin="round"/>
<path d="M106.966 45.8452L103.771 39.0502H106.291L108.586 44.1352L108.151 44.0002H109.411L108.946 44.1352L111.016 39.0502H113.401L110.461 45.8452H106.966ZM107.506 50.0002V45.5002H109.921V50.0002H107.506ZM114.687 50.0002V41.7802H117.087V50.0002H114.687ZM113.592 43.5502V41.7802H117.087V43.5502H113.592ZM115.617 40.9702C115.167 40.9702 114.832 40.8552 114.612 40.6252C114.402 40.3852 114.297 40.0852 114.297 39.7252C114.297 39.3552 114.402 39.0552 114.612 38.8252C114.832 38.5852 115.167 38.4652 115.617 38.4652C116.067 38.4652 116.397 38.5852 116.607 38.8252C116.827 39.0552 116.937 39.3552 116.937 39.7252C116.937 40.0852 116.827 40.3852 116.607 40.6252C116.397 40.8552 116.067 40.9702 115.617 40.9702ZM123.072 50.2852C122.372 50.2852 121.752 50.1652 121.212 49.9252C120.682 49.6852 120.237 49.3652 119.877 48.9652C119.527 48.5552 119.257 48.1002 119.067 47.6002C118.887 47.0902 118.797 46.5702 118.797 46.0402V45.7402C118.797 45.1902 118.887 44.6652 119.067 44.1652C119.257 43.6552 119.527 43.2002 119.877 42.8002C120.227 42.4002 120.662 42.0852 121.182 41.8552C121.712 41.6152 122.312 41.4952 122.982 41.4952C123.862 41.4952 124.602 41.6952 125.202 42.0952C125.812 42.4852 126.277 43.0002 126.597 43.6402C126.917 44.2702 127.077 44.9602 127.077 45.7102V46.5202H119.802V45.1552H125.622L124.842 45.7852C124.842 45.2952 124.772 44.8752 124.632 44.5252C124.492 44.1752 124.282 43.9102 124.002 43.7302C123.732 43.5402 123.392 43.4452 122.982 43.4452C122.562 43.4452 122.207 43.5402 121.917 43.7302C121.627 43.9202 121.407 44.2002 121.257 44.5702C121.107 44.9302 121.032 45.3752 121.032 45.9052C121.032 46.3952 121.102 46.8252 121.242 47.1952C121.382 47.5552 121.602 47.8352 121.902 48.0352C122.202 48.2352 122.592 48.3352 123.072 48.3352C123.512 48.3352 123.872 48.2502 124.152 48.0802C124.432 47.9102 124.622 47.7002 124.722 47.4502H126.927C126.807 48.0002 126.572 48.4902 126.222 48.9202C125.872 49.3502 125.432 49.6852 124.902 49.9252C124.372 50.1652 123.762 50.2852 123.072 50.2852ZM128.772 50.0002V39.0502H131.187V50.0002H128.772ZM127.797 40.8202V39.0502H131.187V40.8202H127.797ZM136.788 50.2702C136.208 50.2702 135.678 50.1652 135.198 49.9552C134.728 49.7452 134.318 49.4552 133.968 49.0852C133.618 48.7052 133.348 48.2602 133.158 47.7502C132.978 47.2402 132.888 46.6902 132.888 46.1002V45.7552C132.888 45.1652 132.973 44.6152 133.143 44.1052C133.323 43.5952 133.578 43.1502 133.908 42.7702C134.248 42.3802 134.653 42.0802 135.123 41.8702C135.593 41.6502 136.118 41.5402 136.698 41.5402C137.358 41.5402 137.928 41.6852 138.408 41.9752C138.888 42.2552 139.263 42.6752 139.533 43.2352C139.803 43.7852 139.953 44.4652 139.983 45.2752L139.353 44.6902V39.0502H141.768V50.0002H139.863V46.5952H140.193C140.163 47.3752 139.998 48.0402 139.698 48.5902C139.408 49.1402 139.013 49.5602 138.513 49.8502C138.013 50.1302 137.438 50.2702 136.788 50.2702ZM137.388 48.2602C137.758 48.2602 138.093 48.1802 138.393 48.0202C138.703 47.8502 138.948 47.6052 139.128 47.2852C139.318 46.9652 139.413 46.5802 139.413 46.1302V45.5752C139.413 45.1352 139.318 44.7652 139.128 44.4652C138.938 44.1652 138.688 43.9352 138.378 43.7752C138.068 43.6152 137.733 43.5352 137.373 43.5352C136.973 43.5352 136.613 43.6402 136.293 43.8502C135.983 44.0502 135.738 44.3302 135.558 44.6902C135.378 45.0402 135.288 45.4502 135.288 45.9202C135.288 46.4002 135.378 46.8152 135.558 47.1652C135.738 47.5152 135.988 47.7852 136.308 47.9752C136.628 48.1652 136.988 48.2602 137.388 48.2602Z" fill="#F5F5F5"/>
<path d="M109.009 62.0002C108.962 61.6044 108.772 61.2971 108.439 61.0783C108.106 60.8596 107.697 60.7502 107.212 60.7502C106.858 60.7502 106.548 60.8075 106.283 60.9221C106.02 61.0367 105.814 61.1942 105.666 61.3947C105.52 61.5953 105.447 61.8231 105.447 62.0783C105.447 62.2919 105.498 62.4755 105.599 62.6291C105.703 62.7802 105.836 62.9065 105.998 63.008C106.159 63.107 106.328 63.189 106.505 63.2541C106.682 63.3166 106.845 63.3674 106.994 63.4065L107.806 63.6252C108.015 63.6799 108.246 63.7554 108.501 63.8518C108.759 63.9481 109.005 64.0796 109.24 64.2463C109.477 64.4104 109.672 64.6213 109.826 64.8791C109.979 65.1369 110.056 65.4534 110.056 65.8284C110.056 66.2607 109.943 66.6513 109.716 67.0002C109.492 67.3492 109.164 67.6265 108.732 67.8323C108.302 68.038 107.78 68.1409 107.166 68.1409C106.593 68.1409 106.097 68.0484 105.677 67.8635C105.261 67.6786 104.932 67.4208 104.693 67.0901C104.456 66.7594 104.322 66.3752 104.291 65.9377H105.291C105.317 66.2398 105.418 66.4898 105.595 66.6877C105.775 66.8831 106.001 67.0289 106.275 67.1252C106.551 67.219 106.848 67.2659 107.166 67.2659C107.535 67.2659 107.867 67.206 108.162 67.0862C108.456 66.9638 108.689 66.7945 108.861 66.5784C109.033 66.3596 109.119 66.1044 109.119 65.8127C109.119 65.5471 109.044 65.331 108.896 65.1643C108.748 64.9976 108.552 64.8622 108.31 64.758C108.068 64.6539 107.806 64.5627 107.525 64.4846L106.541 64.2033C105.916 64.0237 105.421 63.7671 105.056 63.4338C104.692 63.1005 104.509 62.6643 104.509 62.1252C104.509 61.6773 104.63 61.2867 104.873 60.9533C105.117 60.6174 105.445 60.357 105.857 60.1721C106.271 59.9846 106.733 59.8908 107.244 59.8908C107.759 59.8908 108.218 59.9833 108.619 60.1682C109.02 60.3505 109.337 60.6005 109.572 60.9182C109.809 61.2359 109.934 61.5966 109.947 62.0002H109.009ZM112.446 60.0002V68.0002H111.524V60.0002H112.446ZM116.572 68.1252C116.03 68.1252 115.555 67.9963 115.146 67.7385C114.74 67.4807 114.422 67.12 114.193 66.6565C113.966 66.1929 113.853 65.6513 113.853 65.0315C113.853 64.4065 113.966 63.8609 114.193 63.3947C114.422 62.9286 114.74 62.5666 115.146 62.3088C115.555 62.051 116.03 61.9221 116.572 61.9221C117.114 61.9221 117.587 62.051 117.994 62.3088C118.403 62.5666 118.72 62.9286 118.947 63.3947C119.176 63.8609 119.291 64.4065 119.291 65.0315C119.291 65.6513 119.176 66.1929 118.947 66.6565C118.72 67.12 118.403 67.4807 117.994 67.7385C117.587 67.9963 117.114 68.1252 116.572 68.1252ZM116.572 67.2971C116.983 67.2971 117.322 67.1916 117.587 66.9807C117.853 66.7698 118.05 66.4924 118.177 66.1487C118.305 65.8049 118.369 65.4325 118.369 65.0315C118.369 64.6304 118.305 64.2567 118.177 63.9104C118.05 63.564 117.853 63.2841 117.587 63.0705C117.322 62.857 116.983 62.7502 116.572 62.7502C116.16 62.7502 115.822 62.857 115.556 63.0705C115.291 63.2841 115.094 63.564 114.966 63.9104C114.839 64.2567 114.775 64.6304 114.775 65.0315C114.775 65.4325 114.839 65.8049 114.966 66.1487C115.094 66.4924 115.291 66.7698 115.556 66.9807C115.822 67.1916 116.16 67.2971 116.572 67.2971ZM121.853 68.0002L120.025 62.0002H120.994L122.291 66.594H122.353L123.634 62.0002H124.619L125.884 66.5784H125.947L127.244 62.0002H128.213L126.384 68.0002H125.478L124.166 63.3908H124.072L122.759 68.0002H121.853ZM129.99 66.9065L129.927 67.3284C129.883 67.6252 129.815 67.943 129.724 68.2815C129.636 68.62 129.543 68.9391 129.447 69.2385C129.351 69.538 129.271 69.7763 129.209 69.9534H128.506C128.539 69.7867 128.584 69.5667 128.638 69.2932C128.693 69.0198 128.748 68.7138 128.802 68.3752C128.86 68.0393 128.907 67.6956 128.943 67.344L128.99 66.9065H129.99ZM139.042 63.344L138.214 63.5783C138.161 63.4403 138.085 63.3062 137.983 63.176C137.884 63.0432 137.749 62.9338 137.577 62.8479C137.405 62.7619 137.185 62.719 136.917 62.719C136.55 62.719 136.244 62.8036 135.999 62.9729C135.757 63.1395 135.635 63.3518 135.635 63.6096C135.635 63.8388 135.719 64.0198 135.885 64.1526C136.052 64.2854 136.313 64.3961 136.667 64.4846L137.557 64.7034C138.094 64.8336 138.494 65.0328 138.757 65.301C139.02 65.5666 139.151 65.9091 139.151 66.3284C139.151 66.6721 139.052 66.9794 138.854 67.2502C138.659 67.5211 138.385 67.7346 138.034 67.8909C137.682 68.0471 137.273 68.1252 136.807 68.1252C136.195 68.1252 135.689 67.9924 135.288 67.7268C134.887 67.4612 134.633 67.0732 134.526 66.5627L135.401 66.344C135.484 66.6669 135.642 66.9091 135.874 67.0706C136.108 67.232 136.414 67.3127 136.792 67.3127C137.221 67.3127 137.563 67.2216 137.815 67.0393C138.07 66.8544 138.198 66.633 138.198 66.3752C138.198 66.1669 138.125 65.9924 137.979 65.8518C137.833 65.7086 137.609 65.6018 137.307 65.5315L136.307 65.2971C135.758 65.1669 135.354 64.9651 135.096 64.6916C134.841 64.4156 134.714 64.0705 134.714 63.6565C134.714 63.3179 134.809 63.0184 134.999 62.758C135.191 62.4976 135.453 62.2932 135.784 62.1447C136.117 61.9963 136.495 61.9221 136.917 61.9221C137.51 61.9221 137.977 62.0523 138.315 62.3127C138.656 62.5731 138.898 62.9169 139.042 63.344ZM143.148 62.0002V62.7815H140.039V62.0002H143.148ZM140.945 60.5627H141.867V66.2815C141.867 66.5419 141.905 66.7372 141.98 66.8674C142.058 66.995 142.157 67.081 142.277 67.1252C142.399 67.1669 142.528 67.1877 142.664 67.1877C142.765 67.1877 142.849 67.1825 142.914 67.1721C142.979 67.1591 143.031 67.1487 143.07 67.1409L143.258 67.969C143.195 67.9924 143.108 68.0159 142.996 68.0393C142.884 68.0653 142.742 68.0784 142.57 68.0784C142.31 68.0784 142.054 68.0224 141.804 67.9104C141.557 67.7984 141.351 67.6278 141.187 67.3987C141.026 67.1695 140.945 66.8804 140.945 66.5315V60.5627ZM146.908 68.1252C146.366 68.1252 145.891 67.9963 145.482 67.7385C145.076 67.4807 144.758 67.12 144.529 66.6565C144.302 66.1929 144.189 65.6513 144.189 65.0315C144.189 64.4065 144.302 63.8609 144.529 63.3947C144.758 62.9286 145.076 62.5666 145.482 62.3088C145.891 62.051 146.366 61.9221 146.908 61.9221C147.45 61.9221 147.924 62.051 148.33 62.3088C148.739 62.5666 149.056 62.9286 149.283 63.3947C149.512 63.8609 149.627 64.4065 149.627 65.0315C149.627 65.6513 149.512 66.1929 149.283 66.6565C149.056 67.12 148.739 67.4807 148.33 67.7385C147.924 67.9963 147.45 68.1252 146.908 68.1252ZM146.908 67.2971C147.319 67.2971 147.658 67.1916 147.924 66.9807C148.189 66.7698 148.386 66.4924 148.513 66.1487C148.641 65.8049 148.705 65.4325 148.705 65.0315C148.705 64.6304 148.641 64.2567 148.513 63.9104C148.386 63.564 148.189 63.2841 147.924 63.0705C147.658 62.857 147.319 62.7502 146.908 62.7502C146.497 62.7502 146.158 62.857 145.892 63.0705C145.627 63.2841 145.43 63.564 145.302 63.9104C145.175 64.2567 145.111 64.6304 145.111 65.0315C145.111 65.4325 145.175 65.8049 145.302 66.1487C145.43 66.4924 145.627 66.7698 145.892 66.9807C146.158 67.1916 146.497 67.2971 146.908 67.2971ZM151.034 70.2503V62.0002H151.925V62.9533H152.034C152.102 62.8492 152.195 62.7164 152.315 62.5549C152.438 62.3908 152.612 62.245 152.839 62.1174C153.068 61.9872 153.378 61.9221 153.768 61.9221C154.274 61.9221 154.719 62.0484 155.104 62.301C155.49 62.5536 155.791 62.9117 156.007 63.3752C156.223 63.8388 156.331 64.3856 156.331 65.0159C156.331 65.6513 156.223 66.2021 156.007 66.6682C155.791 67.1317 155.491 67.4911 155.108 67.7463C154.725 67.9989 154.284 68.1252 153.784 68.1252C153.399 68.1252 153.09 68.0614 152.858 67.9338C152.626 67.8036 152.448 67.6565 152.323 67.4924C152.198 67.3258 152.102 67.1877 152.034 67.0784H151.956V70.2503H151.034ZM151.94 65.0002C151.94 65.4534 152.007 65.8531 152.139 66.1995C152.272 66.5432 152.466 66.8127 152.721 67.0081C152.977 67.2008 153.289 67.2971 153.659 67.2971C154.044 67.2971 154.366 67.1956 154.624 66.9924C154.884 66.7867 155.08 66.5107 155.21 66.1643C155.343 65.8153 155.409 65.4273 155.409 65.0002C155.409 64.5783 155.344 64.1981 155.214 63.8596C155.086 63.5184 154.892 63.2489 154.632 63.051C154.374 62.8505 154.05 62.7502 153.659 62.7502C153.284 62.7502 152.969 62.8453 152.714 63.0354C152.458 63.2229 152.266 63.4859 152.136 63.8244C152.005 64.1604 151.94 64.5523 151.94 65.0002ZM160.831 68.0002V62.0002H161.753V68.0002H160.831ZM161.3 61.0002C161.12 61.0002 160.965 60.939 160.835 60.8166C160.707 60.6942 160.643 60.5471 160.643 60.3752C160.643 60.2033 160.707 60.0562 160.835 59.9338C160.965 59.8114 161.12 59.7502 161.3 59.7502C161.479 59.7502 161.633 59.8114 161.761 59.9338C161.891 60.0562 161.956 60.2033 161.956 60.3752C161.956 60.5471 161.891 60.6942 161.761 60.8166C161.633 60.939 161.479 61.0002 161.3 61.0002ZM166.113 62.0002V62.7815H162.879V62.0002H166.113ZM163.848 68.0002V61.1721C163.848 60.8283 163.928 60.5419 164.09 60.3127C164.251 60.0835 164.461 59.9117 164.719 59.7971C164.976 59.6825 165.249 59.6252 165.535 59.6252C165.762 59.6252 165.946 59.6434 166.09 59.6799C166.233 59.7163 166.34 59.7502 166.41 59.7814L166.144 60.5783C166.098 60.5627 166.032 60.5432 165.949 60.5197C165.868 60.4963 165.762 60.4846 165.629 60.4846C165.324 60.4846 165.104 60.5614 164.969 60.715C164.836 60.8687 164.769 61.094 164.769 61.3908V68.0002H163.848ZM171.421 64.3908V68.0002H170.499V62.0002H171.39V62.9377H171.468C171.608 62.633 171.822 62.3882 172.108 62.2033C172.395 62.0158 172.765 61.9221 173.218 61.9221C173.624 61.9221 173.979 62.0054 174.284 62.1721C174.589 62.3361 174.826 62.5862 174.995 62.9221C175.164 63.2554 175.249 63.6773 175.249 64.1877V68.0002H174.327V64.2502C174.327 63.7789 174.205 63.4117 173.96 63.1487C173.715 62.883 173.379 62.7502 172.952 62.7502C172.658 62.7502 172.395 62.814 172.163 62.9416C171.934 63.0692 171.753 63.2554 171.62 63.5002C171.487 63.745 171.421 64.0419 171.421 64.3908ZM179.449 68.1252C178.871 68.1252 178.372 67.9976 177.953 67.7424C177.536 67.4846 177.215 67.1252 176.988 66.6643C176.764 66.2008 176.652 65.6617 176.652 65.0471C176.652 64.4325 176.764 63.8908 176.988 63.4221C177.215 62.9507 177.53 62.5835 177.934 62.3205C178.34 62.0549 178.814 61.9221 179.355 61.9221C179.668 61.9221 179.977 61.9742 180.281 62.0783C180.586 62.1825 180.863 62.3518 181.113 62.5862C181.363 62.8179 181.562 63.1252 181.711 63.508C181.859 63.8908 181.934 64.3622 181.934 64.9221V65.3127H177.309V64.5158H180.996C180.996 64.1773 180.928 63.8752 180.793 63.6096C180.66 63.344 180.47 63.1343 180.223 62.9807C179.978 62.827 179.689 62.7502 179.355 62.7502C178.988 62.7502 178.671 62.8414 178.402 63.0237C178.137 63.2033 177.932 63.4377 177.789 63.7268C177.646 64.0158 177.574 64.3257 177.574 64.6565V65.1877C177.574 65.6409 177.652 66.025 177.809 66.3401C177.967 66.6526 178.187 66.8909 178.469 67.0549C178.75 67.2164 179.077 67.2971 179.449 67.2971C179.691 67.2971 179.91 67.2633 180.105 67.1956C180.303 67.1252 180.474 67.0211 180.617 66.8831C180.76 66.7424 180.871 66.5679 180.949 66.3596L181.84 66.6096C181.746 66.9117 181.589 67.1773 181.367 67.4065C181.146 67.6331 180.872 67.8101 180.547 67.9377C180.221 68.0627 179.855 68.1252 179.449 68.1252ZM185.852 68.1252C185.273 68.1252 184.775 67.9976 184.355 67.7424C183.939 67.4846 183.617 67.1252 183.391 66.6643C183.167 66.2008 183.055 65.6617 183.055 65.0471C183.055 64.4325 183.167 63.8908 183.391 63.4221C183.617 62.9507 183.932 62.5835 184.336 62.3205C184.742 62.0549 185.216 61.9221 185.758 61.9221C186.07 61.9221 186.379 61.9742 186.684 62.0783C186.988 62.1825 187.266 62.3518 187.516 62.5862C187.766 62.8179 187.965 63.1252 188.113 63.508C188.262 63.8908 188.336 64.3622 188.336 64.9221V65.3127H183.711V64.5158H187.398C187.398 64.1773 187.331 63.8752 187.195 63.6096C187.062 63.344 186.872 63.1343 186.625 62.9807C186.38 62.827 186.091 62.7502 185.758 62.7502C185.391 62.7502 185.073 62.8414 184.805 63.0237C184.539 63.2033 184.335 63.4377 184.191 63.7268C184.048 64.0158 183.977 64.3257 183.977 64.6565V65.1877C183.977 65.6409 184.055 66.025 184.211 66.3401C184.37 66.6526 184.59 66.8909 184.871 67.0549C185.152 67.2164 185.479 67.2971 185.852 67.2971C186.094 67.2971 186.312 67.2633 186.508 67.1956C186.706 67.1252 186.876 67.0211 187.02 66.8831C187.163 66.7424 187.273 66.5679 187.352 66.3596L188.242 66.6096C188.148 66.9117 187.991 67.1773 187.77 67.4065C187.548 67.6331 187.275 67.8101 186.949 67.9377C186.624 68.0627 186.258 68.1252 185.852 68.1252ZM192.004 68.1252C191.504 68.1252 191.063 67.9989 190.68 67.7463C190.297 67.4911 189.997 67.1317 189.781 66.6682C189.565 66.2021 189.457 65.6513 189.457 65.0159C189.457 64.3856 189.565 63.8388 189.781 63.3752C189.997 62.9117 190.298 62.5536 190.684 62.301C191.069 62.0484 191.514 61.9221 192.02 61.9221C192.41 61.9221 192.719 61.9872 192.945 62.1174C193.175 62.245 193.349 62.3908 193.469 62.5549C193.591 62.7164 193.686 62.8492 193.754 62.9533H193.832V60.0002H194.754V68.0002H193.863V67.0784H193.754C193.686 67.1877 193.59 67.3258 193.465 67.4924C193.34 67.6565 193.161 67.8036 192.93 67.9338C192.698 68.0614 192.389 68.1252 192.004 68.1252ZM192.129 67.2971C192.499 67.2971 192.811 67.2008 193.066 67.0081C193.322 66.8127 193.516 66.5432 193.648 66.1995C193.781 65.8531 193.848 65.4534 193.848 65.0002C193.848 64.5523 193.783 64.1604 193.652 63.8244C193.522 63.4859 193.329 63.2229 193.074 63.0354C192.819 62.8453 192.504 62.7502 192.129 62.7502C191.738 62.7502 191.413 62.8505 191.152 63.051C190.895 63.2489 190.701 63.5184 190.57 63.8596C190.443 64.1981 190.379 64.5783 190.379 65.0002C190.379 65.4273 190.444 65.8153 190.574 66.1643C190.707 66.5107 190.902 66.7867 191.16 66.9924C191.421 67.1956 191.744 67.2971 192.129 67.2971ZM199.086 68.1252C198.508 68.1252 198.009 67.9976 197.59 67.7424C197.173 67.4846 196.852 67.1252 196.625 66.6643C196.401 66.2008 196.289 65.6617 196.289 65.0471C196.289 64.4325 196.401 63.8908 196.625 63.4221C196.852 62.9507 197.167 62.5835 197.57 62.3205C197.977 62.0549 198.451 61.9221 198.992 61.9221C199.305 61.9221 199.613 61.9742 199.918 62.0783C200.223 62.1825 200.5 62.3518 200.75 62.5862C201 62.8179 201.199 63.1252 201.348 63.508C201.496 63.8908 201.57 64.3622 201.57 64.9221V65.3127H196.945V64.5158H200.633C200.633 64.1773 200.565 63.8752 200.43 63.6096C200.297 63.344 200.107 63.1343 199.859 62.9807C199.615 62.827 199.326 62.7502 198.992 62.7502C198.625 62.7502 198.307 62.8414 198.039 63.0237C197.773 63.2033 197.569 63.4377 197.426 63.7268C197.283 64.0158 197.211 64.3257 197.211 64.6565V65.1877C197.211 65.6409 197.289 66.025 197.445 66.3401C197.604 66.6526 197.824 66.8909 198.106 67.0549C198.387 67.2164 198.714 67.2971 199.086 67.2971C199.328 67.2971 199.547 67.2633 199.742 67.1956C199.94 67.1252 200.111 67.0211 200.254 66.8831C200.397 66.7424 200.508 66.5679 200.586 66.3596L201.477 66.6096C201.383 66.9117 201.225 67.1773 201.004 67.4065C200.783 67.6331 200.509 67.8101 200.184 67.9377C199.858 68.0627 199.492 68.1252 199.086 68.1252ZM205.238 68.1252C204.738 68.1252 204.297 67.9989 203.914 67.7463C203.531 67.4911 203.232 67.1317 203.016 66.6682C202.8 66.2021 202.691 65.6513 202.691 65.0159C202.691 64.3856 202.8 63.8388 203.016 63.3752C203.232 62.9117 203.533 62.5536 203.918 62.301C204.303 62.0484 204.749 61.9221 205.254 61.9221C205.645 61.9221 205.953 61.9872 206.18 62.1174C206.409 62.245 206.583 62.3908 206.703 62.5549C206.826 62.7164 206.921 62.8492 206.988 62.9533H207.067V60.0002H207.988V68.0002H207.098V67.0784H206.988C206.921 67.1877 206.824 67.3258 206.699 67.4924C206.574 67.6565 206.396 67.8036 206.164 67.9338C205.932 68.0614 205.624 68.1252 205.238 68.1252ZM205.363 67.2971C205.733 67.2971 206.046 67.2008 206.301 67.0081C206.556 66.8127 206.75 66.5432 206.883 66.1995C207.016 65.8531 207.082 65.4534 207.082 65.0002C207.082 64.5523 207.017 64.1604 206.887 63.8244C206.757 63.4859 206.564 63.2229 206.309 63.0354C206.053 62.8453 205.738 62.7502 205.363 62.7502C204.973 62.7502 204.647 62.8505 204.387 63.051C204.129 63.2489 203.935 63.5184 203.805 63.8596C203.677 64.1981 203.613 64.5783 203.613 65.0002C203.613 65.4273 203.678 65.8153 203.809 66.1643C203.942 66.5107 204.137 66.7867 204.395 66.9924C204.655 67.1956 204.978 67.2971 205.363 67.2971ZM211.18 66.9065L211.117 67.3284C211.073 67.6252 211.005 67.943 210.914 68.2815C210.826 68.62 210.733 68.9391 210.637 69.2385C210.54 69.538 210.461 69.7763 210.399 69.9534H209.695C209.729 69.7867 209.774 69.5667 209.828 69.2932C209.883 69.0198 209.938 68.7138 209.992 68.3752C210.05 68.0393 210.096 67.6956 210.133 67.344L210.18 66.9065H211.18ZM216.903 60.0002V68.0002H215.982V60.0002H216.903ZM221.108 68.1252C220.529 68.1252 220.031 67.9976 219.612 67.7424C219.195 67.4846 218.873 67.1252 218.647 66.6643C218.423 66.2008 218.311 65.6617 218.311 65.0471C218.311 64.4325 218.423 63.8908 218.647 63.4221C218.873 62.9507 219.188 62.5835 219.592 62.3205C219.998 62.0549 220.472 61.9221 221.014 61.9221C221.326 61.9221 221.635 61.9742 221.94 62.0783C222.244 62.1825 222.522 62.3518 222.772 62.5862C223.022 62.8179 223.221 63.1252 223.369 63.508C223.518 63.8908 223.592 64.3622 223.592 64.9221V65.3127H218.967V64.5158H222.655C222.655 64.1773 222.587 63.8752 222.451 63.6096C222.319 63.344 222.128 63.1343 221.881 62.9807C221.636 62.827 221.347 62.7502 221.014 62.7502C220.647 62.7502 220.329 62.8414 220.061 63.0237C219.795 63.2033 219.591 63.4377 219.447 63.7268C219.304 64.0158 219.233 64.3257 219.233 64.6565V65.1877C219.233 65.6409 219.311 66.025 219.467 66.3401C219.626 66.6526 219.846 66.8909 220.127 67.0549C220.408 67.2164 220.735 67.2971 221.108 67.2971C221.35 67.2971 221.569 67.2633 221.764 67.1956C221.962 67.1252 222.132 67.0211 222.276 66.8831C222.419 66.7424 222.53 66.5679 222.608 66.3596L223.498 66.6096C223.405 66.9117 223.247 67.1773 223.026 67.4065C222.804 67.6331 222.531 67.8101 222.205 67.9377C221.88 68.0627 221.514 68.1252 221.108 68.1252ZM227.604 62.0002V62.7815H224.494V62.0002H227.604ZM225.401 60.5627H226.322V66.2815C226.322 66.5419 226.36 66.7372 226.436 66.8674C226.514 66.995 226.613 67.081 226.733 67.1252C226.855 67.1669 226.984 67.1877 227.119 67.1877C227.221 67.1877 227.304 67.1825 227.369 67.1721C227.434 67.1591 227.487 67.1487 227.526 67.1409L227.713 67.969C227.651 67.9924 227.563 68.0159 227.451 68.0393C227.339 68.0653 227.197 68.0784 227.026 68.0784C226.765 68.0784 226.51 68.0224 226.26 67.9104C226.013 67.7984 225.807 67.6278 225.643 67.3987C225.481 67.1695 225.401 66.8804 225.401 66.5315V60.5627ZM234.694 62.0002V62.7815H231.584V62.0002H234.694ZM232.49 60.5627H233.412V66.2815C233.412 66.5419 233.45 66.7372 233.526 66.8674C233.604 66.995 233.703 67.081 233.823 67.1252C233.945 67.1669 234.074 67.1877 234.209 67.1877C234.311 67.1877 234.394 67.1825 234.459 67.1721C234.524 67.1591 234.576 67.1487 234.616 67.1409L234.803 67.969C234.741 67.9924 234.653 68.0159 234.541 68.0393C234.429 68.0653 234.287 68.0784 234.116 68.0784C233.855 68.0784 233.6 68.0224 233.35 67.9104C233.102 67.7984 232.897 67.6278 232.733 67.3987C232.571 67.1695 232.49 66.8804 232.49 66.5315V60.5627ZM237.131 64.3908V68.0002H236.209V60.0002H237.131V62.9377H237.209C237.35 62.6278 237.561 62.3817 237.842 62.1994C238.126 62.0145 238.504 61.9221 238.975 61.9221C239.384 61.9221 239.742 62.0041 240.049 62.1682C240.356 62.3296 240.595 62.5783 240.764 62.9143C240.936 63.2476 241.022 63.6721 241.022 64.1877V68.0002H240.1V64.2502C240.1 63.7737 239.976 63.4052 239.729 63.1447C239.484 62.8817 239.144 62.7502 238.709 62.7502C238.407 62.7502 238.136 62.814 237.897 62.9416C237.66 63.0692 237.472 63.2554 237.334 63.5002C237.199 63.745 237.131 64.0419 237.131 64.3908ZM245.224 68.1252C244.646 68.1252 244.147 67.9976 243.728 67.7424C243.311 67.4846 242.99 67.1252 242.763 66.6643C242.539 66.2008 242.427 65.6617 242.427 65.0471C242.427 64.4325 242.539 63.8908 242.763 63.4221C242.99 62.9507 243.305 62.5835 243.708 62.3205C244.115 62.0549 244.589 61.9221 245.13 61.9221C245.443 61.9221 245.751 61.9742 246.056 62.0783C246.361 62.1825 246.638 62.3518 246.888 62.5862C247.138 62.8179 247.337 63.1252 247.486 63.508C247.634 63.8908 247.708 64.3622 247.708 64.9221V65.3127H243.083V64.5158H246.771C246.771 64.1773 246.703 63.8752 246.568 63.6096C246.435 63.344 246.245 63.1343 245.997 62.9807C245.753 62.827 245.464 62.7502 245.13 62.7502C244.763 62.7502 244.445 62.8414 244.177 63.0237C243.911 63.2033 243.707 63.4377 243.564 63.7268C243.421 64.0158 243.349 64.3257 243.349 64.6565V65.1877C243.349 65.6409 243.427 66.025 243.583 66.3401C243.742 66.6526 243.962 66.8909 244.243 67.0549C244.525 67.2164 244.852 67.2971 245.224 67.2971C245.466 67.2971 245.685 67.2633 245.88 67.1956C246.078 67.1252 246.249 67.0211 246.392 66.8831C246.535 66.7424 246.646 66.5679 246.724 66.3596L247.615 66.6096C247.521 66.9117 247.363 67.1773 247.142 67.4065C246.921 67.6331 246.647 67.8101 246.322 67.9377C245.996 68.0627 245.63 68.1252 245.224 68.1252ZM249.111 68.0002V62.0002H250.001V62.9377H250.079C250.204 62.6174 250.406 62.3687 250.685 62.1916C250.964 62.0119 251.298 61.9221 251.689 61.9221C252.085 61.9221 252.414 62.0119 252.677 62.1916C252.943 62.3687 253.15 62.6174 253.298 62.9377H253.361C253.514 62.6278 253.745 62.3817 254.052 62.1994C254.359 62.0145 254.728 61.9221 255.158 61.9221C255.694 61.9221 256.133 62.0901 256.474 62.426C256.815 62.7593 256.986 63.2789 256.986 63.9846V68.0002H256.064V63.9846C256.064 63.5419 255.943 63.2255 255.701 63.0354C255.458 62.8453 255.173 62.7502 254.845 62.7502C254.423 62.7502 254.096 62.8778 253.865 63.133C253.633 63.3856 253.517 63.7059 253.517 64.094V68.0002H252.579V63.8908C252.579 63.5497 252.469 63.275 252.247 63.0666C252.026 62.8557 251.741 62.7502 251.392 62.7502C251.152 62.7502 250.928 62.814 250.72 62.9416C250.514 63.0692 250.348 63.2463 250.22 63.4729C250.095 63.6968 250.033 63.9559 250.033 64.2502V68.0002H249.111ZM264.187 70.3753C263.742 70.3753 263.359 70.318 263.039 70.2034C262.718 70.0914 262.451 69.943 262.238 69.7581C262.027 69.5758 261.859 69.3805 261.734 69.1721L262.468 68.6565C262.552 68.7659 262.657 68.8909 262.785 69.0315C262.912 69.1747 263.087 69.2984 263.308 69.4026C263.532 69.5094 263.825 69.5628 264.187 69.5628C264.671 69.5628 265.071 69.4456 265.386 69.2112C265.701 68.9768 265.859 68.6096 265.859 68.1096V66.8909H265.781C265.713 67.0002 265.617 67.1357 265.492 67.2971C265.369 67.456 265.192 67.5979 264.96 67.7229C264.731 67.8453 264.421 67.9065 264.031 67.9065C263.546 67.9065 263.111 67.7919 262.726 67.5627C262.343 67.3336 262.04 67.0002 261.816 66.5627C261.595 66.1252 261.484 65.594 261.484 64.969C261.484 64.3544 261.592 63.8192 261.808 63.3635C262.024 62.9052 262.325 62.551 262.71 62.301C263.096 62.0484 263.541 61.9221 264.046 61.9221C264.437 61.9221 264.747 61.9872 264.976 62.1174C265.208 62.245 265.385 62.3908 265.507 62.5549C265.632 62.7164 265.729 62.8492 265.796 62.9533H265.89V62.0002H266.781V68.1721C266.781 68.6877 266.664 69.107 266.429 69.4299C266.197 69.7555 265.885 69.9937 265.492 70.1448C265.101 70.2984 264.666 70.3753 264.187 70.3753ZM264.156 67.0784C264.526 67.0784 264.838 66.9937 265.093 66.8245C265.348 66.6552 265.542 66.4117 265.675 66.094C265.808 65.7763 265.874 65.3961 265.874 64.9534C265.874 64.5211 265.809 64.1395 265.679 63.8088C265.549 63.4781 265.356 63.219 265.101 63.0315C264.846 62.844 264.531 62.7502 264.156 62.7502C263.765 62.7502 263.44 62.8492 263.179 63.0471C262.921 63.245 262.727 63.5106 262.597 63.844C262.47 64.1773 262.406 64.5471 262.406 64.9534C262.406 65.37 262.471 65.7385 262.601 66.0588C262.734 66.3765 262.929 66.6265 263.187 66.8088C263.447 66.9885 263.77 67.0784 264.156 67.0784ZM270.906 68.1252C270.364 68.1252 269.889 67.9963 269.48 67.7385C269.074 67.4807 268.756 67.12 268.527 66.6565C268.3 66.1929 268.187 65.6513 268.187 65.0315C268.187 64.4065 268.3 63.8609 268.527 63.3947C268.756 62.9286 269.074 62.5666 269.48 62.3088C269.889 62.051 270.364 61.9221 270.906 61.9221C271.447 61.9221 271.921 62.051 272.328 62.3088C272.736 62.5666 273.054 62.9286 273.281 63.3947C273.51 63.8609 273.625 64.4065 273.625 65.0315C273.625 65.6513 273.51 66.1929 273.281 66.6565C273.054 67.12 272.736 67.4807 272.328 67.7385C271.921 67.9963 271.447 68.1252 270.906 68.1252ZM270.906 67.2971C271.317 67.2971 271.656 67.1916 271.921 66.9807C272.187 66.7698 272.384 66.4924 272.511 66.1487C272.639 65.8049 272.703 65.4325 272.703 65.0315C272.703 64.6304 272.639 64.2567 272.511 63.9104C272.384 63.564 272.187 63.2841 271.921 63.0705C271.656 62.857 271.317 62.7502 270.906 62.7502C270.494 62.7502 270.156 62.857 269.89 63.0705C269.624 63.2841 269.428 63.564 269.3 63.9104C269.173 64.2567 269.109 64.6304 269.109 65.0315C269.109 65.4325 269.173 65.8049 269.3 66.1487C269.428 66.4924 269.624 66.7698 269.89 66.9807C270.156 67.1916 270.494 67.2971 270.906 67.2971Z" fill="#D4D4D4"/>
</svg>
