<svg width="29" height="36" viewBox="0 0 29 36" fill="none" xmlns="http://www.w3.org/2000/svg">
<path d="M3.8831 4.7775C5.4742 2.99281 7.6543 2.20838 9.90868 2.65531C11.9099 3.05174 13.0553 4.65504 13.4396 6.56906C13.8255 8.50222 13.1076 10.528 11.4118 11.4731C8.68598 12.9838 5.4583 14.1685 4.85869 17.6078C4.38871 20.2909 5.22785 22.8677 6.847 25.0113C3.40099 23.1371 1.41647 19.3895 0.763808 15.5139C0.111154 11.6338 1.21939 7.76447 3.8831 4.7775Z" fill="#2B7ABF"/>
<path d="M11.237 26.677C8.90981 26.1856 7.13906 24.6788 6.38861 22.4869C5.72078 20.5407 6.51672 18.7339 7.96531 17.4344C9.42299 16.1265 11.519 15.7331 13.1783 16.7395C15.8465 18.355 18.4844 20.5752 21.7273 19.3713C24.2621 18.4308 26.045 16.4004 27.0653 13.9102C27.1935 17.8598 24.9853 21.4775 21.9972 23.9953C19.0006 26.5169 15.1356 27.4959 11.237 26.677Z" fill="#2B7ABF"/>
<path d="M26.2649 9.1396C27.0222 11.4164 26.6295 13.7176 25.1362 15.4794C23.8112 17.0444 21.8668 17.2679 20.0248 16.6617C18.1684 16.0526 16.7736 14.4278 16.7925 12.4725C16.8244 9.33246 17.3877 5.91385 14.7164 3.69754C12.634 1.96719 9.91646 1.50723 7.27246 1.87993C10.5805 -0.228472 14.8694 -0.206279 18.533 1.12458C22.2034 2.45544 24.9929 5.33069 26.2649 9.1396Z" fill="#2B7ABF"/>
<path d="M3.5311 30.3412H1.34106V31.8669H3.45376V32.7676H1.34106V35.7903H0.392578V29.4405H3.5311V30.3412ZM4.41445 35.7903L5.73744 28.9634L7.89492 33.8985L10.1297 28.9634L11.3183 35.7903H10.3455L9.73896 31.9574L7.87863 36.0823L6.07123 31.9533L5.39549 35.7903H4.41445ZM17.2983 29.7819V30.9169C16.7501 30.4535 16.1829 30.2219 15.5967 30.2219C14.9508 30.2219 14.4067 30.4562 13.9643 30.9252C13.5193 31.3913 13.2967 31.9614 13.2967 32.6359C13.2967 33.3023 13.5193 33.8643 13.9643 34.3221C14.4094 34.78 14.9549 35.0089 15.6008 35.0089C15.9347 35.0089 16.2182 34.9541 16.4515 34.8444C16.5818 34.7895 16.7162 34.7156 16.8545 34.6223C16.9957 34.5291 17.1436 34.4168 17.2983 34.2851V35.4408C16.7556 35.7505 16.1856 35.9055 15.5885 35.9055C14.6903 35.9055 13.9236 35.5889 13.2887 34.9554C12.6563 34.3166 12.3401 33.5462 12.3401 32.6442C12.3401 31.8354 12.6048 31.1143 13.1339 30.4809C13.7852 29.705 14.6279 29.3171 15.6618 29.3171C16.2263 29.3171 16.7718 29.472 17.2983 29.7819ZM22.053 30.3864L21.2836 30.8469C21.1397 30.5948 21.0027 30.4303 20.8724 30.3535C20.7367 30.2658 20.5616 30.2219 20.3473 30.2219C20.084 30.2219 19.8656 30.2973 19.6919 30.4481C19.5182 30.5961 19.4313 30.7825 19.4313 31.0074C19.4313 31.3172 19.6593 31.5667 20.1152 31.7559L20.7422 32.015C21.2524 32.2233 21.6255 32.4783 21.8616 32.7799C22.0977 33.0788 22.2157 33.4461 22.2157 33.8821C22.2157 34.4661 22.0231 34.9486 21.6377 35.3297C21.2497 35.7136 20.7679 35.9055 20.1926 35.9055C19.6471 35.9055 19.1966 35.7424 18.8411 35.4161C18.491 35.0898 18.2726 34.6306 18.1857 34.0384L19.1464 33.8245C19.1898 34.1974 19.2658 34.4551 19.3744 34.5977C19.5698 34.8719 19.8547 35.0089 20.2292 35.0089C20.525 35.0089 20.7706 34.9088 20.9661 34.7087C21.1615 34.5086 21.2591 34.255 21.2591 33.948C21.2591 33.8245 21.2415 33.7121 21.2062 33.6106C21.1736 33.5064 21.1207 33.4119 21.0474 33.3268C20.9768 33.2391 20.8846 33.1583 20.7706 33.0842C20.6567 33.0075 20.521 32.9348 20.3635 32.8663L19.757 32.6113C18.8968 32.2439 18.4666 31.7064 18.4666 30.9991C18.4666 30.5221 18.6471 30.1231 19.008 29.8024C19.3689 29.4788 19.818 29.3171 20.3555 29.3171C21.08 29.3171 21.6458 29.6735 22.053 30.3864ZM26.9866 34.248H24.2958L23.5957 35.7903H22.574L25.6839 29.0415L28.6841 35.7903H27.646L26.9866 34.248ZM26.5999 33.3475L25.6677 31.1883L24.6908 33.3475H26.5999Z" fill="#2B7ABF"/>
</svg>
