<svg width="135" height="40" viewBox="0 0 135 40" fill="none" xmlns="http://www.w3.org/2000/svg">
<g clip-path="url(#clip0_583_4124)">
<mask id="mask0_583_4124" style="mask-type:luminance" maskUnits="userSpaceOnUse" x="0" y="0" width="135" height="40">
<path d="M135 0H0V40H135V0Z" fill="white"/>
</mask>
<g mask="url(#mask0_583_4124)">
<path d="M5 0.5H130C132.524 0.5 134.5 2.47614 134.5 5V35C134.5 37.5239 132.524 39.5 130 39.5H5C2.47614 39.5 0.5 37.5239 0.5 35V5C0.5 2.47614 2.47614 0.5 5 0.5Z" stroke="#262626"/>
<path d="M47.4004 10.1994C47.4004 10.9994 47.2004 11.6994 46.7004 12.1994C46.1004 12.7994 45.4004 13.0994 44.5004 13.0994C43.6004 13.0994 42.9004 12.7994 42.3004 12.1994C41.7004 11.5994 41.4004 10.8994 41.4004 9.99941C41.4004 9.09941 41.7004 8.39941 42.3004 7.79941C42.9004 7.19941 43.6004 6.89941 44.5004 6.89941C44.9004 6.89941 45.3004 6.99941 45.7004 7.19941C46.1004 7.39941 46.4004 7.59941 46.6004 7.89941L46.1004 8.39941C45.7004 7.89941 45.2004 7.69941 44.5004 7.69941C43.9004 7.69941 43.3004 7.89941 42.9004 8.39941C42.4004 8.79941 42.2004 9.39941 42.2004 10.0994C42.2004 10.7994 42.4004 11.3994 42.9004 11.7994C43.4004 12.1994 43.9004 12.4994 44.5004 12.4994C45.2004 12.4994 45.7004 12.2994 46.2004 11.7994C46.5004 11.4994 46.7004 11.0994 46.7004 10.5994H44.5004V9.79941H47.4004C47.4004 9.89941 47.4004 10.0994 47.4004 10.1994Z" fill="#171717" stroke="#171717" stroke-width="0.2" stroke-miterlimit="10"/>
<path d="M52 7.7H49.3V9.6H51.8V10.3H49.3V12.2H52V13H48.5V7H52V7.7Z" fill="#171717" stroke="#171717" stroke-width="0.2" stroke-miterlimit="10"/>
<path d="M55.3008 13H54.5008V7.7H52.8008V7H57.0008V7.7H55.3008V13Z" fill="#171717" stroke="#171717" stroke-width="0.2" stroke-miterlimit="10"/>
<path d="M59.9004 13V7H60.7004V13H59.9004Z" fill="#171717" stroke="#171717" stroke-width="0.2" stroke-miterlimit="10"/>
<path d="M64.0996 13H63.2996V7.7H61.5996V7H65.6996V7.7H63.9996V13H64.0996Z" fill="#171717" stroke="#171717" stroke-width="0.2" stroke-miterlimit="10"/>
<path d="M73.6008 12.1994C73.0008 12.7994 72.3008 13.0994 71.4008 13.0994C70.5008 13.0994 69.8008 12.7994 69.2008 12.1994C68.6008 11.5994 68.3008 10.8994 68.3008 9.99941C68.3008 9.09941 68.6008 8.39941 69.2008 7.79941C69.8008 7.19941 70.5008 6.89941 71.4008 6.89941C72.3008 6.89941 73.0008 7.19941 73.6008 7.79941C74.2008 8.39941 74.5008 9.09941 74.5008 9.99941C74.5008 10.8994 74.2008 11.5994 73.6008 12.1994ZM69.8008 11.6994C70.2008 12.0994 70.8008 12.3994 71.4008 12.3994C72.0008 12.3994 72.6008 12.1994 73.0008 11.6994C73.4008 11.2994 73.7008 10.6994 73.7008 9.99941C73.7008 9.29941 73.5008 8.69941 73.0008 8.29941C72.6008 7.89941 72.0008 7.59941 71.4008 7.59941C70.8008 7.59941 70.2008 7.79941 69.8008 8.29941C69.4008 8.69941 69.1008 9.29941 69.1008 9.99941C69.1008 10.6994 69.3008 11.2994 69.8008 11.6994Z" fill="#171717" stroke="#171717" stroke-width="0.2" stroke-miterlimit="10"/>
<path d="M75.5996 13V7H76.4996L79.3996 11.7V10.5V7H80.1996V13H79.3996L76.2996 8.1V9.3V13H75.5996Z" fill="#171717" stroke="#171717" stroke-width="0.2" stroke-miterlimit="10"/>
<path d="M68.0996 21.8006C65.6996 21.8006 63.7996 23.6006 63.7996 26.1006C63.7996 28.5006 65.6996 30.4006 68.0996 30.4006C70.4996 30.4006 72.3996 28.6006 72.3996 26.1006C72.3996 23.5006 70.4996 21.8006 68.0996 21.8006ZM68.0996 28.6006C66.7996 28.6006 65.6996 27.5006 65.6996 26.0006C65.6996 24.5006 66.7996 23.4006 68.0996 23.4006C69.3996 23.4006 70.4996 24.4006 70.4996 26.0006C70.4996 27.5006 69.3996 28.6006 68.0996 28.6006ZM58.7996 21.8006C56.3996 21.8006 54.4996 23.6006 54.4996 26.1006C54.4996 28.5006 56.3996 30.4006 58.7996 30.4006C61.1996 30.4006 63.0996 28.6006 63.0996 26.1006C63.0996 23.5006 61.1996 21.8006 58.7996 21.8006ZM58.7996 28.6006C57.4996 28.6006 56.3996 27.5006 56.3996 26.0006C56.3996 24.5006 57.4996 23.4006 58.7996 23.4006C60.0996 23.4006 61.1996 24.4006 61.1996 26.0006C61.1996 27.5006 60.0996 28.6006 58.7996 28.6006ZM47.6996 23.1006V24.9006H51.9996C51.8996 25.9006 51.4996 26.7006 50.9996 27.2006C50.3996 27.8006 49.3996 28.5006 47.6996 28.5006C44.9996 28.5006 42.9996 26.4006 42.9996 23.7006C42.9996 21.0006 45.0996 18.9006 47.6996 18.9006C49.0996 18.9006 50.1996 19.5006 50.9996 20.2006L52.2996 18.9006C51.1996 17.9006 49.7996 17.1006 47.7996 17.1006C44.1996 17.1006 41.0996 20.1006 41.0996 23.7006C41.0996 27.3006 44.1996 30.3006 47.7996 30.3006C49.7996 30.3006 51.1996 29.7006 52.3996 28.4006C53.5996 27.2006 53.9996 25.5006 53.9996 24.2006C53.9996 23.8006 53.9996 23.4006 53.8996 23.1006H47.6996ZM93.0996 24.5006C92.6996 23.5006 91.6996 21.8006 89.4996 21.8006C87.2996 21.8006 85.4996 23.5006 85.4996 26.1006C85.4996 28.5006 87.2996 30.4006 89.6996 30.4006C91.5996 30.4006 92.7996 29.2006 93.1996 28.5006L91.7996 27.5006C91.2996 28.2006 90.6996 28.7006 89.6996 28.7006C88.6996 28.7006 88.0996 28.3006 87.5996 27.4006L93.2996 25.0006L93.0996 24.5006ZM87.2996 25.9006C87.2996 24.3006 88.5996 23.4006 89.4996 23.4006C90.1996 23.4006 90.8996 23.8006 91.0996 24.3006L87.2996 25.9006ZM82.5996 30.0006H84.4996V17.5006H82.5996V30.0006ZM79.5996 22.7006C79.0996 22.2006 78.2996 21.7006 77.2996 21.7006C75.1996 21.7006 73.1996 23.6006 73.1996 26.0006C73.1996 28.4006 75.0996 30.2006 77.2996 30.2006C78.2996 30.2006 79.0996 29.7006 79.4996 29.2006H79.5996V29.8006C79.5996 31.4006 78.6996 32.3006 77.2996 32.3006C76.1996 32.3006 75.3996 31.5006 75.1996 30.8006L73.5996 31.5006C74.0996 32.6006 75.2996 34.0006 77.3996 34.0006C79.5996 34.0006 81.3996 32.7006 81.3996 29.6006V22.0006H79.5996V22.7006ZM77.3996 28.6006C76.0996 28.6006 74.9996 27.5006 74.9996 26.0006C74.9996 24.5006 76.0996 23.4006 77.3996 23.4006C78.6996 23.4006 79.6996 24.5006 79.6996 26.0006C79.6996 27.5006 78.6996 28.6006 77.3996 28.6006ZM101.8 17.5006H97.2996V30.0006H99.1996V25.3006H101.8C103.9 25.3006 105.9 23.8006 105.9 21.4006C105.9 19.0006 103.9 17.5006 101.8 17.5006ZM101.9 23.5006H99.1996V19.2006H101.9C103.3 19.2006 104.1 20.4006 104.1 21.3006C104 22.4006 103.2 23.5006 101.9 23.5006ZM113.4 21.7006C112 21.7006 110.6 22.3006 110.1 23.6006L111.8 24.3006C112.2 23.6006 112.8 23.4006 113.5 23.4006C114.5 23.4006 115.4 24.0006 115.5 25.0006V25.1006C115.2 24.9006 114.4 24.6006 113.6 24.6006C111.8 24.6006 110 25.6006 110 27.4006C110 29.1006 111.5 30.2006 113.1 30.2006C114.4 30.2006 115 29.6006 115.5 29.0006H115.6V30.0006H117.4V25.2006C117.2 23.0006 115.5 21.7006 113.4 21.7006ZM113.2 28.6006C112.6 28.6006 111.7 28.3006 111.7 27.5006C111.7 26.5006 112.8 26.2006 113.7 26.2006C114.5 26.2006 114.9 26.4006 115.4 26.6006C115.2 27.8006 114.2 28.6006 113.2 28.6006ZM123.7 22.0006L121.6 27.4006H121.5L119.3 22.0006H117.3L120.6 29.6006L118.7 33.8006H120.6L125.7 22.0006H123.7ZM106.9 30.0006H108.8V17.5006H106.9V30.0006Z" fill="#171717"/>
<path d="M10.4 7.5C10.1 7.8 10 8.3 10 8.9V31C10 31.6 10.2 32.1 10.5 32.4L10.6 32.5L23 20.1V20V19.9L10.4 7.5Z" fill="url(#paint0_linear_583_4124)"/>
<path d="M27.0004 24.2998L22.9004 20.1998V19.9998V19.8998L27.0004 15.7998L27.1004 15.8998L32.0004 18.6998C33.4004 19.4998 33.4004 20.7998 32.0004 21.5998L27.0004 24.2998Z" fill="url(#paint1_linear_583_4124)"/>
<path d="M27.1004 24.2L22.9004 20L10.4004 32.5C10.9004 33 11.6004 33 12.5004 32.6L27.1004 24.2Z" fill="url(#paint2_linear_583_4124)"/>
<path d="M27.1004 15.7996L12.5004 7.49962C11.6004 6.99962 10.9004 7.09962 10.4004 7.59962L22.9004 19.9996L27.1004 15.7996Z" fill="url(#paint3_linear_583_4124)"/>
<path opacity="0.2" d="M27.0004 24.0996L12.5004 32.2996C11.7004 32.7996 11.0004 32.6996 10.5004 32.2996L10.4004 32.3996L10.5004 32.4996C11.0004 32.8996 11.7004 32.9996 12.5004 32.4996L27.0004 24.0996Z" fill="#858595" fill-opacity="0.2"/>
<path opacity="0.12" d="M10.4 32.2994C10.1 31.9994 10 31.4994 10 30.8994V30.9994C10 31.5994 10.2 32.0994 10.5 32.3994V32.2994H10.4Z" fill="#858595" fill-opacity="0.2"/>
<path opacity="0.12" d="M32 21.3L27 24.1L27.1 24.2L32 21.4C32.7 21 33 20.5 33 20C33 20.5 32.6 20.9 32 21.3Z" fill="#858595" fill-opacity="0.2"/>
<path opacity="0.25" d="M12.5 7.59929L32 18.6993C32.6 19.0993 33 19.4993 33 19.9993C33 19.4993 32.7 18.9993 32 18.5993L12.5 7.49929C11.1 6.69929 10 7.29929 10 8.89929V8.99929C10 7.49929 11.1 6.79929 12.5 7.59929Z" fill="#171717"/>
</g>
</g>
<defs>
<linearGradient id="paint0_linear_583_4124" x1="21.7996" y1="8.7098" x2="5.0172" y2="25.4922" gradientUnits="userSpaceOnUse">
<stop stop-color="#00A0FF"/>
<stop offset="0.00657445" stop-color="#00A1FF"/>
<stop offset="0.2601" stop-color="#00BEFF"/>
<stop offset="0.5122" stop-color="#00D2FF"/>
<stop offset="0.7604" stop-color="#00DFFF"/>
<stop offset="1" stop-color="#00E3FF"/>
</linearGradient>
<linearGradient id="paint1_linear_583_4124" x1="33.8347" y1="20.0013" x2="9.63778" y2="20.0013" gradientUnits="userSpaceOnUse">
<stop stop-color="#FFE000"/>
<stop offset="0.4087" stop-color="#FFBD00"/>
<stop offset="0.7754" stop-color="#FFA500"/>
<stop offset="1" stop-color="#FF9C00"/>
</linearGradient>
<linearGradient id="paint2_linear_583_4124" x1="24.8273" y1="22.2962" x2="2.06899" y2="45.0545" gradientUnits="userSpaceOnUse">
<stop stop-color="#FF3A44"/>
<stop offset="1" stop-color="#C31162"/>
</linearGradient>
<linearGradient id="paint3_linear_583_4124" x1="7.29758" y1="0.175927" x2="17.4602" y2="10.3384" gradientUnits="userSpaceOnUse">
<stop stop-color="#32A071"/>
<stop offset="0.0685" stop-color="#2DA771"/>
<stop offset="0.4762" stop-color="#15CF74"/>
<stop offset="0.8009" stop-color="#06E775"/>
<stop offset="1" stop-color="#00F076"/>
</linearGradient>
<clipPath id="clip0_583_4124">
<rect width="135" height="40" fill="white"/>
</clipPath>
</defs>
</svg>
