<svg width="56" height="53" viewBox="0 0 56 53" fill="none" xmlns="http://www.w3.org/2000/svg">
<g opacity="0.6">
<path d="M26.4525 0H29.3122C29.3408 0.0536691 29.398 0.0402514 29.4409 0.0402514C29.7126 0.0402514 29.97 0.0805038 30.2416 0.0939211C37.0246 0.633209 43.363 3.48231 48.0619 8.1041C52.7608 12.7259 55.4955 18.801 55.7504 25.1842C55.7504 25.2245 55.7361 25.2915 55.8076 25.3184V27.0224C55.7361 27.0358 55.7647 27.0895 55.7647 27.1431L55.6789 28.458C55.4556 30.9423 54.8487 33.3829 53.8773 35.7033C52.2466 39.6361 49.6243 43.1393 46.2351 45.913C42.8459 48.6867 38.7907 50.6483 34.4169 51.6296C32.6867 52.0187 30.928 52.2468 29.1407 52.3139C29.0978 52.3139 29.0406 52.3005 29.012 52.3676H26.7528C26.7528 52.3005 26.6813 52.3139 26.6384 52.3139C25.4054 52.2728 24.1772 52.1473 22.9636 51.9382C16.7865 50.9045 11.1623 47.9439 7.00223 43.5362C2.84216 39.1285 0.38993 33.5318 0.0428942 27.653C0.0428942 27.6127 0.0571946 27.5591 0 27.5456V24.7951C0.0571946 24.7817 0.0428942 24.728 0.0428942 24.6878C0.299332 19.888 1.98892 15.2526 4.91874 11.3108C7.33773 8.02785 10.5232 5.30621 14.2325 3.35311C17.9419 1.40002 22.0773 0.266968 26.3238 0.0402514C26.3667 0.0402514 26.4382 0.0670863 26.4525 0ZM45.5698 26.1637C45.637 23.9453 45.2295 21.7368 44.3712 19.6688C43.5129 17.6008 42.2214 15.7153 40.5729 14.1239C38.9245 12.5325 36.9527 11.2674 34.7742 10.4036C32.5956 9.53974 30.2546 9.09466 27.8895 9.09466C25.5245 9.09466 23.1834 9.53974 21.0049 10.4036C18.8263 11.2674 16.8545 12.5325 15.2061 14.1239C13.5576 15.7153 12.2661 17.6008 11.4079 19.6688C10.5496 21.7368 10.142 23.9453 10.2093 26.1637C10.3401 30.4821 12.2603 34.5824 15.5617 37.5934C18.8631 40.6045 23.2856 42.289 27.8895 42.289C32.4934 42.289 36.9159 40.6045 40.2174 37.5934C43.5188 34.5824 45.4389 30.4821 45.5698 26.1637ZM17.0583 7.91619L17.0297 7.92961L16.901 7.83568L14.6418 6.11827C14.5703 6.05119 14.5131 6.05119 14.4416 6.10486L12.5828 7.16482C12.497 7.20507 12.4827 7.24532 12.5399 7.32583L15.1137 11.2839C15.1566 11.3644 15.1995 11.3644 15.2709 11.3108L16.4578 10.6399C16.5578 10.5862 16.5436 10.546 16.5007 10.4655L15.0136 8.18453C14.9993 8.1577 14.9564 8.13086 14.9564 8.06378L15.0422 8.13086L17.4015 9.95561C17.4873 10.0227 17.5444 10.0227 17.6445 9.95561L19.4748 8.92248C19.5605 8.86881 19.5748 8.84198 19.5176 8.76148L16.9439 4.78996C16.901 4.72288 16.8724 4.70946 16.8009 4.76313L15.6141 5.43399C15.5141 5.48766 15.4998 5.5145 15.5713 5.60842C15.8572 6.02435 16.1146 6.45371 16.3862 6.86964L17.0583 7.91619ZM5.37631 32.2551V32.2417L5.47636 32.1612L8.03583 30.645C8.12163 30.5914 8.13595 30.5511 8.10735 30.4572L7.62116 28.4849C7.59256 28.3909 7.56399 28.3775 7.4639 28.3909L2.65957 29.4643C2.57378 29.4643 2.54514 29.5046 2.57374 29.5985L2.88831 30.8731C2.91691 30.9536 2.94551 30.9671 3.03131 30.9536L4.86153 30.5511L5.86246 30.323C5.84032 30.3553 5.81107 30.3828 5.77667 30.4035L3.2744 31.9331C3.21721 31.9599 3.17432 31.9868 3.18861 32.0673L3.70335 34.1201C3.71764 34.1872 3.74627 34.2006 3.81776 34.1872L4.94732 33.9188L8.65067 33.1138C8.73646 33.1004 8.76509 33.0736 8.7365 32.9796C8.62657 32.5559 8.5217 32.131 8.42193 31.705C8.40763 31.6245 8.37902 31.5977 8.27893 31.6111C7.80708 31.7318 7.33522 31.8258 6.84907 31.9331L5.37631 32.2551ZM28.7689 46.8263H28.7832L28.8261 46.8934L30.0844 49.5366C30.113 49.6036 30.1415 49.6573 30.2416 49.6439L32.3435 49.4829C32.5437 49.4561 32.5437 49.4561 32.5294 49.2682L32.315 46.8263L32.1148 44.7198C32.1148 44.6527 32.1148 44.6258 32.029 44.6258L30.6849 44.7332C30.4847 44.76 30.4847 44.76 30.499 44.9613L30.7421 47.591C30.6849 47.5642 30.6706 47.5105 30.6563 47.4569L29.4409 44.9613C29.398 44.8673 29.3408 44.8271 29.2408 44.8539L27.1245 45.0149C26.9959 45.0149 26.9815 45.0552 26.9815 45.1759L27.1245 46.6384L27.3962 49.7512C27.3962 49.8452 27.4391 49.8586 27.5392 49.8452L28.9405 49.7512C29.0405 49.7512 29.0262 49.6841 29.0262 49.6171L28.8833 48.2351L28.7689 46.8263ZM10.7526 9.44576C10.5524 9.44576 10.3236 9.48601 10.0805 9.57993C9.28394 9.88672 8.64736 10.4744 8.30751 11.2168C7.99294 11.8609 8.05015 12.4915 8.45051 13.0953C8.82227 13.7124 9.36561 14.1686 10.0519 14.4504C10.7383 14.7456 11.4103 14.7187 12.0538 14.3699C12.6686 14.021 13.1405 13.5246 13.4407 12.9074C13.7982 12.2365 13.7267 11.5657 13.2977 10.9351C12.9403 10.3984 12.4398 9.96903 11.825 9.68727C11.493 9.52791 11.1254 9.44512 10.7526 9.44576ZM17.3443 42.2644C16.7294 42.2644 16.3005 42.3852 15.9287 42.6401C15.2567 43.1231 14.8563 43.7805 14.6704 44.5319C14.4702 45.3101 14.6847 45.981 15.2996 46.5445C15.7571 46.947 16.3004 47.202 16.9153 47.3495C17.7732 47.5374 18.4881 47.3495 19.0744 46.7458C19.5034 46.3164 19.8036 45.8066 19.9752 45.2296C20.1468 44.6258 20.0896 44.0221 19.6892 43.5122C19.4158 43.1593 19.0651 42.8654 18.6606 42.6502C18.2562 42.435 17.8074 42.3034 17.3443 42.2644ZM23.4212 49.4024C23.9359 49.4024 24.3506 49.3353 24.7081 49.0804C25.1084 48.7986 25.3086 48.3961 25.423 47.9399L26.0807 45.0418C26.1093 44.9613 26.0522 44.9478 25.9807 44.9344L24.3506 44.599C24.2219 44.5722 24.1933 44.599 24.1647 44.7198L23.5213 47.5374C23.4992 47.6637 23.4452 47.7833 23.364 47.8862C23.2496 48.0204 23.1066 48.0472 22.935 48.0204C22.8585 48.0085 22.7876 47.9753 22.7314 47.925C22.6753 47.8748 22.6367 47.8098 22.6205 47.7386C22.5904 47.5867 22.6002 47.4301 22.6491 47.2825L23.2639 44.5185C23.2782 44.4648 23.3354 44.3977 23.2067 44.3843L21.5052 44.0355C21.4194 44.0221 21.3908 44.0355 21.3622 44.116L20.6901 47.202C20.5329 47.9399 20.8331 48.5437 21.5195 48.9328C22.1061 49.2254 22.7571 49.3861 23.4212 49.4024ZM7.89284 22.38V22.3532C7.89284 22.1922 7.89287 22.1922 7.74989 22.219L2.73105 23.346C2.65955 23.3729 2.61663 23.3863 2.61663 23.4802L2.44506 25.7343C2.44506 25.8148 2.45937 25.8551 2.54516 25.8819L3.74624 26.3515L7.3638 27.7469C7.42099 27.7603 7.49249 27.814 7.50679 27.6932L7.62116 26.0429C7.62116 25.9624 7.5926 25.9356 7.5211 25.9087L6.92054 25.7477C6.84905 25.7209 6.82044 25.6941 6.82044 25.6136L6.92054 24.406C6.92054 24.3255 6.94915 24.2987 7.02064 24.2987L7.63547 24.2182C7.73556 24.2182 7.76417 24.1779 7.77847 24.084L7.89284 22.38ZM44.5975 15.2957L44.6261 15.2823L47.1999 10.9082C47.2428 10.8546 47.2141 10.8277 47.1855 10.7741C46.6136 10.2374 46.0417 9.67385 45.4983 9.11032C45.4411 9.07007 45.3982 9.05666 45.341 9.09691L40.5796 11.2034C40.5081 11.2303 40.4938 11.2437 40.551 11.3108L41.7807 12.5183C41.8379 12.572 41.8665 12.5586 41.9237 12.5183L42.4956 12.2231C42.5528 12.1829 42.5814 12.1829 42.6386 12.2365L43.5537 13.1355C43.5966 13.1892 43.5966 13.216 43.5537 13.2697L43.1962 13.7795C43.1676 13.8198 43.139 13.8466 43.1962 13.9003L44.5975 15.2957ZM20.0467 8.53338C20.0181 8.64072 20.0896 8.61389 20.1468 8.60047L21.834 8.19795C21.9341 8.18453 21.9341 8.14428 21.9341 8.06378V7.50025C21.9341 7.40633 21.9484 7.36608 22.0485 7.35266L23.2782 7.05748C23.364 7.03065 23.4069 7.05748 23.4355 7.12457L23.7215 7.66126C23.7501 7.72835 23.7787 7.74176 23.8645 7.72835L25.6947 7.29899C25.8091 7.25874 25.8234 7.23191 25.7519 7.13799L23.0637 3.01889C22.9922 2.92496 22.9493 2.91155 22.8493 2.93838L20.5615 3.47507C20.4614 3.50191 20.4185 3.54216 20.4185 3.63608L20.2755 5.595L20.0467 8.53338ZM39.4214 5.32665C39.2173 5.32403 39.015 5.36162 38.8274 5.43698C38.6398 5.51235 38.4711 5.62383 38.3323 5.76419C38.1935 5.90457 38.0876 6.07071 38.0215 6.25188C37.9554 6.43306 37.9306 6.62523 37.9486 6.81597C37.9915 7.13799 38.1774 7.40633 38.3919 7.63443C38.635 7.90277 38.9066 8.1577 39.164 8.39921C39.2498 8.49313 39.3499 8.58705 39.4214 8.69439C39.5644 8.90907 39.4214 9.23108 39.1354 9.23108C39.0314 9.23405 38.9284 9.21222 38.8358 9.16763C38.7433 9.12305 38.6644 9.05717 38.6064 8.97615C38.492 8.84198 38.5349 8.68097 38.6207 8.53338C38.6636 8.47971 38.6492 8.43946 38.592 8.39921L37.1622 7.60759C37.0907 7.56734 37.0478 7.58076 37.0192 7.64784C36.6475 8.17112 36.6617 8.72122 37.0907 9.23108C37.634 9.86169 38.349 10.2776 39.2069 10.4789C39.6931 10.6131 40.1792 10.5594 40.6225 10.2776C41.3803 9.79461 41.5519 9.00299 41.0228 8.29187C40.7758 7.9777 40.4981 7.68574 40.1935 7.41975C40.0648 7.29899 39.9362 7.19166 39.8361 7.05748C39.6931 6.84281 39.8218 6.58788 40.0934 6.57446C40.4223 6.54763 40.6654 6.84281 40.551 7.1514C40.5224 7.23191 40.551 7.25874 40.6225 7.28558L41.9093 8.01011C41.9808 8.05036 42.0094 8.05036 42.0523 7.96986C42.1931 7.75827 42.258 7.50991 42.2374 7.26121C42.2168 7.01251 42.1119 6.77653 41.9379 6.58788C41.5883 6.18932 41.1488 5.86854 40.6511 5.64867C40.2734 5.45308 39.8524 5.34282 39.4214 5.32665ZM48.0006 23.346L48.1149 23.3192L49.1445 23.0777C49.2731 23.0509 49.2874 23.0106 49.2446 22.9033L48.8013 21.3335C48.7727 21.253 48.8013 21.2261 48.8728 21.1993C49.0015 21.1859 49.1159 21.159 49.2446 21.1188C49.3303 21.0919 49.3732 21.1054 49.3876 21.1993C49.5305 21.6689 49.6735 22.1385 49.7879 22.6081C49.8165 22.6886 49.8308 22.702 49.9309 22.6752L50.989 22.4068C51.1034 22.4068 51.1034 22.3532 51.0748 22.2727L50.7602 21.1724C50.7316 21.0383 50.6315 20.8907 50.6887 20.7968C50.7316 20.6894 50.9461 20.7163 51.0748 20.6626C51.1606 20.6358 51.2178 20.6626 51.2178 20.7565L51.6467 22.2727C51.6753 22.3532 51.7039 22.38 51.7897 22.3532L52.8621 22.0848C52.9336 22.0848 52.9765 22.058 52.9479 21.9506L52.0185 18.6366C51.9899 18.5695 51.9613 18.5427 51.8755 18.5695L47.0854 19.7502C46.9997 19.7771 46.9854 19.8039 46.9997 19.8844L47.4286 21.414L47.9434 23.2387C47.9577 23.279 47.9434 23.3595 48.0148 23.346H48.0006ZM36.3186 43.2707C35.575 43.2707 34.6027 43.6464 34.088 44.1294C33.6161 44.5588 33.4017 45.082 33.4446 45.6992C33.4732 46.3432 33.7019 46.947 34.1023 47.4837C34.617 48.1546 35.3033 48.4766 36.1756 48.3827C36.819 48.329 37.391 48.1009 37.92 47.7655C38.6921 47.2556 38.9209 46.625 38.6349 45.7797C38.592 45.6724 38.5492 45.6455 38.4348 45.6858L37.0192 46.2091C36.8762 46.2493 36.8333 46.2896 36.8762 46.4372C36.962 46.7458 36.8619 46.9202 36.5902 47.0141C36.3758 47.0812 36.1899 47.0141 36.0183 46.8129C35.8038 46.5445 35.6752 46.2091 35.5465 45.8736C35.4343 45.6358 35.3666 45.3816 35.3463 45.1223C35.3463 44.8539 35.4606 44.7198 35.7323 44.6527C35.9611 44.599 36.1184 44.6795 36.2471 44.8942L36.3043 45.0284C36.3329 45.1089 36.3758 45.1223 36.4616 45.082L37.7342 44.6124C38.063 44.4917 38.063 44.4917 37.8771 44.1965C37.5482 43.6061 37.0478 43.2573 36.3043 43.2573L36.3186 43.2707ZM9.63728 41.513C9.63728 41.7814 9.68018 42.0095 9.78027 42.2376C10.1556 43.0445 10.8541 43.6807 11.7249 44.0086C11.8965 44.0623 12.0681 44.0891 12.2396 44.0891C12.7544 44.1026 13.1547 43.8745 13.5265 43.5525C13.6123 43.4854 13.598 43.4585 13.5265 43.3914L12.4541 42.412C12.2968 42.2778 12.2968 42.2778 12.111 42.3851C11.8393 42.5596 11.6248 42.5327 11.4246 42.3181C11.2816 42.1571 11.2959 41.9826 11.4103 41.8216C11.7392 41.2984 12.1967 40.8824 12.7258 40.5336L12.783 40.5067C13.0261 40.3994 13.2406 40.4531 13.4121 40.6543C13.5551 40.8287 13.5265 40.9897 13.3692 41.191L13.2691 41.2984C13.1977 41.352 13.212 41.3923 13.2691 41.4459L14.3415 42.412C14.4988 42.5596 14.4988 42.5596 14.6561 42.3986C15.2853 41.674 15.3139 40.9495 14.7419 40.1981C14.4559 39.7956 14.0842 39.4736 13.6409 39.2187C13.2965 39.0038 12.8933 38.887 12.4798 38.8822C12.0663 38.8775 11.6601 38.985 11.3102 39.1918C10.7097 39.5139 10.2378 39.9835 9.90895 40.5604C9.73737 40.8556 9.63728 41.1776 9.63728 41.4996V41.513ZM49.0872 15.725C49.1444 15.725 49.1445 15.7787 49.1588 15.8055L50.0024 17.2546C50.0453 17.3351 50.0739 17.3351 50.1454 17.2949L51.1463 16.785C51.232 16.7582 51.232 16.7313 51.1891 16.6508L49.4304 13.5917C49.3875 13.5112 49.3589 13.4978 49.2731 13.538L44.9121 15.7653C44.8406 15.8055 44.8263 15.8324 44.8692 15.8995L45.6842 17.3351C45.7271 17.4022 45.77 17.429 45.8558 17.3754L47.2856 16.6374C47.4 16.5837 47.4286 16.6106 47.4858 16.7045L48.2007 17.9523C48.2436 18.0328 48.2723 18.0462 48.358 18.006L49.3303 17.5095C49.4018 17.4693 49.4304 17.4424 49.3732 17.3619L48.7441 16.2617C48.5868 15.9934 48.5868 15.9934 48.8728 15.8324L49.0872 15.725ZM53.2768 29.1155L49.7021 29.9742C49.6365 29.9901 49.5676 29.9901 49.5019 29.9742L47.9577 29.6656C47.8719 29.6387 47.8433 29.6522 47.8147 29.7327L47.4429 31.3427C47.4143 31.4367 47.4429 31.4769 47.543 31.4903L49.0444 31.7989L49.2731 31.9063L51.9899 33.9725L52.1043 34.053L52.4903 32.443C52.5189 32.3356 52.4904 32.3088 52.3903 32.2417L50.9604 31.4501L50.6458 31.2622L50.7173 31.2488L52.6905 31.0073C52.8049 30.9939 52.8478 30.9671 52.8764 30.8731L53.0766 30.001L53.2768 29.1155ZM8.89376 19.6831C8.89376 19.616 8.82227 19.6295 8.76508 19.616L5.43347 18.6097C5.31908 18.5695 5.29052 18.5427 5.33341 18.4353L5.64798 17.5498C5.67658 17.4693 5.64799 17.4424 5.5622 17.4156L4.46117 17.0802C4.38968 17.0668 4.34677 17.0802 4.31818 17.1473L3.01704 20.9846C2.98844 21.0517 3.00271 21.0785 3.0742 21.0919L4.21812 21.4408C4.28961 21.4676 4.30389 21.4408 4.33249 21.3737L4.63275 20.4748C4.66135 20.3808 4.70428 20.3406 4.80437 20.3808L8.17883 21.4005C8.27892 21.4408 8.3218 21.4005 8.33609 21.3335L8.86518 19.7636L8.89376 19.6831ZM53.3054 25.8819L53.2625 23.8693C53.2625 23.7754 53.2339 23.7351 53.1195 23.7486L52.0042 23.7754C51.9041 23.7754 51.8612 23.7888 51.8755 23.8827C51.8898 24.2048 51.8755 24.5133 51.9041 24.8219C51.9041 24.9293 51.8755 24.9561 51.7754 24.9561L48.2294 25.0232C48.1293 25.0232 48.1007 25.05 48.1007 25.1574L48.1293 26.7674C48.1293 26.8748 48.1721 26.9016 48.2865 26.9016L51.7754 26.8345C51.9184 26.8345 51.947 26.8614 51.947 26.9821V27.8677C51.947 27.9616 51.9899 28.0018 52.09 28.0018C52.476 27.975 52.8478 27.975 53.2196 27.975C53.3197 27.975 53.3626 27.9482 53.3626 27.8408L53.3054 25.8819ZM26.4954 4.91072H26.4525V7.23191C26.4525 7.29899 26.4525 7.35266 26.5526 7.35266C27.768 7.35266 28.9834 7.3795 30.2131 7.40633C30.3131 7.40633 30.3274 7.3795 30.3274 7.29899C30.3274 6.93673 30.3275 6.58788 30.3561 6.22561C30.3561 6.13169 30.3274 6.09144 30.2131 6.09144H28.583C28.4829 6.09144 28.4686 6.05119 28.4686 5.95727L28.5258 2.65662C28.5258 2.54928 28.5115 2.50903 28.3828 2.50903C27.8109 2.50903 27.2532 2.50903 26.6956 2.48219C26.5669 2.48219 26.524 2.50903 26.524 2.61637L26.4954 4.92414V4.91072ZM46.8996 41.5935L46.8138 41.5264L46.0274 40.7617C45.9559 40.6946 45.913 40.6946 45.8415 40.7617L44.6976 41.835C44.6118 41.9155 44.5689 41.9021 44.4831 41.8216L42.0238 39.4736C41.9666 39.4199 41.9379 39.3797 41.8521 39.4602L40.5653 40.6409C40.5224 40.6946 40.5224 40.7214 40.5796 40.7751L41.2373 41.3923L44.0541 44.0757C44.097 44.116 44.1257 44.1831 44.2114 44.1026L46.8424 41.6606L46.8996 41.5935ZM10.6668 16.3288C10.6525 16.2886 10.6096 16.2751 10.581 16.2617L6.2485 13.9808C6.16271 13.9405 6.13411 13.9674 6.10551 14.0345L5.23331 15.4835C5.17612 15.564 5.20471 15.5909 5.27621 15.6311L9.6087 17.8986C9.69449 17.9389 9.72309 17.9255 9.75169 17.845L10.6096 16.3959L10.6668 16.3288ZM42.4956 45.3101L42.4527 45.243L39.6931 41.352C39.6502 41.2983 39.6216 41.2849 39.5501 41.3252L38.0487 42.2644C37.9772 42.3046 37.9772 42.3315 38.0201 42.3986L40.7797 46.2896C40.8226 46.3298 40.8512 46.3567 40.9227 46.3164L42.4241 45.3638L42.4956 45.3101ZM45.4268 50.4221C45.4058 50.1701 45.4408 49.9168 45.5296 49.6781C45.6184 49.4395 45.7591 49.2208 45.9427 49.0359C46.1263 48.8509 46.3489 48.7038 46.5963 48.6038C46.8437 48.5039 47.1105 48.4532 47.3799 48.4551C47.6492 48.4569 47.9152 48.5113 48.161 48.6147C48.4068 48.7181 48.627 48.8683 48.8077 49.0557C48.9884 49.2432 49.1256 49.4638 49.2106 49.7036C49.2957 49.9435 49.3267 50.1973 49.3018 50.4489C49.3228 50.7009 49.2878 50.9543 49.199 51.1929C49.1101 51.4315 48.9695 51.6502 48.7859 51.8351C48.6022 52.0201 48.3797 52.1672 48.1323 52.2672C47.8849 52.3672 47.6181 52.4178 47.3487 52.416C47.0793 52.4141 46.8134 52.3597 46.5676 52.2563C46.3218 52.1529 46.1015 52.0028 45.9208 51.8153C45.7402 51.6278 45.603 51.4072 45.5179 51.1674C45.4329 50.9276 45.4018 50.6738 45.4268 50.4221ZM48.9443 50.4087C48.9443 50.2745 48.93 50.1403 48.8871 49.9793C48.829 49.7445 48.7094 49.5269 48.5391 49.3464C48.3688 49.1658 48.1532 49.028 47.9119 48.9454C47.6705 48.8628 47.411 48.838 47.1568 48.8733C46.9026 48.9086 46.6619 49.0028 46.4563 49.1475C45.913 49.55 45.7128 50.0867 45.8129 50.7307C45.9559 51.6028 46.8996 52.1798 47.8147 51.9382C48.4724 51.7638 48.9443 51.1466 48.9586 50.4087H48.9443Z" fill="black"/>
<path d="M14.9417 26.1771V22.1788C14.9417 22.058 14.9703 22.0312 15.0847 22.0312H23.3064C23.4494 22.0312 23.478 22.0043 23.478 21.8836V14.1821C23.478 14.0479 23.5066 14.0211 23.6353 14.0211H32.143C32.286 14.0211 32.3146 14.0613 32.3146 14.1821V21.8836C32.3146 22.0178 32.3289 22.0312 32.4576 22.0312H40.665C40.808 22.0312 40.8509 22.058 40.8509 22.1922V30.162C40.8509 30.2962 40.808 30.323 40.6793 30.323H32.5147C32.3146 30.323 32.3146 30.323 32.3146 30.5109V38.1587C32.3146 38.2929 32.286 38.3332 32.143 38.3332H23.6496C23.5066 38.3332 23.478 38.3063 23.478 38.1721V30.4706C23.478 30.3365 23.4494 30.3096 23.3064 30.3096H15.099C14.9846 30.3096 14.9417 30.2962 14.9417 30.1755V26.1637V26.1771ZM11.9962 12.5317C11.9962 12.8806 11.7102 13.0819 11.4242 13.0148C11.2908 12.9831 11.1648 12.9285 11.0525 12.8538C10.6696 12.597 10.3194 12.2999 10.0087 11.9682C9.93261 11.8881 9.86993 11.7976 9.8228 11.6999C9.77738 11.6197 9.76118 11.5278 9.77667 11.4381C9.79216 11.3485 9.83849 11.2661 9.90858 11.2034C9.9694 11.1343 10.0531 11.0862 10.1463 11.0668C10.2396 11.0473 10.3371 11.0577 10.4234 11.0961L10.6521 11.19C11.0811 11.4718 11.4814 11.8072 11.8246 12.1963C11.9247 12.3171 11.9962 12.4512 11.9962 12.5317ZM16.4574 45.5382C16.4574 45.4577 16.4574 45.3638 16.5003 45.2833C16.6862 44.7869 16.9435 44.3173 17.301 43.9013C17.5012 43.6732 17.73 43.633 17.9587 43.7403C18.1589 43.8342 18.2447 44.0087 18.2161 44.2099L18.116 44.5051C17.9445 44.9076 17.73 45.2699 17.4726 45.6321C17.3929 45.7352 17.2964 45.8257 17.1866 45.9005C17.1208 45.95 17.0411 45.9801 16.9572 45.9873C16.8732 45.9945 16.7889 45.9783 16.7148 45.9407C16.5432 45.8602 16.4431 45.7261 16.4574 45.5382ZM3.61719 24.7683L4.27491 24.6744L5.47599 24.5134C5.64758 24.4865 5.64759 24.4865 5.61899 24.6475L5.5761 25.2513C5.5761 25.3318 5.57609 25.3452 5.47599 25.3184L3.61719 24.7817V24.7683ZM45.4836 10.6131L44.3969 12.1158C44.354 12.1695 44.3254 12.1829 44.2682 12.1158L43.7678 11.6194C43.7106 11.5791 43.7106 11.5523 43.7678 11.512C44.3398 11.2169 44.8831 10.9083 45.4407 10.5997H45.4836V10.6131ZM21.9052 4.2533L22.3627 5.112L22.7631 5.84995C22.806 5.93045 22.7917 5.95729 22.6916 5.98412C22.4611 6.02596 22.2322 6.07519 22.0053 6.13171C21.9338 6.15855 21.9052 6.13171 21.9052 6.06463V4.2533ZM47.7142 50.4758C47.9716 50.5831 48.0431 50.7441 48.086 50.9588C48.1146 51.1064 48.1289 51.2674 48.1861 51.415C48.2147 51.4821 48.2004 51.4955 48.1289 51.5089C47.8715 51.5089 47.8429 51.5089 47.7714 51.2674L47.7142 50.9588C47.657 50.7173 47.5283 50.61 47.271 50.61C46.9421 50.61 46.985 50.5697 46.985 50.8649V51.3882C46.985 51.4687 46.9707 51.5089 46.8706 51.5089C46.6561 51.5089 46.6561 51.5089 46.6561 51.3077V49.6171C46.6561 49.4829 46.6561 49.4292 46.8277 49.4292C47.1566 49.4024 47.4712 49.3622 47.7857 49.4695C48.1146 49.5768 48.2576 49.9257 48.086 50.2074C48.0145 50.3416 47.8858 50.4087 47.7142 50.4758ZM47.2567 50.355C47.3281 50.355 47.414 50.355 47.4997 50.3282C47.6856 50.2745 47.7857 50.1672 47.7857 50.0196C47.7857 49.8586 47.6999 49.7378 47.5141 49.6842C47.3711 49.6305 47.2281 49.6439 47.0851 49.6439C46.9993 49.6439 46.985 49.6976 46.985 49.7513V50.1135C46.985 50.3819 46.9564 50.355 47.2567 50.355Z" fill="black"/>
</g>
</svg>
