<svg width="53" height="62" viewBox="0 0 53 62" fill="none" xmlns="http://www.w3.org/2000/svg">
<g opacity="0.6">
<path d="M18.7817 15.6625H33.4223V21.0438H18.7817V15.6625ZM40.5604 52.4706H31.2498C30.0489 53.5342 26.0952 55.4715 26.0952 55.4715C26.0952 55.4715 22.2091 53.5089 20.9676 52.458H11.63C10.8339 52.458 22.0876 59.9285 26.0952 61.296C30.1028 59.9412 41.3701 52.4706 40.5604 52.4706ZM19.6318 55.6868L18.7682 55.2689L17.9181 55.6868L18.08 54.8004L17.3783 54.1547L18.3364 54.028L18.7682 53.205L19.2 54.028L20.158 54.1547L19.4698 54.7878L19.6318 55.6741V55.6868ZM26.9588 59.4473L26.1087 59.0168L25.2451 59.4473L25.4071 58.5484L24.7189 57.9153L25.6769 57.7886L26.1087 56.9656L26.5405 57.776L27.4851 57.9026L26.8104 58.5484L26.9588 59.4347V59.4473ZM34.2184 55.6868L33.3548 55.2689L32.5047 55.6868L32.6667 54.8004L31.965 54.1547L32.9365 54.028L33.3548 53.205L33.7866 54.028L34.7447 54.1547L34.0565 54.7878L34.2184 55.6741V55.6868Z" fill="black"/>
<path d="M48.9955 52.4707C33.9601 48.9854 18.2469 48.9854 3.2115 52.4707L0 31.7684C17.246 28.6727 34.961 28.6727 52.207 31.7684L48.9955 52.4707Z" fill="black"/>
<path d="M4.00781 19.322V35.0734H48.1996V19.322C33.4645 8.26816 18.7429 8.26816 4.00781 19.322ZM42.8021 30.034H9.40528V21.8291C15.0726 18.0305 20.6725 16.1059 26.1104 16.1059C31.5349 16.1059 37.1348 18.0305 42.8021 21.8291V30.034Z" fill="black"/>
<path d="M31.6557 11.51C31.6557 8.80038 28.984 6.12872 26.0963 6.12872C23.2087 6.12872 20.5234 8.80038 20.5234 11.51C20.5234 14.2197 23.2222 15.9417 26.0963 15.9417C28.9705 15.9417 31.6557 14.2197 31.6557 11.51ZM26.9599 1.5831C26.9599 1.07662 26.5281 0.646118 26.0693 0.646118C25.597 0.646118 25.1787 1.06396 25.1787 1.5831C25.1787 2.10224 25.6105 2.52008 26.0693 2.52008C26.5281 2.52008 26.9599 2.10224 26.9599 1.5831Z" fill="black"/>
<path d="M27.6209 7.15398H24.5039L24.9087 1.79799H27.2296L27.6209 7.15398ZM26.4605 0.835686H25.7453L25.8398 0H26.3795L26.4605 0.835686Z" fill="black"/>
<path d="M24.7183 1.69653H27.417V2.43092H24.7183V1.69653ZM24.3405 5.27985H27.7814V6.4954H24.3405V5.27985ZM15.8125 22.5887H36.3903V24.5639H15.8125V22.5887ZM18.7811 21.3478H33.4217V22.5887H18.7811V21.3478Z" fill="black"/>
<path d="M18.227 21.0441H33.8796V21.6392H18.227V21.0441ZM8.64648 23.6904V30.5785H43.1363V23.7031H8.64648V23.6904ZM15.1234 30.2493H13.909V25.5897H15.1234V30.2493ZM16.8102 30.2493H15.5957V25.5897H16.8102V30.2493ZM18.5104 30.2493H17.2959V25.5897H18.5104V30.2493ZM20.1971 30.2493H18.9826V25.5897H20.1971V30.2493ZM21.8838 30.2493H20.6693V25.5897H21.8838V30.2493ZM23.584 30.2493H22.3695V25.5897H23.584V30.2493ZM25.2707 30.2493H24.0562V25.5897H25.2707V30.2493ZM26.9574 30.2493H25.743V25.5897H26.9574V30.2493ZM28.6576 30.2493H27.4431V25.5897H28.6576V30.2493ZM30.3443 30.2493H29.1299V25.5897H30.3443V30.2493ZM32.031 30.2493H30.8166V25.5897H32.031V30.2493ZM33.7177 30.2493H32.5033V25.5897H33.7177V30.2493ZM35.4179 30.2493H34.2035V25.5897H35.4179V30.2493ZM37.1046 30.2493H35.8902V25.5897H37.1046V30.2493ZM38.7913 30.2493H37.5769V25.5897H38.7913V30.2493Z" fill="black"/>
<path d="M21.8845 21.2089H22.4918V17.0938H21.8845V21.2089ZM23.1799 21.2089H23.8006V17.0938H23.1799V21.2089ZM24.4888 21.2089H25.096V17.0938H24.4888V21.2089ZM25.7977 21.2089H26.4049V17.0938H25.7977V21.2089ZM27.1066 21.2089H27.7138V17.0938H27.0931V21.2089H27.1066ZM28.402 21.2089H29.0227V17.0938H28.402V21.2089ZM29.7109 21.2089H30.3181V17.0938H29.7109V21.2089ZM31.0198 21.2089H31.627V17.0938H31.0198V21.2089ZM32.3151 17.0938V21.2089H32.9359V17.0938H32.3151ZM19.2668 21.2089H19.8875V17.0938H19.2668V21.2089ZM20.5757 21.2089H21.1829V17.0938H20.5757V21.2089ZM7.52728 36.6057C8.3369 36.5298 9.03857 36.5551 9.63229 36.9223C10.28 37.3022 10.4824 37.9226 10.5229 38.3657C10.6173 39.3534 9.99662 40.3917 8.17497 40.5689L7.39234 40.6449L7.74318 43.6838L6.86608 43.785L6.04297 36.7577L7.52728 36.6057ZM7.31138 39.8978L8.04005 39.8219C9.11954 39.7332 9.69976 39.2141 9.6188 38.4037C9.51085 37.2768 8.28293 37.2895 7.7027 37.3401L7.02802 37.4034L7.31138 39.8978ZM12.6684 39.7206C12.4929 37.6314 14.2606 35.9347 16.622 35.808C18.9834 35.6814 20.9535 37.1755 21.0344 39.2774C21.1154 41.3666 19.3612 42.9873 17.0673 43.1013C14.7869 43.2279 12.8438 41.8098 12.6684 39.7206ZM13.5859 39.6573C13.6648 40.4426 14.0701 41.1673 14.714 41.6744C15.358 42.1815 16.1888 42.4303 17.0268 42.3669C17.8679 42.3437 18.6654 42.0104 19.2463 41.4392C19.8273 40.8679 20.1449 40.1049 20.1304 39.3154C20.0494 37.6947 18.5111 36.4538 16.676 36.5551C14.8408 36.6437 13.451 38.0492 13.5724 39.6573H13.5859ZM24.4079 35.6308L24.5158 41.9617C25.3929 41.9364 27.174 41.9871 28.0511 41.9871V42.7214C26.8367 42.7214 24.8801 42.6835 23.6522 42.7088L23.4903 35.6434H24.4079V35.6308ZM31.3166 35.6434L31.1952 42.7088L30.3181 42.6961L30.399 35.6308L31.3166 35.6434ZM40.155 37.6187C39.5293 36.9865 38.6704 36.6016 37.7531 36.5424C37.3321 36.5061 36.9076 36.5501 36.5053 36.6719C36.1029 36.7936 35.731 36.9906 35.412 37.2509C35.093 37.5112 34.8334 37.8295 34.6491 38.1865C34.4647 38.5435 34.3593 38.9318 34.3392 39.3281C34.2582 41.2527 35.9584 42.2909 37.4157 42.3669C38.3108 42.4067 39.1886 42.1261 39.8716 41.5819L39.7906 42.5568C38.8731 43.0633 37.9555 43.1393 37.3618 43.1013C35.0274 42.9747 33.3407 41.3286 33.4216 39.3027C33.5026 37.1882 35.4052 35.6814 37.861 35.808C38.3468 35.8334 39.3049 35.9347 40.2359 36.6564L40.155 37.6314V37.6187ZM47.1987 37.4921C45.8628 37.3655 45.2016 37.2895 43.8657 37.1755L43.6633 39.2647L46.8613 39.5686L46.7669 40.303L43.5958 39.9991L43.326 42.7341L46.5375 43.038L46.4565 43.785C44.8238 43.6078 44.0007 43.5318 42.3679 43.4052L43.0426 36.3652C44.7293 36.5044 45.5794 36.5804 47.2796 36.7577L47.1987 37.4921Z" fill="white"/>
<path d="M8.95874 46.1789L8.04118 46.2675L8.10863 46.8373L8.95874 46.7487L9.0127 47.1792L8.14911 47.2552L8.28405 48.3694L7.74431 48.4327L7.46094 45.9003L8.91826 45.7611L8.95874 46.1789ZM13.5736 46.6474C13.641 47.4198 13.0878 48.0149 12.2242 48.0782C11.3876 48.1415 10.7399 47.6477 10.6589 46.8753C10.5915 46.1156 11.1312 45.4952 12.0083 45.4319C12.8719 45.3685 13.5196 45.875 13.5736 46.6474ZM13.0338 46.6854C12.9799 46.1789 12.575 45.837 12.0353 45.8877C11.4955 45.9257 11.1582 46.3182 11.2122 46.8247C11.2661 47.3311 11.671 47.673 12.1972 47.635C12.737 47.5844 13.0743 47.2045 13.0203 46.6854H13.0338ZM15.8 45.2293L15.908 46.8247C15.908 47.0146 16.0024 47.1285 16.0564 47.2045C16.1374 47.2678 16.2858 47.3565 16.5017 47.3438C16.7176 47.3438 16.8525 47.2298 16.92 47.1412C17.004 47.0311 17.0423 46.8961 17.0279 46.7614L16.947 45.166C17.1629 45.166 17.2573 45.166 17.4867 45.1406L17.5542 46.698C17.583 46.9365 17.526 47.1772 17.3923 47.3818C17.2169 47.635 16.8795 47.7743 16.5287 47.787C16.3634 47.8024 16.1965 47.7831 16.0402 47.7306C15.8838 47.678 15.7419 47.5935 15.6246 47.4831C15.4604 47.2932 15.37 47.0565 15.3682 46.812L15.2603 45.2673L15.8 45.2293ZM19.5108 47.6097L19.4028 45.0014H19.7672C20.4688 45.6724 20.8197 46.0143 21.5078 46.7107L21.4539 45.0014L21.9936 44.9887L22.0611 47.5717L21.6833 47.5844C21.0086 46.888 20.6712 46.5461 19.9696 45.8624L20.037 47.5844L19.5108 47.597V47.6097ZM24.6384 44.9507C25.0162 44.9507 25.3535 44.976 25.6639 45.1913C25.9877 45.4192 26.1902 45.7864 26.1902 46.2042C26.1902 46.6221 26.0012 47.0019 25.6504 47.2425C25.3265 47.4451 25.0297 47.4831 24.6519 47.4957H23.9502L23.9232 44.9634L24.6384 44.9507ZM24.4765 47.0652H24.6384C24.7733 47.0652 25.0702 47.0526 25.3131 46.888C25.4189 46.8074 25.5033 46.7048 25.5595 46.5883C25.6157 46.4718 25.6422 46.3447 25.6369 46.2169C25.6417 46.0861 25.6136 45.9561 25.555 45.8373C25.4964 45.7186 25.4089 45.6144 25.2996 45.5332C25.0991 45.4123 24.8627 45.3547 24.6249 45.3685H24.463V47.0652H24.4765ZM29.5771 46.9766H28.4706L28.2277 47.4831H27.6475L28.8619 44.9127H29.2667C29.7255 45.9637 29.9414 46.4828 30.3597 47.5337L29.793 47.5211L29.5771 46.9766ZM29.4286 46.5714L29.0508 45.6598L28.646 46.5588L29.4286 46.5714ZM32.775 45.4952L32.6806 47.597L32.1408 47.5844L32.2353 45.4698L31.6146 45.4572L31.6281 45.0267L33.4093 45.09L33.3823 45.5205L32.775 45.4952ZM35.5817 45.2039L35.4333 47.7363L34.8936 47.6983L35.042 45.166L35.5817 45.1913V45.2039ZM40.1966 46.774C40.1291 47.5337 39.4949 48.0402 38.6313 47.9896C37.7812 47.9263 37.228 47.3311 37.2819 46.5714C37.3359 45.799 37.9836 45.2799 38.8472 45.3432C39.7108 45.3939 40.264 46.0016 40.1966 46.774ZM39.6568 46.7234C39.6973 46.2169 39.3465 45.8244 38.8202 45.7864C38.294 45.7484 37.8757 46.0903 37.8352 46.5968C37.7947 47.1032 38.1455 47.4957 38.6718 47.5337C39.198 47.5717 39.6163 47.2425 39.6568 46.7234ZM41.8428 48.1795L42.1127 45.5965L42.477 45.6344L43.9613 47.5464L44.1502 45.8497L44.69 45.9003L44.3796 48.4834L44.0153 48.4454L42.558 46.5208L42.369 48.2301L41.8428 48.1795Z" fill="white"/>
<path d="M5.8432 32.541L6.78775 34.3516L7.40847 32.2497L8.43398 34.1997L9.04119 32.2371L9.37854 32.2117C9.01421 33.3133 8.8388 33.8578 8.50146 34.9594L7.48943 33.0094C7.21956 33.8578 7.09811 34.2756 6.85523 35.124L5.50586 32.5663L5.8432 32.541ZM11.7264 33.8578L10.5525 33.9464L10.2961 34.6808L9.97226 34.7061L10.9843 31.9585L12.4281 34.5162L12.0908 34.5415L11.7129 33.8578H11.7264ZM11.578 33.6046L11.0383 32.6169L10.6604 33.6679L11.578 33.5919V33.6046ZM14.6141 32.3384C14.5692 32.2686 14.5094 32.2083 14.4387 32.1611C14.3469 32.1044 14.2379 32.0777 14.1283 32.0851C13.8584 32.1104 13.683 32.2751 13.6965 32.5156C13.6965 32.6043 13.737 32.6676 13.818 32.7182C13.8989 32.7942 14.0069 32.8322 14.1148 32.8702L14.3847 32.9588C14.5414 33.0053 14.6877 33.0782 14.8165 33.174C14.9649 33.3007 15.0324 33.4273 15.0459 33.6172C15.0729 34.0857 14.722 34.4149 14.2363 34.4529C14.1275 34.4633 14.0177 34.453 13.9133 34.4225C13.809 34.3921 13.7123 34.3421 13.6291 34.2756C13.4987 34.1581 13.4053 34.0091 13.3592 33.8451L13.6291 33.7565C13.6695 33.8831 13.737 33.9971 13.818 34.0604C13.9529 34.1617 14.0878 34.187 14.2228 34.187C14.5871 34.1617 14.7625 33.8958 14.7355 33.6425C14.7335 33.5857 14.7179 33.5301 14.6898 33.4797C14.6618 33.4292 14.6221 33.3854 14.5736 33.3513C14.4703 33.2844 14.3565 33.2332 14.2363 33.1994L13.9934 33.1107C13.8719 33.0727 13.737 33.0221 13.6021 32.9208C13.5358 32.873 13.4819 32.8117 13.4445 32.7415C13.4071 32.6713 13.3872 32.5941 13.3862 32.5156C13.3592 32.1358 13.6695 31.8445 14.1148 31.8192C14.2598 31.8062 14.4056 31.8327 14.5349 31.8956C14.6642 31.9585 14.7713 32.0551 14.8435 32.1738L14.6141 32.3384ZM16.5841 32.7689L17.9875 32.7056L17.947 31.6673H18.2439L18.3653 34.1997H18.0685L18.001 32.9715C17.4477 32.9841 17.1644 32.9968 16.6111 33.0348L16.6786 34.263L16.3683 34.2883L16.2333 31.7559L16.5437 31.7306L16.5841 32.7689ZM20.0116 31.604L20.0925 34.1363H19.7956L19.7012 31.604H20.0116ZM21.5363 34.0984L21.4689 31.452C22.346 32.2624 22.7777 32.6676 23.6278 33.4906L23.6144 31.528H23.9112L23.9517 34.1743L21.7927 32.1358C21.7927 32.9208 21.8062 33.3133 21.8332 34.0857L21.5363 34.0984ZM26.7854 32.7689H27.9188V32.8448C27.9188 33.1234 27.8244 33.4273 27.649 33.6425C27.5318 33.7893 27.3786 33.9074 27.2024 33.9868C27.0263 34.0661 26.8323 34.1044 26.6369 34.0984C25.8273 34.0984 25.2336 33.5159 25.2201 32.7815C25.2201 32.0471 25.8273 31.4647 26.6504 31.4647C26.8779 31.4603 27.1029 31.5089 27.3054 31.6062C27.5079 31.7034 27.6816 31.8462 27.8109 32.0218L27.5815 32.2117C27.5038 32.1166 27.413 32.0314 27.3116 31.9585C27.1274 31.8107 26.8928 31.7298 26.6504 31.7306C26.5018 31.7253 26.3537 31.7488 26.2152 31.7997C26.0768 31.8506 25.951 31.9279 25.8458 32.0265C25.7407 32.1252 25.6584 32.2432 25.6041 32.3731C25.5499 32.503 25.5248 32.6421 25.5305 32.7815C25.5305 33.4779 26.1242 33.8325 26.6369 33.8325C26.8046 33.8368 26.9704 33.7993 27.1174 33.7236C27.2645 33.648 27.3874 33.5369 27.4735 33.402C27.5385 33.2933 27.5755 33.1719 27.5815 33.0474H26.7719V32.7689H26.7854ZM29.9159 31.8066L29.8619 34.0857H29.5516L29.6055 31.8066H28.9309V31.528C29.6055 31.528 29.9294 31.5407 30.5771 31.566V31.8192H29.9024L29.9159 31.8066ZM31.4137 32.8448C31.4272 32.0851 32.0884 31.5533 32.8845 31.5786C33.6671 31.604 34.2879 32.1864 34.2474 32.9461C34.2069 33.7058 33.5727 34.2376 32.7765 34.2123C31.9804 34.187 31.3867 33.6046 31.4137 32.8448ZM31.724 32.8575C31.7187 32.9938 31.7421 33.1298 31.7928 33.2577C31.8435 33.3856 31.9205 33.5029 32.0195 33.6028C32.1185 33.7027 32.2375 33.7834 32.3697 33.8402C32.5019 33.897 32.6448 33.9288 32.7901 33.9338C32.9354 33.9387 33.0803 33.9168 33.2166 33.8693C33.3528 33.8217 33.4778 33.7494 33.5843 33.6565C33.6908 33.5636 33.7768 33.452 33.8373 33.3279C33.8978 33.2038 33.9317 33.0698 33.937 32.9335C33.964 32.351 33.4917 31.8699 32.8575 31.8445C32.2233 31.8192 31.7375 32.2751 31.724 32.8575ZM35.4753 34.2756L35.6102 31.6166L37.6208 33.8071L37.7557 31.8445L38.0526 31.8699L37.8772 34.5162L35.8801 32.3257L35.7721 34.2883L35.4753 34.2756ZM41.2101 32.0851L41.7768 32.1231C42.0467 32.1484 42.438 32.1991 42.7619 32.503C42.9913 32.7182 43.1667 33.0601 43.1262 33.5159C43.1128 33.7003 43.0548 33.8793 42.9566 34.0395C42.8584 34.1997 42.7226 34.3367 42.5595 34.4402C42.2896 34.6175 42.0197 34.6935 41.5339 34.6555L40.9942 34.6175L41.2101 32.0851ZM41.318 34.3643L41.5879 34.3896C41.7903 34.4022 42.1007 34.4023 42.3841 34.225C42.6 34.0857 42.7889 33.8451 42.8158 33.4906C42.8833 32.8828 42.4515 32.4397 41.7633 32.389L41.4935 32.3763L41.318 34.3643ZM46.5806 33.1234C46.4854 33.0064 46.3656 32.9089 46.2287 32.837C46.0917 32.7651 45.9405 32.7204 45.7844 32.7056C45.6376 32.6898 45.489 32.7022 45.3474 32.7419C45.2058 32.7816 45.0743 32.8479 44.9608 32.9367C44.8473 33.0254 44.7541 33.1349 44.687 33.2584C44.6198 33.3819 44.58 33.5169 44.57 33.6552C44.5435 33.8344 44.5686 34.017 44.6427 34.1841C44.7168 34.3511 44.8373 34.4965 44.9915 34.605C45.1458 34.7136 45.3282 34.7814 45.5199 34.8014C45.7115 34.8214 45.9054 34.7929 46.0813 34.7188C46.2027 34.6762 46.3165 34.6164 46.4186 34.5415L46.3782 34.8961C46.0543 35.0607 45.744 35.0733 45.5416 35.0607C44.7319 34.972 44.1922 34.3516 44.2732 33.6172C44.3541 32.8575 45.0288 32.3637 45.8519 32.4397C46.0138 32.465 46.3242 32.5156 46.6345 32.7815L46.5806 33.1234Z" fill="white"/>
</g>
</svg>
