<svg width="90" height="50" viewBox="0 0 90 50" fill="none" xmlns="http://www.w3.org/2000/svg">
<g opacity="0.6">
<path d="M73.004 28.1074H57.4155C55.3698 24.0894 53.8203 19.8651 52.7972 15.5168C51.7107 11.1772 51.0138 6.75976 50.7138 2.31091H51.0052C57.2291 3.66345 62.7854 6.94501 66.777 11.6257C70.7685 16.3063 72.9623 22.1128 73.004 28.1074ZM16.6669 28.1074C16.5649 16.6377 25.6557 4.88099 39.3503 2.2699C38.1804 11.1954 35.5874 19.9053 31.6581 28.1074H16.6669Z" fill="black"/>
<path d="M15.1369 28.0936H0.0874085L0 27.5057H14.4813C14.9766 19.1666 18.4877 12.2219 25.2039 6.82204C28.184 4.3853 31.6549 2.53447 35.4111 1.37916C39.1673 0.223848 43.1323 -0.212454 47.0714 0.0960881C54.5489 0.609284 61.5622 3.69201 66.7688 8.75425C71.9754 13.8165 75.0097 20.5027 75.2909 27.5331H89.5391L89.5828 28.1893H74.6354C74.5917 27.8475 74.5188 27.5194 74.4896 27.1913C74.308 23.3477 73.275 19.5819 71.4565 16.1337C69.6379 12.6855 67.0737 9.63061 63.9273 7.16381C59.3267 3.50194 53.6222 1.27956 47.6104 0.806962C46.2847 0.738608 44.9443 0.642914 43.604 0.683926C36.8916 0.959524 30.4763 3.35917 25.4025 7.49217C20.3287 11.6252 16.8954 17.2481 15.6613 23.4455C15.4574 24.4982 15.3992 25.5782 15.2826 26.6445L15.1369 28.0936ZM12.0192 30.7593C12.0192 31.0054 12.0483 31.1831 12.0192 31.3472C11.2907 34.218 10.5332 37.0615 9.80478 39.8777C9.17832 40.1784 8.56643 40.1237 7.96911 40.1237C7.43007 40.1237 7.24065 39.7136 7.1241 39.3035C6.93471 38.62 6.77448 37.9228 6.59965 37.2256C6.43763 36.4826 6.21851 35.7516 5.94404 35.0383L4.63283 39.9734C4.16663 40.028 3.74419 40.1101 3.3217 40.1237C2.53499 40.1647 2.30184 40.0144 2.08331 39.2898C1.87935 38.62 1.7191 37.9501 1.54428 37.2802C1.06406 35.3901 0.58818 33.499 0.116574 31.6069C0.0582996 31.3609 0.043706 31.1148 0 30.8824C1.29661 30.4859 1.96681 30.5406 2.59327 31.0738L3.55476 36.2413C3.70045 36.0499 3.77335 35.9679 3.80249 35.8722L4.82223 31.3609C4.85136 31.1831 4.96794 31.0054 5.02621 30.8414C6.148 30.5816 6.25003 30.5816 7.08044 30.8277C7.18242 31.0738 7.34265 31.3745 7.41549 31.6889C7.76514 32.9877 8.08564 34.2864 8.40615 35.5714C8.46443 35.7901 8.55181 36.0089 8.6538 36.2823C9.01801 34.4778 9.35315 32.7553 9.71737 31.0328C9.73194 30.9507 9.81936 30.8687 9.90677 30.7593H12.0192ZM0.0583316 42.8442V42.2017H89.5828L89.6411 42.8442H0.0583316ZM32.9107 30.7457H34.9794C35.4602 30.9097 35.533 31.2925 35.6496 31.6206L37.6455 37.704C37.8349 38.2919 38.0534 38.866 38.2283 39.4539C38.2865 39.5906 38.272 39.7546 38.3011 39.9323C37.4707 40.1784 36.684 40.1647 35.9118 39.9734C35.533 39.4402 35.7661 38.743 35.2416 38.3602H32.6193L32.0948 39.9597C31.3373 40.1511 30.5943 40.2468 29.7347 39.8913L32.5756 31.3062C32.6339 31.1148 32.7796 30.9507 32.9107 30.7457ZM34.8337 36.419C34.5424 35.421 34.3821 34.4504 33.9596 33.3978C33.7119 34.5324 33.2894 35.4757 33.1729 36.542C33.7702 36.5967 34.2656 36.6924 34.8337 36.419ZM45.9933 30.7593H51.5877C52.0248 31.6479 52.0248 32.1674 51.4857 32.7553L48.5428 32.8646C48.2515 33.2747 48.3389 33.6575 48.5137 34.1087H50.8739C51.3109 34.7648 51.0487 35.3937 51.1215 36.0499C50.2765 36.4327 49.4024 36.1319 48.5428 36.2823C48.2223 36.7608 48.3389 37.2802 48.5428 37.8271C49.5626 38.1688 50.6408 37.8681 51.7043 38.0185C52.0976 38.5243 51.9082 39.0984 51.9519 39.6999C51.7043 39.8093 51.4566 39.9734 51.2235 39.987C49.5044 40.0144 47.7853 39.987 46.0079 39.987C45.9642 39.782 45.9059 39.5769 45.9059 39.3992V31.3882C45.9059 31.1968 45.9642 31.0054 45.9933 30.773V30.7593ZM81.2059 30.7867C81.3952 31.3882 81.5117 31.935 81.3078 32.4955C80.9144 32.8783 80.4337 32.7689 79.9675 32.8099C79.4867 32.851 78.9914 32.8099 78.5106 32.8236C78.3212 32.8236 78.161 32.8783 77.9716 32.9056V34.0403C78.7874 34.259 79.5741 34.0813 80.4483 34.177C80.827 34.7922 80.6522 35.4484 80.5793 36.1319C79.7052 36.3643 78.8894 36.1456 78.0736 36.2823C77.7967 36.7197 77.9279 37.1846 77.9279 37.581C78.1319 37.9774 78.4523 37.9774 78.802 37.9774H81.2787C81.5263 38.661 81.5992 39.3035 81.2787 39.987H75.5532C75.5095 39.7683 75.4512 39.5769 75.4512 39.3855V31.4429C75.4512 31.2105 75.5095 31.0054 75.5386 30.7593H81.2059V30.7867ZM18.1088 35.8995C17.3076 36.4463 16.4189 36.1182 15.5739 36.3096C15.1806 36.8018 15.2971 37.3349 15.4283 37.9501H18.5896C19.0413 38.4969 18.9102 39.0711 18.9102 39.6999C18.6917 39.7956 18.4731 39.9734 18.24 39.9734C16.5355 40.0144 14.8455 40.0007 13.141 40.0007C13.0973 40.0007 13.0536 39.9597 12.9079 39.905C12.7622 39.1941 12.8787 38.4286 12.8642 37.6767V35.3527V33.138C12.8642 32.3725 12.8205 31.6069 12.8933 30.773C14.831 30.7047 16.6811 30.773 18.5751 30.732C18.8227 31.3882 18.9831 32.0034 18.648 32.7279L15.37 32.8373V34.054C16.2004 34.2454 16.9871 34.095 17.803 34.1633C18.2983 34.6555 18.0651 35.257 18.1088 35.8995ZM74.6936 30.7593L71.5759 39.8913C70.9203 40.1921 70.2939 40.1374 69.682 40.1101C69.2158 40.0964 68.9536 39.7683 68.8225 39.3855L68.0066 37.0615L66.0398 31.2925L65.8942 30.855C66.6954 30.5953 67.4822 30.8004 68.1815 30.7183C68.5602 30.9371 68.6331 31.2241 68.7205 31.5386L70.2648 36.7881L70.5124 36.2413L71.8236 31.812C71.9402 31.4429 71.9693 31.0464 72.4063 30.7593H74.6936ZM36.6548 30.814C37.3978 30.65 38.0971 30.7047 38.7381 30.732C39.2189 30.9234 39.3646 31.2788 39.4666 31.6616L40.9526 36.5967C40.9526 36.6241 40.9817 36.6514 41.04 36.7334C41.1274 36.5284 41.2148 36.3506 41.2585 36.1866L42.6134 31.6753C42.7153 31.3745 42.8902 31.0874 43.0505 30.7593H45.1629C45.4543 31.1285 45.2066 31.4019 45.1192 31.6753L43.5021 36.4327L42.5843 39.1258L42.2929 39.8777C41.6373 40.2058 41.0109 40.1511 40.399 40.1101C39.9619 40.0827 39.7143 39.7956 39.5831 39.4265L38.9421 37.6083L36.8588 31.6343C36.786 31.4019 36.7277 31.1558 36.6548 30.814ZM22.6544 39.6179C22.8146 38.9207 22.7709 38.2235 23.2954 37.663C23.8344 37.7997 24.3152 37.9774 24.8251 38.0731C25.1893 38.1278 25.5972 38.1415 25.9614 38.0731C26.6607 37.9638 26.8064 37.7314 26.7918 37.0068C26.6461 36.6787 26.2965 36.5557 25.976 36.419C25.4959 36.2415 25.02 36.0546 24.5483 35.8585C23.3099 35.3253 22.8582 34.3957 22.9457 33.2611C23.0331 31.7436 23.9364 31.0738 24.9999 30.773C26.3719 30.4416 27.824 30.5672 29.1083 31.1285C29.05 31.7983 28.9189 32.3862 28.4818 32.9877C27.7206 32.6163 26.8531 32.4822 26.0051 32.6049C25.5098 32.9466 25.5097 32.9466 25.4952 33.6439C25.7428 33.7806 26.0197 33.9719 26.3256 34.1087C26.8209 34.3411 27.3455 34.5051 27.8262 34.7238C29.05 35.2707 29.5745 36.1866 29.4579 37.458C29.4356 38.0007 29.2345 38.5235 28.8822 38.9544C28.53 39.3854 28.0439 39.7032 27.4911 39.864C25.8885 40.4108 24.286 40.2331 22.6544 39.6179ZM82.7938 39.5906C82.8084 39.3855 82.7938 39.2078 82.8375 39.0438C82.9541 38.5926 83.0997 38.1552 83.2454 37.663C83.7845 37.7997 84.2652 37.9774 84.7605 38.0458C85.1976 38.1142 85.6784 38.1005 86.13 38.0458C86.567 37.9911 86.8585 37.7314 86.9022 37.2802C86.873 36.8291 86.5671 36.5967 86.1591 36.46C85.6492 36.2686 85.1394 36.1046 84.644 35.8722C83.158 35.175 82.6044 33.8216 83.1872 32.3862C83.4494 31.7436 83.9156 31.2241 84.5857 30.9507C86.1446 30.3219 87.6452 30.5816 89.204 31.1421C89.0146 31.7846 89.102 32.4272 88.5484 32.9193C88.4027 32.892 88.2134 32.892 88.0968 32.8236C87.5723 32.5229 86.9896 32.5639 86.4214 32.5639C85.8823 32.5639 85.5473 32.7963 85.4745 33.3021C85.5619 33.7259 85.8823 33.9036 86.2466 34.054C86.8293 34.2864 87.412 34.4914 87.9657 34.7648C88.6358 35.0793 89.1749 35.5441 89.4225 36.2549C89.6644 36.9577 89.6141 37.7202 89.2818 38.3896C88.9494 39.059 88.3596 39.5857 87.6306 39.864C86.5379 40.3151 83.9884 40.2741 82.7938 39.5906ZM56.0603 39.9597V30.8004C56.8033 30.6637 57.5172 30.732 58.2164 30.7457C58.5807 31.0054 58.4933 31.3335 58.4933 31.6206L58.4787 37.0205V37.9091C59.5568 38.0458 60.562 37.9091 61.5818 38.0048C61.6838 38.661 61.9752 39.2762 61.5818 39.864C60.9116 40.0554 57.5026 40.1101 56.0457 39.9734L56.0603 39.9597ZM65.0492 39.9187C64.3499 40.1511 63.6651 40.2058 62.8784 40.0554C62.791 39.7683 62.6453 39.4812 62.6453 39.1941L62.6308 31.1831C62.6308 31.0601 62.689 30.9507 62.7473 30.8004C63.4757 30.6637 64.2042 30.7457 64.9617 30.7457C65.02 30.9234 65.1074 31.0601 65.1074 31.2105V39.6043C65.1074 39.6999 65.0637 39.7956 65.0492 39.9187Z" fill="black"/>
<path d="M43.6208 23.0899H45.5148L46.1412 28.0796H42.8633C43.2129 26.3025 43.446 24.8534 43.6208 23.0899ZM45.3399 18.4008H44.0142L44.1453 15.8171H45.3399V18.4008ZM45.238 11.1417H44.393L44.5095 8.43492H45.238V11.1417ZM45.4128 3.97829H44.6844C44.6844 3.30843 44.7281 2.54288 44.6844 1.73631C44.9757 1.73631 45.1943 1.6953 45.4128 1.70897V3.97829Z" fill="black"/>
<path d="M2.15553 47.0145H4.44282V45.3056H4.93811V49.4889H4.44282V47.4383H2.15553V49.4889H1.66016V45.3056H2.15553V47.0145ZM6.58437 45.3056V49.4889H6.089V45.3056H6.58437ZM10.0371 47.3973H11.902V47.493C11.902 47.9578 11.7562 48.4499 11.4648 48.819C11.3337 48.983 10.8385 49.5709 9.81867 49.5709C8.49292 49.5709 7.48763 48.6139 7.48763 47.4109C7.48763 46.2079 8.50749 45.2373 9.81867 45.2373C10.191 45.2282 10.5596 45.3074 10.8907 45.4675C11.2217 45.6276 11.5044 45.8634 11.7126 46.1532L11.3484 46.4677C11.2245 46.3039 11.0775 46.1567 10.9113 46.0302C10.6094 45.7936 10.2264 45.6674 9.83316 45.6748C8.75508 45.6748 8.01208 46.4403 8.01208 47.4109C8.01208 48.5593 8.97368 49.1334 9.81867 49.1334C10.416 49.1334 10.9404 48.86 11.188 48.4225C11.2754 48.2858 11.3484 48.0945 11.3629 47.8347H10.0517V47.3973H10.0371ZM13.3005 47.0145H15.6024V45.3056H16.0978V49.4889H15.6024V47.4383H13.3005V49.4889H12.8052V45.3056H13.3005V47.0145ZM17.2632 45.3056L18.4433 48.4499L19.8418 45.0869L21.1676 48.4499L22.4788 45.3056H23.0324L21.153 49.7076L19.8418 46.3583L18.4433 49.7076L16.7242 45.3056H17.2778H17.2632ZM25.378 48.3132H23.484L22.945 49.4889H22.3913L24.4456 45.1143L26.4561 49.4889H25.9025L25.378 48.3132ZM25.1886 47.8757L24.431 46.1942L23.6734 47.8757H25.1886ZM27.607 47.698L26.1501 45.3056H26.7183L27.8546 47.1785L29.0056 45.3056H29.5883L28.1023 47.698V49.4889H27.607V47.7117V47.698ZM33.7695 46.1396C33.7055 46.0192 33.6163 45.9123 33.5073 45.8251C33.3587 45.7266 33.179 45.6784 32.9974 45.6884C32.5603 45.6884 32.2544 45.9345 32.2544 46.3309C32.2544 46.495 32.2981 46.577 32.4146 46.6864C32.5603 46.8231 32.706 46.8914 32.8808 46.9598L33.3179 47.1238C33.5801 47.2332 33.8132 47.3426 34.0026 47.534C34.2357 47.739 34.3231 47.9851 34.3231 48.2858C34.3231 49.0514 33.7113 49.5709 32.91 49.5709C32.7312 49.5779 32.5527 49.5513 32.3851 49.4926C32.2174 49.4339 32.0641 49.3443 31.9339 49.2291C31.7273 49.0235 31.586 48.7678 31.5259 48.4909L32.0067 48.3542C32.0359 48.5866 32.1524 48.7643 32.269 48.901C32.4729 49.0787 32.6914 49.1334 32.91 49.1334C33.5219 49.1334 33.8132 48.7233 33.8132 48.3132C33.8196 48.2189 33.8033 48.1244 33.7655 48.0369C33.7276 47.9493 33.6692 47.8709 33.5947 47.8074C33.432 47.6894 33.2499 47.597 33.0556 47.534L32.6623 47.3562C32.4875 47.2742 32.2689 47.1922 32.065 47.0008C31.9638 46.9148 31.8839 46.8091 31.831 46.691C31.7782 46.5728 31.7536 46.4453 31.7591 46.3173C31.7591 45.6748 32.2835 45.2373 33.012 45.2373C33.2742 45.2373 33.5073 45.292 33.7258 45.4287C33.9006 45.538 34.0609 45.7021 34.1629 45.8935L33.7695 46.1396ZM37.703 48.3132H35.8091L35.2555 49.4889H34.7165L36.7561 45.1143L38.7666 49.4889H38.213L37.703 48.3132ZM37.4991 47.8757L36.7561 46.1942L35.9985 47.8757H37.4991ZM41.4326 45.7431H39.8883V46.9735H41.3744V47.4246H39.8883V49.4889H39.3931V45.3056H41.4326V45.7431ZM44.6232 45.7431H42.8021V46.9871H44.5503V47.4246H42.8021V49.0651H44.6232V49.4889H42.2922V45.3056H44.6232V45.7431ZM46.6336 45.7431V49.4889H46.1384V45.7431H45.0457V45.3056H47.7117V45.7431H46.6191H46.6336ZM49.3289 47.698L47.872 45.3056H48.4401L49.5765 47.1785L50.7274 45.3056H51.3102L49.8242 47.698V49.4889H49.3289V47.7117V47.698ZM55.9576 48.3132H54.0491L53.5101 49.4889H52.9711L55.0106 45.1143L57.0211 49.4889H56.4675L55.943 48.3132H55.9576ZM55.7536 47.8757L55.0106 46.1942L54.2385 47.8757H55.7536ZM57.6476 45.3056H58.5654C59.0025 45.3056 59.6435 45.3467 60.2117 45.7978C60.6196 46.1122 60.9693 46.6454 60.9693 47.3973C60.9693 48.2858 60.503 48.7643 60.1825 49.0104C59.7746 49.3385 59.3521 49.4889 58.5508 49.4889H57.6476V45.3056ZM58.1429 49.0514H58.58C58.9296 49.0514 59.425 49.0241 59.862 48.6823C60.1971 48.4089 60.4593 47.9988 60.4593 47.3973C60.4593 46.3993 59.7163 45.7568 58.58 45.7568H58.1429V49.0514ZM61.9017 45.3056L63.1691 48.5046L64.422 45.3056H64.9756L63.1691 49.7486L61.3626 45.3056H61.9017ZM65.3544 47.3973C65.3544 46.1669 66.4034 45.2373 67.6854 45.2373C68.9674 45.2373 70.0163 46.1532 70.0163 47.3973C70.0163 48.6413 68.982 49.5709 67.6854 49.5709C66.3888 49.5709 65.3544 48.6413 65.3544 47.3973ZM65.8643 47.3973C65.8643 48.3542 66.6802 49.1334 67.6854 49.1334C68.6906 49.1334 69.4919 48.3679 69.4919 47.3973C69.5145 47.1609 69.4844 46.9228 69.4035 46.698C69.3226 46.4731 69.1928 46.2666 69.0221 46.0915C68.8515 45.9164 68.6439 45.7765 68.4125 45.6808C68.1811 45.5851 67.931 45.5357 67.6781 45.5357C67.4252 45.5357 67.1751 45.5851 66.9437 45.6808C66.7123 45.7765 66.5047 45.9164 66.3341 46.0915C66.1634 46.2666 66.0336 46.4731 65.9527 46.698C65.8718 46.9228 65.8417 47.1609 65.8643 47.3973ZM74.3287 46.2352C74.1533 46.0637 73.9431 45.9269 73.7104 45.833C73.4776 45.7391 73.2272 45.6899 72.9738 45.6884C71.954 45.6884 71.1819 46.454 71.1819 47.4246C71.1794 47.715 71.257 48.001 71.4072 48.2549C71.5575 48.5087 71.7753 48.7217 72.0394 48.8731C72.3034 49.0246 72.6048 49.1092 72.9141 49.1189C73.2234 49.1286 73.53 49.0629 73.8043 48.9284C74.0665 48.819 74.2413 48.655 74.3287 48.5866V49.1608C73.8334 49.4889 73.3089 49.5709 72.9884 49.5709C71.6627 49.5709 70.672 48.6276 70.672 47.4109C70.672 46.1669 71.6772 45.2373 73.003 45.2373C73.2944 45.2373 73.7897 45.2646 74.3287 45.6474V46.2352ZM77.7086 48.3132H75.8147L75.2611 49.4889H74.7221L76.7617 45.1143L78.7721 49.4889H78.2185L77.6941 48.3132H77.7086ZM77.5047 47.8757L76.7617 46.1942L75.9896 47.8757H77.5192H77.5047ZM80.433 45.7431V49.4889H79.9231V45.7431H78.845V45.3056H81.4965V45.7431H80.433ZM84.4831 45.7431H82.662V46.9871H84.4394V47.4246H82.662V49.0651H84.4831V49.4889H82.1667V45.3056H84.4976V45.7431H84.4831ZM87.3969 46.1396C87.3329 46.0192 87.2436 45.9123 87.1345 45.8251C86.986 45.7266 86.8062 45.6784 86.6247 45.6884C86.1876 45.6884 85.8817 45.9345 85.8817 46.3309C85.8817 46.495 85.9253 46.577 86.0419 46.6864C86.1876 46.8231 86.3333 46.8914 86.5081 46.9598L86.9451 47.1238C87.2074 47.2332 87.4405 47.3426 87.6299 47.534C87.863 47.739 87.9504 47.9851 87.9504 48.2858C87.9504 49.0514 87.3385 49.5709 86.5373 49.5709C86.3609 49.5761 86.1852 49.5486 86.0202 49.49C85.8552 49.4313 85.7042 49.3427 85.5758 49.2291C85.3639 49.0251 85.2174 48.7693 85.1532 48.4909L85.634 48.3542C85.6631 48.5866 85.7797 48.7643 85.9108 48.901C86.1002 49.0787 86.3187 49.1334 86.5518 49.1334C87.1492 49.1334 87.4405 48.7233 87.4405 48.3132C87.4469 48.2189 87.4306 48.1244 87.3928 48.0369C87.3549 47.9493 87.2965 47.8709 87.2219 47.8074C87.0593 47.6894 86.8772 47.597 86.6829 47.534L86.2896 47.3562C86.1148 47.2742 85.8962 47.1922 85.6923 47.0008C85.591 46.9148 85.5112 46.8091 85.4583 46.691C85.4054 46.5728 85.3809 46.4453 85.3864 46.3173C85.3864 45.6748 85.9108 45.2373 86.6393 45.2373C86.9161 45.2373 87.1346 45.292 87.3531 45.4287C87.5279 45.538 87.6882 45.7021 87.7901 45.8935L87.3969 46.1396Z" fill="black"/>
</g>
</svg>
