<svg width="571" height="308" viewBox="0 0 571 308" fill="none" xmlns="http://www.w3.org/2000/svg">
<rect width="571" height="308"/>
<path d="M166.943 84.335C166.903 96.1663 159.612 105.745 150.618 105.745C159.634 105.745 166.943 115.371 166.943 127.245C166.943 115.402 174.215 105.795 183.197 105.745C174.234 105.692 166.979 96.1354 166.943 84.335Z" fill="url(#paint0_linear_12977_11272)"/>
<path d="M165.721 84.766C166.573 89.8637 167.483 95.1828 170.364 99.5249C171.528 101.333 173.022 102.886 174.762 104.094C176.859 105.511 179.231 106.019 181.669 106.406V104.543C177.231 105.757 173.354 108.576 170.734 112.495C168.114 116.414 166.922 121.175 167.373 125.926C167.492 127.151 169.359 127.165 169.229 125.926C168.784 121.603 169.845 117.258 172.218 113.679C174.591 110.101 178.12 107.526 182.162 106.423C182.991 106.196 183.099 104.711 182.162 104.561C179.892 104.201 177.662 103.773 175.698 102.444C173.989 101.238 172.554 99.6586 171.493 97.8158C169.064 93.7453 168.287 88.9103 167.52 84.2671C167.316 83.0451 165.534 83.5617 165.73 84.7808L165.721 84.766Z" fill="black"/>
<path d="M321.748 117.151C321.748 117.151 316.322 83.6974 312.49 80.0417C308.658 76.3859 278.623 66.9818 274.527 65.7268C270.431 64.4718 268.184 65.7128 267.726 68.7579C267.269 71.8029 270.77 73.7527 270.77 73.7527C270.77 73.7527 265.098 70.8197 262.727 74.5454C260.357 78.2712 266.481 82.7001 266.481 82.7001C266.481 82.7001 263.207 81.1678 261.336 84.521C259.464 87.8742 264.674 91.7709 264.674 91.7709C264.674 91.7709 261.136 90.3702 259.512 93.3004C257.888 96.2306 268.624 103.637 274.297 106.57C274.387 110.789 280.469 134.693 280.469 134.693C280.469 134.693 310.069 124.149 321.748 117.151Z" fill="#FFC89E"/>
<path d="M265.173 83.5772C266.937 85.4311 269.453 86.7626 271.579 88.1614C273.931 89.7101 276.312 91.2082 278.722 92.6558C279.736 93.2709 280.66 91.6811 279.649 91.0687C277.391 89.6998 275.157 88.2953 272.947 86.8553C270.813 85.4508 268.234 84.1194 266.473 82.2683C265.656 81.4087 264.358 82.7093 265.173 83.5688V83.5772Z" fill="black"/>
<path d="M263.28 92.6953C266.78 94.5219 270.135 96.6161 273.313 98.9593C274.265 99.6643 275.183 98.0688 274.24 97.3722C271.062 95.0264 267.708 92.9303 264.207 91.1026C263.159 90.5408 262.241 92.1419 263.28 92.6897V92.6953Z" fill="black"/>
<path d="M280.762 94.3986C278.078 97.0468 275.876 100.142 274.254 103.545C273.748 104.609 275.332 105.542 275.841 104.474C277.386 101.209 279.49 98.239 282.059 95.6991C282.902 94.8564 281.604 93.5643 280.762 94.3986Z" fill="black"/>
<path d="M269.602 74.7633C271.352 76.0907 273.189 77.2984 275.102 78.3784C276.132 78.9599 277.068 77.3728 276.028 76.7914C274.121 75.7103 272.289 74.5025 270.543 73.1762C269.599 72.4628 268.684 74.0582 269.613 74.7633H269.602Z" fill="black"/>
<path d="M245.65 119.287C241.883 116.739 235.164 56.4878 237.595 54.1122C240.025 51.7366 270.869 48.4936 275.883 49.3806C280.896 50.2677 289.768 111.762 283.938 114.556C278.107 117.35 249.417 121.839 245.65 119.287Z" fill="url(#paint1_linear_12977_11272)"/>
<path d="M269.023 70.4401C269.386 70.389 269.749 70.5156 270 70.774L270.101 70.8927L276.301 79.2917L276.378 79.4237L276.404 79.4812L276.456 79.631L276.485 79.7714C276.5 79.8755 276.5 79.9783 276.487 80.0778L276.442 80.2779L276.4 80.3893C276.374 80.4476 276.344 80.5042 276.308 80.5587L276.382 80.4292L276.352 80.486L264.629 98.2903C264.531 98.4676 264.391 98.606 264.23 98.703L264.089 98.7736L263.976 98.8162L263.791 98.8575L263.638 98.8688L263.455 98.8553C263.361 98.842 263.267 98.816 263.177 98.7775L263.162 98.7682C263.085 98.7355 263.011 98.6926 262.942 98.6403L246.697 84.7057L246.65 84.662L246.578 84.5822C246.475 84.4589 246.397 84.3128 246.354 84.1506L246.326 84.0118L246.316 83.9118L246.317 83.7752C246.32 83.7288 246.326 83.6837 246.334 83.6395L246.356 83.5464L246.386 83.454L250.014 73.7168C250.142 73.3731 250.426 73.1149 250.773 73.0166L250.925 72.9845L269.023 70.4401ZM266.086 82.3869L257.038 83.6589L263.194 94.615L266.086 82.3869ZM254.612 84.0001L250.118 84.632L259.475 92.6572L254.612 84.0001ZM273.008 81.4137L268.515 82.0453L266.231 91.7013L273.008 81.4137ZM255.726 74.6164L251.916 75.152L249.193 82.4552L254.508 81.7079L255.726 74.6164ZM262.482 73.6665L258.101 74.2825L256.882 81.3742L265.606 80.1475L262.482 73.6665ZM268.667 72.7969L264.857 73.3325L267.983 79.8134L273.295 79.0666L268.667 72.7969Z" fill="white"/>
<path d="M304.973 84.7842C304.343 84.5012 280.429 75.002 274.192 77.8572C267.954 80.7123 279.901 90.5765 284.965 92.6026C281.425 100.622 277.72 110.557 281.579 119.162C285.438 127.767 327.783 95.4917 304.973 84.7842Z" fill="#FFC89E"/>
<path d="M301.138 82.7226C298.751 81.6034 296.147 80.9319 293.628 80.1568C290.89 79.3174 288.14 78.4947 285.365 77.7756C281.413 76.7487 275.476 74.7145 272.415 78.5898C269.354 82.4652 274.086 86.4553 277.084 88.5063C279.166 89.9306 281.367 91.1477 283.48 92.5188C284.051 92.8826 284.111 92.8993 283.9 93.5205C283.689 94.1417 283.286 94.7153 283.02 95.2917C282.504 96.411 282.038 97.5554 281.633 98.7166C279.737 104.249 279.186 110.139 280.022 115.917C280.185 117.078 281.987 116.582 281.824 115.43C281.147 110.548 281.516 105.582 282.909 100.849C283.591 98.6456 284.462 96.503 285.513 94.4439C286.153 93.1428 286.147 92.1523 284.902 91.2541C281.393 88.719 276.744 87.0877 274.174 83.4474C272.664 81.29 273.52 78.99 276.133 78.31C278.586 77.6833 281.419 78.6626 283.791 79.2558C286.487 79.9273 289.151 80.6968 291.807 81.4943C294.594 82.3337 297.558 83.0472 300.196 84.2924C301.275 84.7988 302.223 83.2179 301.138 82.7114V82.7226Z" fill="black"/>
<path fill-rule="evenodd" clip-rule="evenodd" d="M332.792 229.423C339.975 181.899 332.594 140.116 328.606 122.703C327.831 119.32 324.206 117.512 320.856 118.923C310.882 123.126 294.175 130.075 284.262 133.706C282.096 134.5 280.53 136.326 280.178 138.498C274.217 175.329 275.885 213.119 276.932 228.191C277.134 231.096 279.456 233.354 282.394 233.496C293.664 234.042 315.934 234.891 328.313 233.851C330.59 233.66 332.422 231.871 332.792 229.423ZM330.568 122.253C329.496 117.571 324.5 115.203 320.074 117.068C310.092 121.274 293.43 128.204 283.57 131.816C280.771 132.841 278.667 135.234 278.191 138.176C272.193 175.235 273.873 213.206 274.924 228.331C275.197 232.268 278.355 235.316 282.297 235.507C293.535 236.051 315.945 236.91 328.481 235.857C331.78 235.58 334.287 232.998 334.782 229.724C342.017 181.853 334.585 139.795 330.568 122.253Z" fill="black"/>
<path d="M400.507 283.449C400.507 283.449 387.006 265.063 370.406 264.855C353.503 278.432 340.084 285.513 332.565 288.865C328.734 290.573 324.449 288.886 322.391 285.231L312.156 267.053L262.336 263.027L248.024 290.707L229.123 280.642L211.331 269.358L176.5 283.449C176.5 283.449 170.35 262.249 176.5 254.375C182.649 246.502 394.352 249.225 400.507 254.375C406.662 259.526 400.507 283.449 400.507 283.449Z" fill="#8DF4A9"/>
<path d="M411.417 239.574C408.734 244.777 372.782 267.515 368.751 266.088C364.721 264.661 357.011 251.636 357.053 247.268C357.095 242.9 396.185 218.875 399.718 220.754C403.252 222.634 414.099 234.375 411.417 239.574Z" fill="#8DF4A9"/>
<path d="M386.584 237.458C388.511 235.965 390.372 236.286 392.107 236.565C393.721 236.866 395.227 237.145 396.693 236.008C398.132 234.894 398.702 233.076 397.353 231.335C396.442 230.16 395.295 229.668 393.974 229.581C393.181 229.529 392.541 228.792 392.772 228.031C392.897 227.618 393.253 227.312 393.684 227.29C396.014 227.174 398.143 227.958 399.618 229.861C401.702 232.55 400.981 235.719 398.508 237.636C396.092 239.509 393.905 239.122 391.935 238.779C390.338 238.5 388.924 238.22 387.658 239.201C387.473 239.345 387.296 239.54 387.146 239.764C386.807 240.271 386.153 240.65 385.592 240.41C385.199 240.242 384.964 239.82 385.111 239.419C385.4 238.632 385.913 237.979 386.584 237.458ZM380.313 242.495C381.176 241.826 382.322 241.82 382.835 242.481C383.347 243.142 383.055 244.25 382.192 244.919C381.329 245.588 380.183 245.594 379.671 244.933C379.159 244.272 379.451 243.163 380.313 242.495Z" fill="black"/>
<path d="M336.027 268.076C337.954 266.583 339.814 266.904 341.549 267.183C343.163 267.484 344.669 267.763 346.136 266.627C347.574 265.512 348.144 263.694 346.795 261.953C345.885 260.778 344.737 260.286 343.416 260.199C342.623 260.147 341.983 259.41 342.214 258.649C342.339 258.236 342.696 257.93 343.126 257.908C345.456 257.792 347.585 258.576 349.06 260.479C351.144 263.168 350.423 266.337 347.95 268.255C345.534 270.127 343.347 269.741 341.378 269.397C339.78 269.118 338.366 268.838 337.101 269.819C336.915 269.963 336.738 270.158 336.588 270.382C336.249 270.889 335.595 271.268 335.035 271.028C334.642 270.86 334.406 270.438 334.554 270.037C334.842 269.25 335.355 268.597 336.027 268.076ZM329.756 273.113C330.619 272.444 331.765 272.438 332.277 273.099C332.789 273.76 332.497 274.869 331.635 275.537C330.772 276.206 329.626 276.212 329.113 275.551C328.601 274.89 328.893 273.781 329.756 273.113Z" fill="black"/>
<path d="M399.898 282.721C390.348 282.676 321.252 254.12 318.482 248.533C315.713 242.946 323.409 226.16 328.951 223.601C334.493 221.042 408.734 252.525 410.366 257.789C411.998 263.053 409.456 282.763 399.898 282.721Z" fill="#8DF4A9"/>
<path d="M328.776 224.136C328.514 224.249 329.061 224.136 328.902 224.136C329.167 224.136 329.426 224.119 329.691 224.136C330.319 224.183 330.942 224.278 331.555 224.418C333.617 224.851 335.656 225.387 337.663 226.026C343.623 227.842 349.474 230.009 355.285 232.24C368.966 237.492 382.515 243.201 395.683 249.616C399.927 251.684 404.299 253.758 408.198 256.438C408.696 256.758 409.164 257.122 409.595 257.526C409.689 257.616 410.065 258.051 409.914 257.848C410.17 258.195 409.979 257.777 410.096 258.275C410.794 261.19 410.467 264.447 410.002 267.371C409.167 272.614 406.642 282.65 399.477 281.84C397.276 281.591 395.039 280.891 392.921 280.261C389.501 279.246 386.118 278.097 382.755 276.907C365.477 270.78 348.382 263.811 331.906 255.851C330.321 255.082 328.745 254.296 327.177 253.492C326.114 252.944 325.182 254.54 326.237 255.091C334.095 259.142 342.215 262.718 350.352 266.159C359.352 269.975 368.436 273.619 377.616 276.995C384.126 279.388 390.795 281.998 397.624 283.368C400.044 283.854 402.395 283.859 404.55 282.458C407.545 280.509 409.241 277.049 410.353 273.786C411.587 270.112 412.246 266.271 412.305 262.399C412.336 260.571 412.513 257.947 411.188 256.467C410.233 255.41 408.908 254.625 407.705 253.882C405.681 252.633 403.581 251.512 401.469 250.419C388.412 243.664 374.774 237.927 361.094 232.506C354.561 229.918 347.983 227.421 341.308 225.221C338.931 224.441 336.54 223.692 334.112 223.082C332.581 222.698 330.954 222.274 329.363 222.266C328.839 222.251 328.317 222.348 327.833 222.548C326.735 223.023 327.685 224.616 328.776 224.144V224.136Z" fill="black"/>
<path d="M248.564 262.892C247.233 264.934 245.369 265.24 243.639 265.545C242.015 265.789 240.501 266.018 239.488 267.573C238.494 269.097 238.55 271.002 240.396 272.205C241.64 273.017 242.886 273.105 244.162 272.755C244.929 272.544 245.775 273.031 245.806 273.826C245.823 274.257 245.586 274.663 245.186 274.825C243.023 275.698 240.755 275.654 238.738 274.339C235.888 272.481 235.531 269.251 237.24 266.629C238.91 264.069 241.103 263.717 243.076 263.397C244.676 263.137 246.104 262.938 246.979 261.597C247.107 261.4 247.21 261.158 247.279 260.897C247.433 260.308 247.927 259.735 248.534 259.778C248.961 259.808 249.321 260.129 249.314 260.557C249.299 261.395 249.028 262.18 248.564 262.892ZM252.84 256.079C252.243 256.994 251.163 257.375 250.462 256.918C249.761 256.461 249.674 255.318 250.27 254.404C250.867 253.489 251.947 253.108 252.648 253.565C253.349 254.022 253.436 255.165 252.84 256.079Z" fill="black"/>
<path d="M359.365 230.265C354.07 237.774 293.471 263.934 287.533 260.554C281.595 257.175 272.562 234.409 273.59 227.482C274.618 220.555 340.369 193.238 345.422 197.193C350.475 201.148 364.659 222.757 359.365 230.265Z" fill="#8DF4A9"/>
<path d="M297.859 278.559C288.677 278.891 231.164 246.503 230.26 239.731C229.355 232.959 242.001 211.984 248.132 208.608C254.264 205.231 315.824 241.02 315.731 247.436C315.638 253.852 307.038 278.228 297.859 278.559Z" fill="#8DF4A9"/>
<path d="M241.147 251.626C236.546 258.432 182.842 282.904 177.474 279.997C172.107 277.089 163.624 256.885 164.419 250.674C165.214 244.463 223.502 218.868 228.089 222.304C232.675 225.739 245.745 244.82 241.147 251.626Z" fill="#8DF4A9"/>
<path d="M197.142 280.527C192.985 283.864 156.948 285.381 154.563 281.883C152.179 278.386 151.951 262.252 153.811 258.249C155.67 254.246 194.566 253.255 196.392 256.892C198.217 260.53 201.296 277.192 197.142 280.527Z" fill="#8DF4A9"/>
<path d="M196.26 250.808C198.47 249.778 200.213 250.503 201.843 251.159C203.351 251.81 204.757 252.416 206.439 251.632C208.088 250.863 209.047 249.216 208.117 247.22C207.489 245.873 206.478 245.139 205.21 244.762C204.448 244.536 203.987 243.675 204.381 242.984C204.594 242.609 205.009 242.389 205.434 242.464C207.732 242.866 209.635 244.102 210.652 246.284C212.089 249.368 210.684 252.299 207.848 253.621C205.078 254.912 203.03 254.051 201.186 253.28C199.69 252.655 198.373 252.069 196.922 252.745C196.709 252.844 196.493 252.995 196.297 253.181C195.855 253.599 195.133 253.824 194.639 253.467C194.293 253.216 194.157 252.752 194.39 252.394C194.845 251.691 195.49 251.166 196.26 250.808ZM189.03 254.331C190.019 253.87 191.138 254.117 191.492 254.876C191.845 255.634 191.315 256.65 190.325 257.111C189.336 257.572 188.217 257.325 187.864 256.567C187.51 255.808 188.04 254.792 189.03 254.331Z" fill="black"/>
<path d="M313.386 228.338C315.596 227.308 317.339 228.034 318.969 228.689C320.477 229.34 321.883 229.946 323.565 229.162C325.214 228.393 326.173 226.747 325.243 224.75C324.615 223.403 323.604 222.669 322.336 222.292C321.574 222.066 321.113 221.205 321.507 220.514C321.72 220.139 322.135 219.919 322.56 219.994C324.858 220.396 326.761 221.632 327.778 223.815C329.215 226.898 327.81 229.829 324.974 231.151C322.204 232.442 320.156 231.581 318.312 230.811C316.816 230.185 315.499 229.599 314.048 230.275C313.835 230.374 313.619 230.525 313.423 230.711C312.981 231.13 312.258 231.355 311.765 230.997C311.419 230.746 311.283 230.283 311.516 229.924C311.971 229.221 312.616 228.697 313.386 228.338ZM306.156 231.861C307.145 231.4 308.264 231.648 308.618 232.406C308.971 233.164 308.441 234.18 307.451 234.642C306.462 235.103 305.343 234.855 304.99 234.097C304.636 233.339 305.166 232.322 306.156 231.861Z" fill="black"/>
<path d="M370.533 257.021C368.369 255.898 367.88 254.074 367.405 252.382C367.001 250.791 366.623 249.307 364.975 248.452C363.36 247.614 361.471 247.859 360.456 249.815C359.772 251.134 359.808 252.382 360.283 253.617C360.568 254.36 360.168 255.25 359.38 255.359C358.953 255.419 358.525 255.224 358.325 254.842C357.242 252.775 357.06 250.514 358.169 248.377C359.735 245.357 362.914 244.681 365.692 246.122C368.405 247.53 368.972 249.677 369.487 251.609C369.904 253.176 370.243 254.577 371.664 255.314C371.873 255.423 372.123 255.502 372.39 255.544C372.992 255.639 373.611 256.073 373.629 256.682C373.641 257.11 373.357 257.5 372.931 257.535C372.096 257.603 371.287 257.412 370.533 257.021ZM377.735 260.6C376.766 260.097 376.28 259.06 376.665 258.317C377.05 257.574 378.179 257.375 379.148 257.877C380.117 258.38 380.603 259.418 380.218 260.16C379.833 260.903 378.704 261.103 377.735 260.6Z" fill="black"/>
<path d="M270.245 246.154C268.081 245.031 267.592 243.207 267.117 241.515C266.713 239.923 266.335 238.439 264.687 237.585C263.072 236.747 261.183 236.992 260.168 238.947C259.484 240.267 259.52 241.515 259.995 242.75C260.28 243.492 259.879 244.382 259.092 244.492C258.665 244.552 258.237 244.357 258.037 243.975C256.954 241.908 256.772 239.647 257.881 237.509C259.447 234.49 262.626 233.814 265.404 235.255C268.117 236.662 268.684 238.81 269.199 240.742C269.615 242.309 269.955 243.71 271.376 244.447C271.585 244.555 271.835 244.634 272.102 244.676C272.704 244.771 273.323 245.206 273.341 245.815C273.353 246.242 273.069 246.633 272.643 246.668C271.807 246.736 270.999 246.545 270.245 246.154ZM277.447 249.733C276.478 249.23 275.992 248.192 276.377 247.45C276.762 246.707 277.891 246.507 278.86 247.01C279.829 247.513 280.315 248.55 279.93 249.293C279.545 250.035 278.416 250.235 277.447 249.733Z" fill="black"/>
<path d="M185.586 280.088C185.539 280.579 185.648 281.821 185.381 282.209C185.115 282.596 184.657 282.416 184.137 282.383C182.82 282.301 181.5 282.503 180.188 282.602C177.02 282.841 173.837 282.93 170.661 282.964C167.602 282.995 164.538 282.964 161.487 282.7C159.833 282.557 156.606 282.779 155.384 281.453C154.648 280.658 154.457 279.135 154.26 278.13C153.942 276.419 153.733 274.69 153.637 272.953C153.356 269.312 153.429 265.653 153.856 262.026C153.988 261.001 154.052 259.153 154.889 258.434C155.639 257.787 156.996 257.591 157.926 257.358C159.49 256.987 161.083 256.745 162.675 256.532C163.841 256.375 163.344 254.602 162.187 254.759C159.588 255.108 156.468 255.363 154.153 256.726C152.92 257.453 152.597 258.706 152.328 260.032C151.499 264.124 151.53 268.459 151.78 272.619C151.88 274.632 152.116 276.635 152.488 278.616C152.746 279.919 153.05 281.478 153.918 282.548C155.283 284.234 157.937 284.203 159.906 284.388C163.392 284.711 166.893 284.852 170.394 284.81C174.587 284.773 178.739 284.444 182.921 284.225C183.963 284.169 185.379 284.599 186.345 284.11C187.586 283.484 187.317 281.228 187.426 280.093C187.539 278.916 185.702 278.925 185.589 280.093L185.586 280.088Z" fill="black"/>
<path d="M240.352 251.167C239.004 253.114 235.934 254.788 233.788 256.091C229.721 258.569 225.494 260.788 221.236 262.92C211.523 267.791 201.552 272.271 191.336 275.973C187.828 277.24 184.219 278.546 180.528 279.153C179.657 279.296 178.59 279.434 177.952 279.206C178.04 279.237 177.655 279.035 177.455 278.892C177.074 278.606 176.72 278.286 176.396 277.937C175.587 277.067 174.857 276.127 174.214 275.128C170.843 270.071 168.363 264.265 166.63 258.465C165.956 256.218 165.262 253.813 165.305 251.442C165.335 249.664 167.507 248.389 168.813 247.476C170.779 246.103 172.843 244.875 174.922 243.693C183.607 238.752 192.802 234.597 202.029 230.771C206.644 228.861 211.298 227.03 216.04 225.46C219.199 224.415 222.823 222.757 226.196 222.814C228.322 222.85 229.213 224.446 230.342 226.055C231.016 227.016 232.608 226.097 231.929 225.125C230.946 223.721 229.929 221.954 228.252 221.319C226.755 220.757 225.039 220.971 223.508 221.277C219.421 222.097 215.329 223.701 211.43 225.12C201.512 228.781 191.803 232.988 182.348 237.721C177.674 240.035 173.029 242.468 168.678 245.355C167.097 246.406 165.136 247.628 164.055 249.232C163.383 250.232 163.389 251.412 163.493 252.569C163.984 258.583 166.597 264.647 169.209 270.013C170.532 272.726 172.018 275.411 173.863 277.802C174.821 279.038 176.087 280.658 177.694 281.055C178.818 281.335 180.098 281.099 181.222 280.9C182.98 280.565 184.717 280.122 186.421 279.574C197.013 276.33 207.268 271.709 217.244 266.934C222.194 264.566 227.1 262.088 231.867 259.372C234.957 257.605 238.302 255.782 240.903 253.302C241.289 252.943 241.637 252.544 241.939 252.111C242.616 251.136 241.024 250.218 240.352 251.184V251.167Z" fill="black"/>
<path d="M312.375 257.589C310.878 261.844 309.061 266.016 306.693 269.867C304.923 272.746 302.432 276.499 298.963 277.468C296.258 278.223 292.854 276.535 290.318 275.532C280.128 271.507 270.375 266.151 260.887 260.726C255.812 257.825 250.795 254.828 245.891 251.634C242.105 249.179 238.308 246.651 234.856 243.735C233.771 242.822 232.648 241.859 231.766 240.729C231.1 239.861 231.022 239.28 231.187 237.96C231.519 235.336 232.606 232.752 233.69 230.376C235.105 227.299 236.72 224.318 238.524 221.452C240.2 218.68 242.078 216.035 244.141 213.539C245.265 212.204 247.049 209.783 248.812 209.348C249.686 209.134 250.804 209.483 251.644 209.693C253.198 210.108 254.726 210.615 256.219 211.213C260.548 212.898 264.741 214.926 268.876 217.027C271.31 218.263 273.721 219.534 276.108 220.839C277.147 221.401 278.074 219.817 277.035 219.252C272.193 216.62 267.294 214.081 262.275 211.803C258.859 210.249 255.318 208.632 251.641 207.8C249.394 207.294 247.922 207.449 246.133 208.907C243.939 210.696 242.144 212.999 240.47 215.266C236.409 220.769 232.783 226.923 230.499 233.39C229.803 235.356 228.895 237.946 229.376 240.078C229.617 241.123 230.407 242.016 231.12 242.777C233.845 245.704 237.299 248.038 240.569 250.297C245.45 253.668 250.503 256.785 255.613 259.797C265.924 265.875 276.521 271.715 287.557 276.369C290.599 277.653 294.017 279.302 297.387 279.459C300.213 279.605 302.707 277.729 304.547 275.777C307.595 272.541 309.771 268.474 311.586 264.454C312.531 262.358 313.383 260.225 314.142 258.055C314.535 256.932 312.76 256.457 312.369 257.566L312.375 257.589Z" fill="black"/>
<path d="M358.574 229.809C357.54 231.239 355.287 232.618 353.636 233.654C350.546 235.62 347.31 237.342 344.058 239.014C335.651 243.337 327 247.207 318.254 250.78C310.692 253.87 302.994 256.904 295.067 258.926C293.034 259.449 290.624 260.196 288.492 259.898C288.511 259.898 287.93 259.73 288 259.761C287.372 259.39 286.81 258.915 286.34 258.356C284.885 256.803 283.748 254.952 282.703 253.112C280.061 248.39 277.931 243.399 276.35 238.224C275.619 235.986 275.056 233.696 274.664 231.373C274.476 230.171 274.159 228.584 274.563 227.396C274.504 227.573 274.892 226.896 274.864 226.932C275.12 226.615 275.402 226.319 275.706 226.048C276.521 225.318 277.388 224.649 278.302 224.048C281.043 222.232 283.884 220.573 286.812 219.079C294.677 214.935 302.85 211.315 311.086 207.949C318.787 204.801 326.607 201.806 334.612 199.523C337.171 198.789 339.808 198.031 342.477 197.778C343.204 197.711 344.139 197.677 344.597 197.806C344.909 197.896 344.768 197.806 345.061 198.068C345.636 198.579 346.183 199.122 346.698 199.694C349.821 203.143 352.394 207.171 354.63 211.242C356.922 215.421 359.262 220.185 359.585 225.025C359.697 226.691 359.537 228.379 358.579 229.8C357.914 230.783 359.503 231.702 360.166 230.727C362.503 227.278 361.29 222.416 360.054 218.795C358.298 213.685 355.616 208.865 352.599 204.402C351.345 202.517 349.981 200.709 348.513 198.986C347.701 198.045 346.763 196.829 345.636 196.247C344.024 195.405 341.628 196.003 339.965 196.318C332.401 197.75 325.02 200.587 317.855 203.34C308.903 206.758 300.064 210.522 291.452 214.716C287.882 216.455 284.34 218.264 280.917 220.275C278.622 221.623 276.232 223.045 274.296 224.893C272.409 226.694 272.454 228.643 272.794 231.16C273.485 236.295 275.285 241.325 277.274 246.084C279.178 250.643 281.36 255.393 284.604 259.176C286.29 261.143 287.815 261.985 290.36 261.704C293.323 261.424 296.236 260.581 299.067 259.713C303.173 258.477 307.212 257.03 311.223 255.499C320.586 251.951 329.78 248 338.805 243.648C342.738 241.764 346.625 239.803 350.425 237.671C353.125 236.157 355.843 234.581 358.259 232.637C358.977 232.085 359.618 231.439 360.163 230.716C360.852 229.775 359.259 228.857 358.574 229.809Z" fill="black"/>
<path d="M399.272 221.62C403.758 225.274 407.238 230.011 409.384 235.384C410.01 236.985 410.707 238.789 409.51 240.294C408.567 241.48 407.171 242.432 405.971 243.339C403.519 245.183 400.926 246.832 398.216 248.272C397.171 248.833 398.098 250.418 399.143 249.859C402.286 248.183 405.274 246.229 408.069 244.022C409.26 243.081 410.637 242.114 411.418 240.78C412.238 239.376 412.111 237.772 411.648 236.266C409.738 230.05 405.55 224.41 400.573 220.308C399.666 219.561 398.36 220.856 399.272 221.609V221.62Z" fill="black"/>
<path d="M311.789 267.98C314.048 272.667 316.479 277.25 318.913 281.851C320.346 284.554 321.743 287.784 324.274 289.574C326.921 291.446 330.12 290.684 332.889 289.574C337.312 287.784 341.625 285.71 345.803 283.363C350.379 280.793 354.994 278.012 358.717 274.177C359.549 273.307 358.268 271.978 357.436 272.835C354.415 275.947 350.784 278.27 347.117 280.44C343.24 282.737 339.237 284.793 335.128 286.596C332.384 287.798 328.584 289.962 325.638 288.242C323.273 286.86 321.99 283.754 320.734 281.387C318.215 276.636 315.695 271.885 313.355 267.033C312.829 265.943 311.263 266.902 311.789 267.991V267.98Z" fill="black"/>
<path d="M358.177 206.143L367.483 204.831L369.671 204.522C369.932 204.485 370.612 204.263 370.842 204.365C371.173 204.508 371.258 205.03 371.37 205.328C371.855 206.6 372.364 207.862 372.898 209.115C375.169 214.459 377.864 219.614 380.956 224.53C381.585 225.53 383.175 224.609 382.543 223.603C378.986 217.961 375.963 212 373.513 205.797C373.139 204.842 372.884 203.328 371.912 202.761C370.94 202.193 369.384 202.721 368.362 202.865L357.688 204.37C356.52 204.533 357.017 206.306 358.177 206.143Z" fill="black"/>
<path d="M408.471 245.719C409.755 246.123 411.063 246.089 412.403 246.213C414.479 246.404 415.35 247.446 415.72 249.44C416.414 253.179 416.827 256.994 417.26 260.769C417.679 264.421 418.027 268.079 418.304 271.744C418.414 273.19 419.108 275.988 417.56 276.859C416.417 277.505 414.816 277.198 413.603 276.948C412.448 276.713 411.954 278.482 413.114 278.721C415.864 279.283 419.709 279.308 420.265 275.78C420.608 273.617 420.108 271.168 419.92 268.996C419.717 266.616 419.484 264.239 419.22 261.864C418.967 259.589 418.686 257.319 418.378 255.053C418.077 252.806 417.894 250.497 417.355 248.311C416.97 246.752 416.111 245.404 414.572 244.803C412.78 244.106 410.788 244.522 408.954 243.96C407.831 243.606 407.339 245.379 408.465 245.733L408.471 245.719Z" fill="black"/>
<path d="M255.76 202.385L262.782 196.702C263.521 196.104 264.074 195.495 265.029 196.068C265.591 196.407 266.114 196.989 266.588 197.447C267.659 198.488 268.632 199.624 269.495 200.843C270.178 201.798 271.773 200.879 271.082 199.913C269.992 198.36 268.741 196.927 267.349 195.638C266.372 194.747 265.102 193.421 263.639 193.877C263.049 194.062 262.594 194.506 262.119 194.885C261.277 195.57 260.417 196.264 259.566 196.952L254.454 201.087C253.536 201.832 254.845 203.124 255.755 202.385H255.76Z" fill="black"/>
<path d="M260.564 263.982C256.407 272.751 252.006 281.4 247.362 289.928L248.402 289.507C236.983 284.797 226.306 278.457 216.705 270.687C215.792 269.948 214.483 271.249 215.404 271.987C225.251 279.953 236.201 286.449 247.913 291.271C248.108 291.325 248.315 291.313 248.503 291.237C248.69 291.161 248.847 291.024 248.949 290.85C253.584 282.322 257.98 273.673 262.137 264.903C262.642 263.839 261.055 262.906 260.55 263.973L260.564 263.982Z" fill="black"/>
<path d="M160.159 243.24C159.387 238.153 159.397 232.978 160.187 227.894C160.341 226.923 160.428 225.583 161.164 224.855C161.954 224.077 163.521 223.883 164.535 223.597C166.902 222.924 169.273 222.269 171.65 221.63C181.239 219.009 190.882 216.595 200.58 214.389C201.897 214.086 203.226 213.706 204.566 213.515C206.195 213.282 206.863 214.125 207.526 215.428C208.753 217.892 209.4 220.603 209.416 223.355C209.433 224.538 211.27 224.541 211.253 223.355C211.233 220.848 210.745 218.366 209.812 216.038C209.071 214.215 208.11 211.99 205.925 211.661C204.863 211.501 203.79 211.779 202.76 212.01C201.246 212.347 199.734 212.695 198.226 213.044C195.294 213.723 192.366 214.421 189.443 215.136C183.777 216.522 178.124 217.973 172.484 219.49C169.675 220.25 166.866 221.028 164.057 221.824C161.906 222.434 159.746 222.852 158.909 225.195C157.943 227.897 157.878 231.26 157.785 234.097C157.7 237.323 157.904 240.55 158.395 243.74C158.569 244.905 160.341 244.411 160.167 243.251L160.159 243.24Z" fill="black"/>
<path d="M285.749 143.82C284.637 166.292 284.628 188.773 285.721 211.263C285.78 212.443 287.617 212.448 287.561 211.263C286.466 188.791 286.474 166.31 287.586 143.82C287.645 142.637 285.806 142.643 285.749 143.82Z" fill="black"/>
<path d="M301.72 135.175C305.461 157.602 302.641 180.444 304.919 202.992C305.037 204.158 306.885 204.169 306.756 202.992C304.461 180.276 307.262 157.287 303.492 134.686C303.298 133.521 301.526 134.015 301.72 135.175Z" fill="black"/>
<path d="M315.337 130.312C320.698 152.012 322.67 174.411 321.182 196.713C321.103 197.893 322.943 197.89 323.022 196.713C324.509 174.248 322.515 151.688 317.109 129.832C316.828 128.683 315.05 129.169 315.337 130.321V130.312Z" fill="black"/>
<path d="M202.449 45.3223C202.43 51.5217 198.607 56.5413 193.896 56.5413C198.618 56.5413 202.449 61.5974 202.449 67.8052C202.449 61.6002 206.258 56.5694 210.965 56.5413C206.272 56.5132 202.469 51.5076 202.449 45.3223Z" fill="url(#paint2_linear_12977_11272)"/>
<path d="M201.53 47.4662C202.825 51.4893 205.356 55.0014 208.763 57.5026L208.982 55.8172C204.62 57.3621 202.446 61.5615 200.674 65.5418C200.196 66.612 201.78 67.5502 202.261 66.4688C203.8 63.0194 205.631 58.9464 209.471 57.5896C209.642 57.5378 209.796 57.4374 209.912 57.3007C210.028 57.1639 210.102 56.9965 210.126 56.8186C210.149 56.6407 210.121 56.4598 210.044 56.2976C209.967 56.1354 209.845 55.9988 209.693 55.9043C206.682 53.6648 204.448 50.5394 203.303 46.9662C202.94 45.8426 201.165 46.3257 201.53 47.4549V47.4662Z" fill="black"/>
<path d="M213.069 118.801C213.038 128.32 207.171 136.025 199.936 136.025C207.188 136.025 213.069 143.769 213.069 153.323C213.069 143.795 218.92 136.064 226.147 136.025C218.937 135.983 213.095 128.295 213.069 118.801Z" fill="url(#paint3_linear_12977_11272)"/>
<path d="M212.103 121.988C212.747 125.269 214.2 128.337 216.33 130.914C218.461 133.492 221.201 135.496 224.302 136.746L224.082 135.061C217.142 138.325 212.679 145.813 213.069 153.468C213.131 154.645 214.968 154.653 214.909 153.468C214.754 149.981 215.631 146.526 217.429 143.534C219.228 140.543 221.868 138.149 225.021 136.651C225.818 136.274 225.45 135.246 224.799 134.965C219.128 132.668 215.016 127.479 213.884 121.482C213.665 120.322 211.892 120.814 212.111 121.971L212.103 121.988Z" fill="black"/>
<path d="M331.345 72.0082C335.306 69.2691 339.482 66.8549 343.833 64.7892C344.903 64.2808 343.97 62.6937 342.906 63.2021C338.555 65.2678 334.379 67.6821 330.418 70.4211C329.452 71.0897 330.37 72.6683 331.345 72.0082Z" fill="black"/>
<path d="M335.302 92.9396L346.219 97.0575C347.326 97.476 347.806 95.698 346.708 95.2851L335.79 91.1671C334.681 90.7486 334.203 92.5267 335.302 92.9396Z" fill="black"/>
<path d="M316.419 61.6697C317.222 58.7486 317.837 55.7791 318.261 52.7794C318.424 51.6221 316.655 51.1221 316.489 52.2906C316.062 55.2902 315.444 58.2597 314.641 61.181C314.326 62.3242 316.099 62.8102 316.413 61.6697H316.419Z" fill="black"/>
<defs>
<linearGradient id="paint0_linear_12977_11272" x1="166.722" y1="125.34" x2="157.433" y2="91.6663" gradientUnits="userSpaceOnUse">
<stop stop-color="#CD2FD4"/>
<stop offset="0.470026" stop-color="#007AFF"/>
<stop offset="1" stop-color="#8DF4A9"/>
</linearGradient>
<linearGradient id="paint1_linear_12977_11272" x1="243.536" y1="110.651" x2="302.793" y2="72.2282" gradientUnits="userSpaceOnUse">
<stop stop-color="#CD2FD4"/>
<stop offset="0.470026" stop-color="#007AFF"/>
<stop offset="1" stop-color="#8DF4A9"/>
</linearGradient>
<linearGradient id="paint2_linear_12977_11272" x1="199.432" y1="67.4661" x2="199.335" y2="48.8719" gradientUnits="userSpaceOnUse">
<stop stop-color="#CD2FD4"/>
<stop offset="0.470026" stop-color="#007AFF"/>
<stop offset="1" stop-color="#8DF4A9"/>
</linearGradient>
<linearGradient id="paint3_linear_12977_11272" x1="220.905" y1="152.8" x2="211.442" y2="117.888" gradientUnits="userSpaceOnUse">
<stop offset="0.154133" stop-color="#CD2FD4"/>
<stop offset="0.470026" stop-color="#007AFF"/>
<stop offset="0.741746" stop-color="#8DF4A9"/>
</linearGradient>
</defs>
</svg>
