<svg width="344" height="72" viewBox="0 0 344 72" fill="none" xmlns="http://www.w3.org/2000/svg">
<path d="M2.41416 60.0537L0.0305176 59.9073V71.5H343.275V1.81068L340.891 6.94934C338.507 12.088 333.74 22.3653 328.973 21.082C324.206 19.7986 319.438 6.95462 314.671 2.50344C309.904 -1.94773 305.136 1.99395 300.369 4.91862C295.602 7.84329 290.835 9.75096 286.067 18.0568C281.3 26.3626 276.533 41.0666 271.765 49.7784C266.998 58.4902 262.231 61.2099 257.464 59.4776C252.696 57.7452 247.929 51.5609 243.162 46.5587C238.395 41.5565 233.627 37.7365 228.86 37.2474C224.093 36.7583 219.325 39.6002 214.558 38.0052C209.791 36.4101 205.024 30.3782 200.256 34.2171C195.489 38.0559 190.722 51.7656 185.954 48.3274C181.187 44.8893 176.42 24.3032 171.653 22.7194C166.885 21.1356 162.118 38.5541 157.351 38.8134C152.583 39.0726 147.816 22.1727 143.049 19.7792C138.282 17.3857 133.514 29.4986 128.747 30.2825C123.98 31.0664 119.213 20.5214 114.445 27.3387C109.678 34.1561 104.911 58.3358 100.143 64.2372C95.3761 70.1386 90.6088 57.7617 85.8416 55.2701C81.0743 52.7786 76.307 60.1723 71.5397 55.9726C66.7724 51.7728 62.0052 35.9794 57.2379 36.6884C52.4706 37.3974 47.7033 54.6088 42.936 60.1438C38.1688 65.6788 33.4015 59.5374 28.6342 57.6983C23.8669 55.8591 19.0996 58.3222 14.3324 59.4074C9.56508 60.4926 4.7978 60.2 2.41416 60.0537Z" fill="url(#paint0_linear_996_2040)"/>
<path d="M0.0305176 59.7312L2.41416 59.8771C4.7978 60.023 9.56508 60.3148 14.3324 59.2328C19.0996 58.1508 23.8669 55.695 28.6342 57.5287C33.4015 59.3624 38.1688 65.4855 42.936 59.9669C47.7033 54.4483 52.4706 37.288 57.2379 36.5811C62.0052 35.8742 66.7724 51.6208 71.5397 55.8081C76.307 59.9954 81.0743 52.6235 85.8416 55.1077C90.6088 57.5919 95.3761 69.9321 100.143 64.0482C104.911 58.1643 109.678 34.0563 114.445 27.2592C119.213 20.462 123.98 30.9758 128.747 30.1942C133.514 29.4126 138.282 17.3357 143.049 19.7221C147.816 22.1085 152.583 38.9583 157.351 38.6998C162.118 38.4412 166.885 21.0744 171.653 22.6535C176.42 24.2326 181.187 44.7576 185.954 48.1856C190.722 51.6136 195.489 37.9446 200.256 34.1171C205.024 30.2896 209.791 36.3037 214.558 37.894C219.325 39.4843 224.093 36.6508 228.86 37.1384C233.627 37.6261 238.394 41.4348 243.162 46.4221C247.929 51.4095 252.696 57.5755 257.464 59.3027C262.231 61.0299 266.998 58.3183 271.765 49.6323C276.533 40.9463 281.3 26.2859 286.067 18.0047C290.835 9.72353 295.602 7.82152 300.369 4.90552C305.136 1.98952 309.904 -1.94047 314.671 2.4975C319.438 6.93548 324.206 19.7414 328.973 21.021C333.74 22.3005 338.507 12.0536 340.891 6.93022L343.275 1.8068" stroke="#2563EB"/>
<defs>
<linearGradient id="paint0_linear_996_2040" x1="171.653" y1="0.5" x2="171.653" y2="71.5" gradientUnits="userSpaceOnUse">
<stop stop-color="#60A5FA"/>
<stop offset="1" stop-color="#60A5FA" stop-opacity="0"/>
</linearGradient>
</defs>
</svg>
