<svg width="344" height="72" viewBox="0 0 344 72" fill="none" xmlns="http://www.w3.org/2000/svg">
<path d="M23.6641 33C23.6641 31.3431 22.3209 30 20.6641 30C19.0072 30 17.6641 31.3431 17.6641 33V39C17.6641 40.6569 19.0072 42 20.6641 42C22.3209 42 23.6641 40.6569 23.6641 39V33Z" fill="#3B82F6"/>
<path d="M37.6643 25C37.6643 23.3431 36.3212 22 34.6643 22C33.0075 22 31.6643 23.3431 31.6643 25V47C31.6643 48.6569 33.0075 50 34.6643 50C36.3212 50 37.6643 48.6569 37.6643 47V25Z" fill="#3B82F6"/>
<path d="M51.6648 15C51.6648 13.3431 50.3216 12 48.6648 12C47.0079 12 45.6648 13.3431 45.6648 15V57C45.6648 58.6569 47.0079 60 48.6648 60C50.3216 60 51.6648 58.6569 51.6648 57V15Z" fill="#3B82F6"/>
<path d="M65.665 29.0002C65.665 27.3434 64.3219 26.0002 62.665 26.0002C61.0082 26.0002 59.665 27.3434 59.665 29.0002V43.0002C59.665 44.6571 61.0082 46.0002 62.665 46.0002C64.3219 46.0002 65.665 44.6571 65.665 43.0002V29.0002Z" fill="#3B82F6"/>
<path d="M79.6653 21C79.6653 19.3431 78.3221 18 76.6653 18C75.0084 18 73.6653 19.3431 73.6653 21V51C73.6653 52.6569 75.0084 54 76.6653 54C78.3221 54 79.6653 52.6569 79.6653 51V21Z" fill="#3B82F6"/>
<path d="M93.6655 9C93.6655 7.34315 92.3224 6 90.6655 6C89.0087 6 87.6655 7.34315 87.6655 9V63C87.6655 64.6569 89.0087 66 90.6655 66C92.3224 66 93.6655 64.6569 93.6655 63V9Z" fill="#3B82F6"/>
<path d="M107.666 27.0002C107.666 25.3434 106.323 24.0002 104.666 24.0002C103.009 24.0002 101.666 25.3434 101.666 27.0002V45.0002C101.666 46.6571 103.009 48.0002 104.666 48.0002C106.323 48.0002 107.666 46.6571 107.666 45.0002V27.0002Z" fill="#3B82F6"/>
<path d="M121.666 33C121.666 31.3431 120.323 30 118.666 30C117.009 30 115.666 31.3431 115.666 33V39C115.666 40.6569 117.009 42 118.666 42C120.323 42 121.666 40.6569 121.666 39V33Z" fill="#93C5FD"/>
<path d="M135.666 19C135.666 17.3431 134.323 16 132.666 16C131.009 16 129.666 17.3431 129.666 19V53C129.666 54.6569 131.009 56 132.666 56C134.323 56 135.666 54.6569 135.666 53V19Z" fill="#93C5FD"/>
<path d="M149.666 29C149.666 27.3431 148.323 26 146.666 26C145.009 26 143.666 27.3431 143.666 29V43C143.666 44.6569 145.009 46 146.666 46C148.323 46 149.666 44.6569 149.666 43V29Z" fill="#93C5FD"/>
<path d="M163.667 13C163.667 11.3431 162.323 10 160.667 10C159.01 10 157.667 11.3431 157.667 13V59C157.667 60.6569 159.01 62 160.667 62C162.323 62 163.667 60.6569 163.667 59V13Z" fill="#93C5FD"/>
<path d="M177.667 31C177.667 29.3431 176.324 28 174.667 28C173.01 28 171.667 29.3431 171.667 31V41C171.667 42.6569 173.01 44 174.667 44C176.324 44 177.667 42.6569 177.667 41V31Z" fill="#93C5FD"/>
<path d="M191.667 23C191.667 21.3431 190.324 20 188.667 20C187.01 20 185.667 21.3431 185.667 23V49C185.667 50.6569 187.01 52 188.667 52C190.324 52 191.667 50.6569 191.667 49V23Z" fill="#93C5FD"/>
<path d="M205.667 35.0002C205.667 33.3434 204.324 32.0002 202.667 32.0002C201.01 32.0002 199.667 33.3434 199.667 35.0002V37.0002C199.667 38.6571 201.01 40.0002 202.667 40.0002C204.324 40.0002 205.667 38.6571 205.667 37.0002V35.0002Z" fill="#93C5FD"/>
<path d="M219.667 27C219.667 25.3431 218.324 24 216.667 24C215.01 24 213.667 25.3431 213.667 27V45C213.667 46.6569 215.01 48 216.667 48C218.324 48 219.667 46.6569 219.667 45V27Z" fill="#93C5FD"/>
<path d="M233.667 17C233.667 15.3431 232.324 14 230.667 14C229.01 14 227.667 15.3431 227.667 17V55C227.667 56.6569 229.01 58 230.667 58C232.324 58 233.667 56.6569 233.667 55V17Z" fill="#93C5FD"/>
<path d="M247.667 33C247.667 31.3431 246.324 30 244.667 30C243.011 30 241.667 31.3431 241.667 33V39C241.667 40.6569 243.011 42 244.667 42C246.324 42 247.667 40.6569 247.667 39V33Z" fill="#93C5FD"/>
<path d="M261.668 25C261.668 23.3431 260.325 22 258.668 22C257.011 22 255.668 23.3431 255.668 25V47C255.668 48.6569 257.011 50 258.668 50C260.325 50 261.668 48.6569 261.668 47V25Z" fill="#93C5FD"/>
<path d="M275.668 31C275.668 29.3431 274.325 28 272.668 28C271.011 28 269.668 29.3431 269.668 31V41C269.668 42.6569 271.011 44 272.668 44C274.325 44 275.668 42.6569 275.668 41V31Z" fill="#93C5FD"/>
<path d="M289.668 21C289.668 19.3431 288.325 18 286.668 18C285.011 18 283.668 19.3431 283.668 21V51C283.668 52.6569 285.011 54 286.668 54C288.325 54 289.668 52.6569 289.668 51V21Z" fill="#93C5FD"/>
<path d="M303.668 34C303.668 32.3431 302.325 31 300.668 31C299.012 31 297.668 32.3431 297.668 34V38C297.668 39.6569 299.012 41 300.668 41C302.325 41 303.668 39.6569 303.668 38V34Z" fill="#93C5FD"/>
<path d="M317.669 29C317.669 27.3431 316.326 26 314.669 26C313.012 26 311.669 27.3431 311.669 29V43C311.669 44.6569 313.012 46 314.669 46C316.326 46 317.669 44.6569 317.669 43V29Z" fill="#93C5FD"/>
</svg>
