<svg width="100" height="25" viewBox="0 0 100 25" fill="none" xmlns="http://www.w3.org/2000/svg">
<path d="M94.1237 21.3434V19.5597L95.8108 16.8397H94.3013L93.4577 18.3558L92.6142 16.8397H91.0602L92.7473 19.5597V21.3434H94.1237ZM89.3731 18.7571H88.5295V18.0436H89.3731C89.5951 18.0436 89.8171 18.1328 89.8171 18.4004C89.8171 18.6233 89.5951 18.7571 89.3731 18.7571ZM91.2378 21.3434L90.4387 19.7381C90.7938 19.5597 91.2378 19.1584 91.2378 18.3558C91.2378 17.5085 90.6606 16.7951 89.6395 16.7951H87.242V21.2988H88.6184V19.8719H89.1067L89.7283 21.2988H91.2378V21.3434ZM85.6437 21.3434V17.999H86.8424V16.7951H83.0686V17.999H84.2674V21.3434H85.6437ZM80.9819 21.4326C82.1807 21.4326 82.9354 20.8529 82.9354 19.8719C82.9354 18.1774 80.4492 18.5341 80.4492 18.1328C80.4492 17.999 80.5379 17.9099 80.8043 17.9099C81.2483 17.9099 81.7367 18.0436 82.1363 18.3558L82.8466 17.3748C82.3139 16.9734 81.6923 16.7505 80.9375 16.7505C79.6944 16.7505 79.0728 17.4639 79.0728 18.2666C79.0728 20.0502 81.6035 19.6043 81.6035 20.0502C81.6035 20.2286 81.3815 20.2732 81.1151 20.2732C80.4935 20.2732 80.0052 20.0056 79.65 19.6935L78.9396 20.7191C79.3392 21.165 80.0052 21.4326 80.9819 21.4326ZM78.4956 16.8397H77.1193V21.3434H78.4956V16.8397ZM74.5442 21.4326C75.4322 21.4326 76.0982 21.0758 76.5865 20.4961V18.6233H74.411V19.8273H75.2546V20.0056C75.1214 20.0948 74.8106 20.2286 74.5442 20.2286C73.8783 20.2286 73.4343 19.7381 73.4343 19.1138C73.4343 18.4895 73.8783 17.999 74.5442 17.999C74.9438 17.999 75.2546 18.2666 75.3878 18.5787L76.5421 17.999C76.2758 17.4194 75.6542 16.8397 74.5442 16.8397C73.1679 16.8397 72.058 17.7315 72.058 19.1584C72.1024 20.5407 73.2123 21.4326 74.5442 21.4326ZM71.7028 21.3434V20.1394H69.6605V19.6489H71.6584V18.445H69.6605V17.999H71.7028V16.7951H68.2841V21.2988H71.7028V21.3434ZM65.8867 18.7571H65.0431V18.0436H65.8867C66.1087 18.0436 66.3306 18.1328 66.3306 18.4004C66.3306 18.6233 66.153 18.7571 65.8867 18.7571ZM67.7514 21.3434L66.9522 19.7381C67.3074 19.5597 67.7514 19.1584 67.7514 18.3558C67.7514 17.5085 67.1742 16.7951 66.153 16.7951H63.7556V21.2988H65.1319V19.8719H65.6203L66.2418 21.2988H67.7514V21.3434ZM59.6266 18.7571H58.783V18.0436H59.6266C59.8486 18.0436 60.0705 18.1328 60.0705 18.4004C60.0705 18.6233 59.8486 18.7571 59.6266 18.7571ZM61.4469 21.3434L60.6477 19.7381C61.0029 19.5597 61.4469 19.1584 61.4469 18.3558C61.4469 17.5085 60.8697 16.7951 59.8486 16.7951H57.4511V21.2988H58.8274V19.8719H59.3158L59.9374 21.2988H61.4469V21.3434ZM56.9627 21.3434V20.1394H54.9204V19.6489H56.9183V18.445H54.9204V17.999H56.9627V16.7951H53.5441V21.2988H56.9627V21.3434ZM50.7914 20.184H50.1254V18.0436H50.7914C51.5018 18.0436 51.857 18.4895 51.857 19.1138C51.857 19.6489 51.4574 20.184 50.7914 20.184ZM50.7914 21.3434C52.2121 21.3434 53.2333 20.5407 53.2333 19.0692C53.2333 17.5977 52.1677 16.7951 50.747 16.7951H48.7491V21.2988H50.7914V21.3434ZM48.3051 16.8397H46.9288V21.3434H48.3051V16.8397ZM45.0197 21.3434L46.6624 16.8397H45.1085L44.1317 19.8719L43.155 16.8397H41.6011L43.2438 21.3434H45.0197ZM39.3812 20.2286C38.7152 20.2286 38.3156 19.7381 38.3156 19.1138C38.3156 18.4895 38.7596 17.999 39.3812 17.999C40.0471 17.999 40.4467 18.4895 40.4467 19.1138C40.4467 19.7381 40.0471 20.2286 39.3812 20.2286ZM39.3812 21.4326C40.7575 21.4326 41.823 20.4961 41.823 19.1138C41.823 17.7315 40.7575 16.7951 39.3812 16.7951C38.0048 16.7951 36.9393 17.7315 36.9393 19.1138C36.9393 20.4961 38.0048 21.4326 39.3812 21.4326ZM34.8526 18.7571H34.009V18.0436H34.8526C35.0746 18.0436 35.2966 18.1328 35.2966 18.4004C35.2966 18.6233 35.0746 18.7571 34.8526 18.7571ZM36.6729 21.3434L35.8737 19.7381C36.2289 19.5597 36.6729 19.1584 36.6729 18.3558C36.6729 17.5085 36.0957 16.7951 35.0746 16.7951H32.6771V21.2988H34.0534V19.8719H34.5418L35.1634 21.2988H36.6729V21.3434ZM30.5016 18.7571H29.658V18.0436H30.5016C30.7236 18.0436 30.9012 18.1774 30.9012 18.4004C30.9012 18.6233 30.7236 18.7571 30.5016 18.7571ZM29.6136 21.3434V19.9165H30.6348C31.7003 19.9165 32.2331 19.203 32.2331 18.3558C32.2331 17.5085 31.6559 16.7951 30.6348 16.7951H28.2373V21.2988H29.6136V21.3434Z" fill="#121A45"/>
<path d="M11.8544 2.08002C9.10171 3.64071 6.17146 4.2204 3.06361 3.7299C3.06361 3.81908 3.06361 3.90826 3.06361 3.99744C3.06361 6.04864 3.06361 8.09983 3.06361 10.1064C3.06361 12.7373 3.81837 15.1006 5.2835 17.2856C6.92622 19.6489 9.14611 21.3434 11.7212 22.5028C11.7656 22.5028 11.7656 22.5028 11.8544 22.5474V2.08002ZM2.61963 7.20801C2.61963 6.00405 2.61963 4.80009 2.61963 3.64071C2.61963 3.32858 2.70842 3.23939 3.01921 3.28399C6.12706 3.77449 9.01292 3.23939 11.7212 1.6787C11.8544 1.58952 11.9876 1.58952 12.1208 1.6787C14.7846 3.32858 17.7149 3.81908 20.7783 3.28399C21.0891 3.23939 21.1779 3.28399 21.1779 3.59612C21.1779 5.91486 21.2223 8.23361 21.1779 10.5523C21.1335 13.317 20.2012 15.8587 18.5141 18.0437C16.8269 20.2732 14.607 21.8785 12.0764 23.0379C11.9876 23.0825 11.8544 23.0825 11.7656 23.0379C8.79093 21.7001 6.30465 19.7827 4.57313 16.9289C3.2856 14.8331 2.66403 12.6035 2.66403 10.151C2.61963 9.17002 2.61963 8.18901 2.61963 7.20801Z" fill="white"/>
<path d="M11.8544 2.08002C9.10171 3.64071 6.17146 4.2204 3.06361 3.7299C3.06361 3.81908 3.06361 3.90826 3.06361 3.99744C3.06361 6.04864 3.06361 8.09983 3.06361 10.1064C3.06361 12.7373 3.81837 15.1006 5.2835 17.2856C6.92622 19.6489 9.14611 21.3434 11.7212 22.5028C11.7656 22.5028 11.7656 22.5028 11.8544 22.5474V2.08002ZM2.61963 7.20801C2.61963 6.00405 2.61963 4.80009 2.61963 3.64071C2.61963 3.32858 2.70842 3.23939 3.01921 3.28399C6.12706 3.77449 9.01292 3.23939 11.7212 1.6787C11.8544 1.58952 11.9876 1.58952 12.1208 1.6787C14.7846 3.32858 17.7149 3.81908 20.7783 3.28399C21.0891 3.23939 21.1779 3.28399 21.1779 3.59612C21.1779 5.91486 21.2223 8.23361 21.1779 10.5523C21.1335 13.317 20.2012 15.8587 18.5141 18.0437C16.8269 20.2732 14.607 21.8785 12.0764 23.0379C11.9876 23.0825 11.8544 23.0825 11.7656 23.0379C8.79093 21.7001 6.30465 19.7827 4.57313 16.9289C3.2856 14.8331 2.66403 12.6035 2.66403 10.151C2.61963 9.17002 2.61963 8.18902 2.61963 7.20801Z" stroke="#1B6DA7" stroke-width="0.727"/>
<path d="M10.3891 17.2856L6.03809 12.9156L8.12478 10.8198L10.3891 13.094L16.6492 6.80664L18.7359 8.90243L10.3891 17.2856Z" fill="#1B6DA7"/>
<mask id="mask0_769_36745" style="mask-type:alpha" maskUnits="userSpaceOnUse" x="2" y="1" width="11" height="23">
<path d="M12.1083 1.5752V23.0403C12.061 23.0403 11.8805 23.087 11.8331 23.0403C9.0862 21.7776 6.59695 20.0005 4.8446 17.522C3.2817 15.2773 2.47656 12.752 2.47656 9.99287C2.47656 7.84168 2.47656 5.6905 2.47656 3.58608C2.47656 3.49255 2.47656 3.39902 2.47656 3.30549C5.79182 3.81991 9.17195 3.21196 12.1083 1.5752Z" fill="#1B6DA7"/>
</mask>
<g mask="url(#mask0_769_36745)">
<path d="M11.9751 1.62207V23.0871C11.9278 23.0871 11.8806 23.0871 11.8333 23.0404C9.09251 21.7777 6.72974 20.0474 4.98129 17.5689C3.42186 15.3242 2.61852 12.7989 2.61852 10.0397C2.61852 7.88856 2.61852 5.73738 2.61852 3.63296C2.61852 3.53943 2.61852 3.4459 2.61852 3.35237C5.9264 3.86679 9.04525 3.25884 11.9751 1.62207Z" fill="#1B6DA7"/>
<path d="M10.3891 17.2851L6.03809 12.9151L8.12478 10.8194L10.3891 13.0935L16.6492 6.80615L18.7359 8.90194L10.3891 17.2851Z" fill="white"/>
</g>
<path d="M89.7724 14.9669C91.7703 14.9669 93.2799 14.1642 94.3898 12.9157V8.7687H89.4617V11.4442H91.3264V11.8009C91.0156 12.0239 90.3496 12.2468 89.7724 12.2468C88.3073 12.2468 87.3305 11.132 87.3305 9.70512C87.3305 8.2782 88.3073 7.16342 89.7724 7.16342C90.6604 7.16342 91.3264 7.7877 91.6371 8.41197L94.2122 7.07424C93.5906 5.7811 92.1699 4.44336 89.7724 4.44336C86.709 4.44336 84.2227 6.44996 84.2227 9.66053C84.2671 12.9603 86.7534 14.9669 89.7724 14.9669ZM83.4679 14.7885V4.66632H80.4045V9.48216L76.8971 4.66632H73.7448V14.7885H76.8083V9.66053L80.5377 14.7885H83.4679ZM72.9901 4.66632H69.9266V14.7885H72.9901V4.66632ZM69.2162 14.7885V4.66632H66.1528V9.48216L62.6454 4.66632H59.4931V14.7885H62.5566V9.66053L66.286 14.7885H69.2162ZM58.6052 4.66632H55.5417V14.7885H58.6052V4.66632ZM50.4804 10.9091H48.4824L49.4592 7.65392L50.4804 10.9091ZM55.0977 14.7885L51.3683 4.66632H47.5501L43.8207 14.7885H47.2837L47.6389 13.5846H51.2795L51.6347 14.7885H55.0977ZM39.4697 8.90248H37.605V7.2972H39.4697C40.0025 7.2972 40.4464 7.52015 40.4464 8.09984C40.4908 8.67952 40.0025 8.90248 39.4697 8.90248ZM43.5987 14.7885L41.7784 11.2212C42.5775 10.8199 43.5987 9.88348 43.5987 8.14443C43.5987 6.22701 42.3112 4.66632 39.9581 4.66632H34.5859V14.7885H37.6494V11.6225H38.7593L40.1357 14.7885H43.5987ZM31.2117 14.7885V7.34179H33.92V4.66632H25.4844V7.34179H28.1926V14.7885H31.2117Z" fill="#1B6DA7"/>
</svg>
