<svg width="143" height="24" viewBox="0 0 143 24" fill="none" xmlns="http://www.w3.org/2000/svg">
<path d="M12.6792 18.3019L18.1887 16.9057L20.4906 24L12.6792 18.3019ZM25.3585 9.13208H15.6604L12.6792 0L9.69811 9.13208H0L7.84906 14.7925L4.86792 23.9245L12.717 18.2641L17.5472 14.7925L25.3585 9.13208Z" fill="#00B67A"/>
<path d="M42.0377 18.3019L47.5472 16.9057L49.8491 24L42.0377 18.3019ZM54.717 9.13208H45.0189L42.0377 0L39.0566 9.13208H29.3585L37.2075 14.7925L34.2264 23.9245L42.0755 18.2641L46.9057 14.7925L54.717 9.13208Z" fill="#00B67A"/>
<path d="M71.3962 18.3019L76.9057 16.9057L79.2075 24L71.3962 18.3019ZM84.0755 9.13208H74.3774L71.3962 0L68.4151 9.13208H58.717L66.566 14.7925L63.5849 23.9245L71.434 18.2641L76.2641 14.7925L84.0755 9.13208Z" fill="#00B67A"/>
<path d="M100.755 18.3019L106.264 16.9057L108.566 24L100.755 18.3019ZM113.434 9.13208H103.736L100.755 0L97.7736 9.13208H88.0755L95.9245 14.7925L92.9434 23.9245L100.792 18.2641L105.623 14.7925L113.434 9.13208Z" fill="#00B67A"/>
<path d="M130.113 18.3019L135.623 16.9057L137.925 24L130.113 18.3019ZM142.792 9.13208H133.094L130.113 0L127.132 9.13208H117.434L125.283 14.7925L122.302 23.9245L130.151 18.2641L134.981 14.7925L142.792 9.13208Z" fill="#00B67A"/>
</svg>
